G04 (created by PCBNEW (2013-07-20 BZR 4243)-testing) date 23/04/2014 9:13:50 PM*
%MOIN*%
G04 Gerber Fmt 3.4, Leading zero omitted, Abs format*
%FSLAX34Y34*%
G01*
G70*
G90*
G04 APERTURE LIST*
%ADD10C,0.005906*%
%ADD11C,0.011811*%
%ADD12C,0.003937*%
%ADD13C,0.005000*%
%ADD14R,0.059000X0.051200*%
%ADD15R,0.051200X0.059000*%
%ADD16R,0.060000X0.078700*%
%ADD17O,0.060000X0.078700*%
%ADD18C,0.066900*%
%ADD19R,0.060000X0.086600*%
%ADD20O,0.060000X0.086600*%
%ADD21R,0.078700X0.060000*%
%ADD22O,0.078700X0.060000*%
%ADD23C,0.078700*%
%ADD24R,0.086600X0.060000*%
%ADD25O,0.086600X0.060000*%
%ADD26C,0.059055*%
%ADD27C,0.078740*%
G04 APERTURE END LIST*
G54D10*
G54D11*
X11837Y-1982D02*
X11809Y-1954D01*
X11753Y-1926D01*
X11612Y-1926D01*
X11556Y-1954D01*
X11528Y-1982D01*
X11500Y-2039D01*
X11500Y-2095D01*
X11528Y-2179D01*
X11865Y-2517D01*
X11500Y-2517D01*
X11134Y-1926D02*
X11078Y-1926D01*
X11021Y-1954D01*
X10993Y-1982D01*
X10965Y-2039D01*
X10937Y-2151D01*
X10937Y-2292D01*
X10965Y-2404D01*
X10993Y-2460D01*
X11021Y-2489D01*
X11078Y-2517D01*
X11134Y-2517D01*
X11190Y-2489D01*
X11218Y-2460D01*
X11246Y-2404D01*
X11275Y-2292D01*
X11275Y-2151D01*
X11246Y-2039D01*
X11218Y-1982D01*
X11190Y-1954D01*
X11134Y-1926D01*
X10375Y-2517D02*
X10712Y-2517D01*
X10543Y-2517D02*
X10543Y-1926D01*
X10600Y-2010D01*
X10656Y-2067D01*
X10712Y-2095D01*
X9869Y-2123D02*
X9869Y-2517D01*
X10009Y-1898D02*
X10150Y-2320D01*
X9784Y-2320D01*
X9109Y-2123D02*
X9109Y-2714D01*
X9109Y-2151D02*
X9053Y-2123D01*
X8941Y-2123D01*
X8884Y-2151D01*
X8856Y-2179D01*
X8828Y-2235D01*
X8828Y-2404D01*
X8856Y-2460D01*
X8884Y-2489D01*
X8941Y-2517D01*
X9053Y-2517D01*
X9109Y-2489D01*
X8350Y-2489D02*
X8406Y-2517D01*
X8519Y-2517D01*
X8575Y-2489D01*
X8603Y-2432D01*
X8603Y-2207D01*
X8575Y-2151D01*
X8519Y-2123D01*
X8406Y-2123D01*
X8350Y-2151D01*
X8322Y-2207D01*
X8322Y-2264D01*
X8603Y-2320D01*
X7984Y-2517D02*
X8041Y-2489D01*
X8069Y-2432D01*
X8069Y-1926D01*
X7759Y-2517D02*
X7759Y-2123D01*
X7759Y-2235D02*
X7731Y-2179D01*
X7703Y-2151D01*
X7647Y-2123D01*
X7591Y-2123D01*
X7141Y-2123D02*
X7141Y-2517D01*
X7394Y-2123D02*
X7394Y-2432D01*
X7366Y-2489D01*
X7309Y-2517D01*
X7225Y-2517D01*
X7169Y-2489D01*
X7141Y-2460D01*
X6860Y-2123D02*
X6860Y-2517D01*
X6860Y-2179D02*
X6831Y-2151D01*
X6775Y-2123D01*
X6691Y-2123D01*
X6635Y-2151D01*
X6606Y-2207D01*
X6606Y-2517D01*
X5960Y-2235D02*
X5988Y-2207D01*
X6044Y-2179D01*
X6100Y-2179D01*
X6156Y-2207D01*
X6185Y-2235D01*
X6213Y-2292D01*
X6213Y-2348D01*
X6185Y-2404D01*
X6156Y-2432D01*
X6100Y-2460D01*
X6044Y-2460D01*
X5988Y-2432D01*
X5960Y-2404D01*
X5960Y-2179D02*
X5960Y-2404D01*
X5932Y-2432D01*
X5903Y-2432D01*
X5847Y-2404D01*
X5819Y-2348D01*
X5819Y-2207D01*
X5875Y-2123D01*
X5960Y-2067D01*
X6072Y-2039D01*
X6185Y-2067D01*
X6269Y-2123D01*
X6325Y-2207D01*
X6353Y-2320D01*
X6325Y-2432D01*
X6269Y-2517D01*
X6185Y-2573D01*
X6072Y-2601D01*
X5960Y-2573D01*
X5875Y-2517D01*
X5313Y-2123D02*
X5313Y-2601D01*
X5341Y-2657D01*
X5369Y-2685D01*
X5425Y-2714D01*
X5510Y-2714D01*
X5566Y-2685D01*
X5313Y-2489D02*
X5369Y-2517D01*
X5482Y-2517D01*
X5538Y-2489D01*
X5566Y-2460D01*
X5594Y-2404D01*
X5594Y-2235D01*
X5566Y-2179D01*
X5538Y-2151D01*
X5482Y-2123D01*
X5369Y-2123D01*
X5313Y-2151D01*
X5032Y-2517D02*
X5032Y-2123D01*
X5032Y-2179D02*
X5003Y-2151D01*
X4947Y-2123D01*
X4863Y-2123D01*
X4807Y-2151D01*
X4779Y-2207D01*
X4779Y-2517D01*
X4779Y-2207D02*
X4750Y-2151D01*
X4694Y-2123D01*
X4610Y-2123D01*
X4554Y-2151D01*
X4525Y-2207D01*
X4525Y-2517D01*
X3991Y-2517D02*
X3991Y-2207D01*
X4019Y-2151D01*
X4075Y-2123D01*
X4188Y-2123D01*
X4244Y-2151D01*
X3991Y-2489D02*
X4047Y-2517D01*
X4188Y-2517D01*
X4244Y-2489D01*
X4272Y-2432D01*
X4272Y-2376D01*
X4244Y-2320D01*
X4188Y-2292D01*
X4047Y-2292D01*
X3991Y-2264D01*
X3710Y-2517D02*
X3710Y-2123D01*
X3710Y-1926D02*
X3738Y-1954D01*
X3710Y-1982D01*
X3682Y-1954D01*
X3710Y-1926D01*
X3710Y-1982D01*
X3344Y-2517D02*
X3401Y-2489D01*
X3429Y-2432D01*
X3429Y-1926D01*
X3119Y-2460D02*
X3091Y-2489D01*
X3119Y-2517D01*
X3147Y-2489D01*
X3119Y-2460D01*
X3119Y-2517D01*
X2585Y-2489D02*
X2641Y-2517D01*
X2754Y-2517D01*
X2810Y-2489D01*
X2838Y-2460D01*
X2866Y-2404D01*
X2866Y-2235D01*
X2838Y-2179D01*
X2810Y-2151D01*
X2754Y-2123D01*
X2641Y-2123D01*
X2585Y-2151D01*
X2248Y-2517D02*
X2304Y-2489D01*
X2332Y-2460D01*
X2360Y-2404D01*
X2360Y-2235D01*
X2332Y-2179D01*
X2304Y-2151D01*
X2248Y-2123D01*
X2163Y-2123D01*
X2107Y-2151D01*
X2079Y-2179D01*
X2051Y-2235D01*
X2051Y-2404D01*
X2079Y-2460D01*
X2107Y-2489D01*
X2163Y-2517D01*
X2248Y-2517D01*
X1798Y-2517D02*
X1798Y-2123D01*
X1798Y-2179D02*
X1770Y-2151D01*
X1713Y-2123D01*
X1629Y-2123D01*
X1573Y-2151D01*
X1545Y-2207D01*
X1545Y-2517D01*
X1545Y-2207D02*
X1516Y-2151D01*
X1460Y-2123D01*
X1376Y-2123D01*
X1320Y-2151D01*
X1291Y-2207D01*
X1291Y-2517D01*
X10542Y-1417D02*
X10542Y-826D01*
X10345Y-1248D01*
X10148Y-826D01*
X10148Y-1417D01*
X9642Y-1389D02*
X9698Y-1417D01*
X9811Y-1417D01*
X9867Y-1389D01*
X9895Y-1332D01*
X9895Y-1107D01*
X9867Y-1051D01*
X9811Y-1023D01*
X9698Y-1023D01*
X9642Y-1051D01*
X9614Y-1107D01*
X9614Y-1164D01*
X9895Y-1220D01*
X9108Y-1023D02*
X9108Y-1501D01*
X9136Y-1557D01*
X9164Y-1585D01*
X9220Y-1614D01*
X9305Y-1614D01*
X9361Y-1585D01*
X9108Y-1389D02*
X9164Y-1417D01*
X9277Y-1417D01*
X9333Y-1389D01*
X9361Y-1360D01*
X9389Y-1304D01*
X9389Y-1135D01*
X9361Y-1079D01*
X9333Y-1051D01*
X9277Y-1023D01*
X9164Y-1023D01*
X9108Y-1051D01*
X8574Y-1417D02*
X8574Y-1107D01*
X8602Y-1051D01*
X8658Y-1023D01*
X8770Y-1023D01*
X8827Y-1051D01*
X8574Y-1389D02*
X8630Y-1417D01*
X8770Y-1417D01*
X8827Y-1389D01*
X8855Y-1332D01*
X8855Y-1276D01*
X8827Y-1220D01*
X8770Y-1192D01*
X8630Y-1192D01*
X8574Y-1164D01*
X8377Y-1023D02*
X8152Y-1023D01*
X8292Y-1417D02*
X8292Y-910D01*
X8264Y-854D01*
X8208Y-826D01*
X8152Y-826D01*
X7871Y-1417D02*
X7927Y-1389D01*
X7955Y-1332D01*
X7955Y-826D01*
X7392Y-1417D02*
X7392Y-1107D01*
X7421Y-1051D01*
X7477Y-1023D01*
X7589Y-1023D01*
X7646Y-1051D01*
X7392Y-1389D02*
X7449Y-1417D01*
X7589Y-1417D01*
X7646Y-1389D01*
X7674Y-1332D01*
X7674Y-1276D01*
X7646Y-1220D01*
X7589Y-1192D01*
X7449Y-1192D01*
X7392Y-1164D01*
X7139Y-1389D02*
X7083Y-1417D01*
X6971Y-1417D01*
X6914Y-1389D01*
X6886Y-1332D01*
X6886Y-1304D01*
X6914Y-1248D01*
X6971Y-1220D01*
X7055Y-1220D01*
X7111Y-1192D01*
X7139Y-1135D01*
X7139Y-1107D01*
X7111Y-1051D01*
X7055Y-1023D01*
X6971Y-1023D01*
X6914Y-1051D01*
X6633Y-1417D02*
X6633Y-826D01*
X6380Y-1417D02*
X6380Y-1107D01*
X6408Y-1051D01*
X6464Y-1023D01*
X6549Y-1023D01*
X6605Y-1051D01*
X6633Y-1079D01*
X5311Y-1417D02*
X5508Y-1135D01*
X5649Y-1417D02*
X5649Y-826D01*
X5424Y-826D01*
X5368Y-854D01*
X5340Y-882D01*
X5311Y-939D01*
X5311Y-1023D01*
X5340Y-1079D01*
X5368Y-1107D01*
X5424Y-1135D01*
X5649Y-1135D01*
X4833Y-1389D02*
X4890Y-1417D01*
X5002Y-1417D01*
X5058Y-1389D01*
X5087Y-1332D01*
X5087Y-1107D01*
X5058Y-1051D01*
X5002Y-1023D01*
X4890Y-1023D01*
X4833Y-1051D01*
X4805Y-1107D01*
X4805Y-1164D01*
X5087Y-1220D01*
X4299Y-1417D02*
X4299Y-826D01*
X4299Y-1389D02*
X4355Y-1417D01*
X4468Y-1417D01*
X4524Y-1389D01*
X4552Y-1360D01*
X4580Y-1304D01*
X4580Y-1135D01*
X4552Y-1079D01*
X4524Y-1051D01*
X4468Y-1023D01*
X4355Y-1023D01*
X4299Y-1051D01*
X3765Y-1023D02*
X3765Y-1417D01*
X4018Y-1023D02*
X4018Y-1332D01*
X3990Y-1389D01*
X3934Y-1417D01*
X3849Y-1417D01*
X3793Y-1389D01*
X3765Y-1360D01*
X3540Y-1417D02*
X3230Y-1023D01*
X3540Y-1023D02*
X3230Y-1417D01*
X2612Y-1023D02*
X2471Y-1417D01*
X2331Y-1023D01*
X1796Y-1417D02*
X2134Y-1417D01*
X1965Y-1417D02*
X1965Y-826D01*
X2021Y-910D01*
X2078Y-967D01*
X2134Y-995D01*
X1290Y-1417D02*
X1290Y-1107D01*
X1318Y-1051D01*
X1374Y-1023D01*
X1487Y-1023D01*
X1543Y-1051D01*
X1290Y-1389D02*
X1346Y-1417D01*
X1487Y-1417D01*
X1543Y-1389D01*
X1571Y-1332D01*
X1571Y-1276D01*
X1543Y-1220D01*
X1487Y-1192D01*
X1346Y-1192D01*
X1290Y-1164D01*
G54D12*
X0Y0D02*
X28600Y0D01*
X28600Y-17100D02*
X0Y-17100D01*
X0Y-17100D02*
X0Y0D01*
X28600Y0D02*
X28600Y-17100D01*
G54D13*
X12250Y-6600D02*
X11750Y-6600D01*
X12250Y-7100D02*
X11760Y-7100D01*
X12250Y-7250D02*
X12250Y-6450D01*
X12250Y-6450D02*
X11750Y-6450D01*
X11750Y-6450D02*
X11750Y-7250D01*
X11750Y-7250D02*
X12250Y-7250D01*
X9150Y-9450D02*
X9150Y-9950D01*
X9650Y-9450D02*
X9650Y-9940D01*
X9800Y-9450D02*
X9000Y-9450D01*
X9000Y-9450D02*
X9000Y-9950D01*
X9000Y-9950D02*
X9800Y-9950D01*
X9800Y-9950D02*
X9800Y-9450D01*
X11950Y-9550D02*
X11950Y-9050D01*
X11450Y-9550D02*
X11450Y-9060D01*
X11300Y-9550D02*
X12100Y-9550D01*
X12100Y-9550D02*
X12100Y-9050D01*
X12100Y-9050D02*
X11300Y-9050D01*
X11300Y-9050D02*
X11300Y-9550D01*
%LPC*%
G54D14*
X12000Y-6475D03*
X12000Y-7225D03*
G54D15*
X9025Y-9700D03*
X9775Y-9700D03*
G54D16*
X26300Y-14452D03*
G54D17*
X26300Y-15648D03*
X25300Y-14453D03*
X25300Y-15648D03*
X24300Y-14453D03*
X24300Y-15648D03*
X23300Y-14453D03*
X23300Y-15648D03*
X22300Y-14453D03*
X22300Y-15648D03*
X21300Y-14453D03*
X21300Y-15648D03*
X20300Y-14453D03*
X20300Y-15648D03*
X19300Y-14453D03*
X19300Y-15648D03*
X18300Y-14453D03*
X18300Y-15648D03*
X17300Y-14453D03*
X17300Y-15648D03*
X16300Y-14453D03*
X16300Y-15648D03*
X15300Y-14453D03*
X15300Y-15648D03*
X14300Y-14453D03*
X14300Y-15648D03*
X13300Y-14453D03*
X13300Y-15648D03*
X12300Y-14453D03*
X12300Y-15648D03*
X11300Y-14453D03*
X11300Y-15648D03*
X10300Y-14453D03*
X10300Y-15648D03*
X9300Y-14453D03*
X9300Y-15648D03*
X8300Y-14453D03*
X8300Y-15648D03*
X7300Y-14453D03*
X7300Y-15648D03*
X6300Y-14453D03*
X6300Y-15648D03*
X5300Y-14453D03*
X5300Y-15648D03*
X4300Y-14453D03*
X4300Y-15648D03*
X3300Y-14453D03*
X3300Y-15648D03*
X2300Y-14453D03*
X2300Y-15648D03*
G54D18*
X23300Y-8450D03*
X22300Y-9450D03*
X22300Y-8450D03*
X23300Y-7450D03*
X22300Y-6450D03*
X22300Y-7450D03*
X21300Y-6450D03*
X21300Y-7450D03*
X20300Y-6450D03*
X20300Y-7450D03*
X19300Y-6450D03*
X19300Y-7450D03*
X18300Y-6450D03*
X17300Y-7450D03*
X18300Y-7450D03*
X17300Y-8450D03*
X18300Y-8450D03*
X17300Y-9450D03*
X18300Y-9450D03*
X17300Y-10450D03*
X18300Y-11450D03*
X18300Y-10450D03*
X19300Y-11450D03*
X19300Y-10450D03*
X20300Y-11450D03*
X20300Y-10450D03*
X21300Y-11450D03*
X23300Y-9450D03*
X21300Y-10450D03*
X22300Y-11450D03*
X23300Y-10450D03*
X22300Y-10450D03*
G54D19*
X22300Y-2050D03*
G54D20*
X23300Y-2050D03*
X24300Y-2050D03*
G54D19*
X22300Y-3350D03*
G54D20*
X23300Y-3350D03*
X24300Y-3350D03*
G54D18*
X9900Y-4500D03*
X10900Y-5500D03*
X9900Y-5500D03*
X8900Y-4500D03*
X8900Y-5500D03*
X7900Y-4500D03*
X6900Y-5500D03*
X7900Y-5500D03*
X6900Y-6500D03*
X7900Y-6500D03*
X6900Y-7500D03*
X7900Y-7500D03*
X6900Y-8500D03*
X7900Y-8500D03*
X6900Y-9500D03*
X7900Y-9500D03*
X6900Y-10500D03*
X7900Y-11500D03*
X7900Y-10500D03*
X8900Y-11500D03*
X8900Y-10500D03*
X9900Y-11500D03*
X9900Y-10500D03*
X10900Y-11500D03*
X10900Y-10500D03*
X11900Y-11500D03*
X11900Y-10500D03*
X12900Y-9500D03*
X12900Y-11500D03*
X13900Y-10500D03*
X12900Y-10500D03*
X13900Y-9500D03*
X13900Y-8500D03*
X12900Y-8500D03*
X13900Y-7500D03*
X12900Y-7500D03*
X13900Y-6500D03*
X12900Y-6500D03*
X13900Y-5500D03*
X12900Y-4500D03*
X12900Y-5500D03*
X11900Y-4500D03*
X11900Y-5500D03*
X10900Y-4500D03*
G54D21*
X2648Y-7450D03*
G54D22*
X1452Y-7450D03*
X2648Y-6450D03*
X1452Y-6450D03*
G54D23*
X18900Y-1000D03*
X19900Y-1000D03*
G54D24*
X4650Y-10000D03*
G54D25*
X4650Y-9000D03*
X4650Y-8000D03*
X4650Y-7000D03*
X4650Y-6000D03*
X4650Y-5000D03*
G54D15*
X12075Y-9300D03*
X11325Y-9300D03*
G54D26*
X15500Y-800D03*
X14712Y-800D03*
X16287Y-800D03*
G54D27*
X13610Y-800D03*
X17389Y-800D03*
M02*
