G04 (created by PCBNEW (2013-07-20 BZR 4243)-testing) date 23/04/2014 9:13:50 PM*
%MOIN*%
G04 Gerber Fmt 3.4, Leading zero omitted, Abs format*
%FSLAX34Y34*%
G01*
G70*
G90*
G04 APERTURE LIST*
%ADD10C,0.005906*%
%ADD11C,0.009843*%
%ADD12C,0.003937*%
%ADD13C,0.011811*%
%ADD14C,0.007874*%
%ADD15C,0.005000*%
%ADD16C,0.012000*%
%ADD17C,0.011800*%
%ADD18C,0.010000*%
%ADD19R,0.086600X0.063000*%
%ADD20R,0.060000X0.078700*%
%ADD21O,0.060000X0.078700*%
%ADD22R,0.059000X0.051200*%
%ADD23C,0.066900*%
%ADD24R,0.023600X0.039400*%
%ADD25R,0.060000X0.086600*%
%ADD26O,0.060000X0.086600*%
%ADD27R,0.078700X0.060000*%
%ADD28O,0.078700X0.060000*%
%ADD29C,0.078700*%
%ADD30R,0.086600X0.060000*%
%ADD31O,0.086600X0.060000*%
%ADD32C,0.059055*%
%ADD33C,0.078740*%
%ADD34R,0.051200X0.059000*%
G04 APERTURE END LIST*
G54D10*
G54D11*
X3000Y-12778D02*
X3299Y-12778D01*
X3150Y-12928D02*
X3150Y-12628D01*
G54D12*
X0Y0D02*
X28600Y0D01*
X28600Y-17100D02*
X0Y-17100D01*
G54D13*
X967Y-5667D02*
X967Y-5076D01*
X1192Y-5076D01*
X1248Y-5104D01*
X1276Y-5132D01*
X1304Y-5189D01*
X1304Y-5273D01*
X1276Y-5329D01*
X1248Y-5357D01*
X1192Y-5385D01*
X967Y-5385D01*
X1895Y-5667D02*
X1698Y-5385D01*
X1557Y-5667D02*
X1557Y-5076D01*
X1782Y-5076D01*
X1839Y-5104D01*
X1867Y-5132D01*
X1895Y-5189D01*
X1895Y-5273D01*
X1867Y-5329D01*
X1839Y-5357D01*
X1782Y-5385D01*
X1557Y-5385D01*
X2457Y-5104D02*
X2401Y-5076D01*
X2317Y-5076D01*
X2232Y-5104D01*
X2176Y-5160D01*
X2148Y-5217D01*
X2120Y-5329D01*
X2120Y-5414D01*
X2148Y-5526D01*
X2176Y-5582D01*
X2232Y-5639D01*
X2317Y-5667D01*
X2373Y-5667D01*
X2457Y-5639D01*
X2485Y-5610D01*
X2485Y-5414D01*
X2373Y-5414D01*
X2738Y-5667D02*
X2738Y-5076D01*
X2935Y-5498D01*
X3132Y-5076D01*
X3132Y-5667D01*
X13392Y-2467D02*
X13195Y-2185D01*
X13055Y-2467D02*
X13055Y-1876D01*
X13279Y-1876D01*
X13336Y-1904D01*
X13364Y-1932D01*
X13392Y-1989D01*
X13392Y-2073D01*
X13364Y-2129D01*
X13336Y-2157D01*
X13279Y-2185D01*
X13055Y-2185D01*
X13645Y-2157D02*
X13842Y-2157D01*
X13926Y-2467D02*
X13645Y-2467D01*
X13645Y-1876D01*
X13926Y-1876D01*
X14151Y-2298D02*
X14432Y-2298D01*
X14095Y-2467D02*
X14292Y-1876D01*
X14489Y-2467D01*
X14686Y-2467D02*
X14686Y-1876D01*
X14826Y-1876D01*
X14911Y-1904D01*
X14967Y-1960D01*
X14995Y-2017D01*
X15023Y-2129D01*
X15023Y-2214D01*
X14995Y-2326D01*
X14967Y-2382D01*
X14911Y-2439D01*
X14826Y-2467D01*
X14686Y-2467D01*
X15698Y-1848D02*
X15192Y-2607D01*
X15839Y-1876D02*
X15979Y-2467D01*
X16092Y-2045D01*
X16204Y-2467D01*
X16345Y-1876D01*
X16907Y-2467D02*
X16710Y-2185D01*
X16570Y-2467D02*
X16570Y-1876D01*
X16795Y-1876D01*
X16851Y-1904D01*
X16879Y-1932D01*
X16907Y-1989D01*
X16907Y-2073D01*
X16879Y-2129D01*
X16851Y-2157D01*
X16795Y-2185D01*
X16570Y-2185D01*
X17160Y-2467D02*
X17160Y-1876D01*
X17357Y-1876D02*
X17695Y-1876D01*
X17526Y-2467D02*
X17526Y-1876D01*
X17891Y-2157D02*
X18088Y-2157D01*
X18173Y-2467D02*
X17891Y-2467D01*
X17891Y-1876D01*
X18173Y-1876D01*
G54D14*
X25204Y-3617D02*
X25099Y-3335D01*
X25024Y-3617D02*
X25024Y-3026D01*
X25144Y-3026D01*
X25174Y-3054D01*
X25189Y-3082D01*
X25204Y-3139D01*
X25204Y-3223D01*
X25189Y-3279D01*
X25174Y-3307D01*
X25144Y-3335D01*
X25024Y-3335D01*
X25399Y-3026D02*
X25459Y-3026D01*
X25489Y-3054D01*
X25519Y-3110D01*
X25534Y-3223D01*
X25534Y-3420D01*
X25519Y-3532D01*
X25489Y-3589D01*
X25459Y-3617D01*
X25399Y-3617D01*
X25369Y-3589D01*
X25339Y-3532D01*
X25324Y-3420D01*
X25324Y-3223D01*
X25339Y-3110D01*
X25369Y-3054D01*
X25399Y-3026D01*
X25669Y-3617D02*
X25669Y-3026D01*
X25774Y-3448D01*
X25879Y-3026D01*
X25879Y-3617D01*
X26329Y-3026D02*
X26359Y-3026D01*
X26389Y-3054D01*
X26404Y-3082D01*
X26419Y-3139D01*
X26434Y-3251D01*
X26434Y-3392D01*
X26419Y-3504D01*
X26404Y-3560D01*
X26389Y-3589D01*
X26359Y-3617D01*
X26329Y-3617D01*
X26299Y-3589D01*
X26284Y-3560D01*
X26269Y-3504D01*
X26254Y-3392D01*
X26254Y-3251D01*
X26269Y-3139D01*
X26284Y-3082D01*
X26299Y-3054D01*
X26329Y-3026D01*
X26809Y-3307D02*
X26914Y-3307D01*
X26959Y-3617D02*
X26809Y-3617D01*
X26809Y-3026D01*
X26959Y-3026D01*
X27094Y-3223D02*
X27094Y-3617D01*
X27094Y-3279D02*
X27109Y-3251D01*
X27139Y-3223D01*
X27184Y-3223D01*
X27214Y-3251D01*
X27229Y-3307D01*
X27229Y-3617D01*
X27514Y-3617D02*
X27514Y-3307D01*
X27499Y-3251D01*
X27469Y-3223D01*
X27409Y-3223D01*
X27379Y-3251D01*
X27514Y-3589D02*
X27484Y-3617D01*
X27409Y-3617D01*
X27379Y-3589D01*
X27364Y-3532D01*
X27364Y-3476D01*
X27379Y-3420D01*
X27409Y-3392D01*
X27484Y-3392D01*
X27514Y-3364D01*
X27664Y-3617D02*
X27664Y-3026D01*
X27664Y-3251D02*
X27694Y-3223D01*
X27754Y-3223D01*
X27784Y-3251D01*
X27799Y-3279D01*
X27814Y-3335D01*
X27814Y-3504D01*
X27799Y-3560D01*
X27784Y-3589D01*
X27754Y-3617D01*
X27694Y-3617D01*
X27664Y-3589D01*
X27994Y-3617D02*
X27964Y-3589D01*
X27949Y-3532D01*
X27949Y-3026D01*
X28234Y-3589D02*
X28204Y-3617D01*
X28144Y-3617D01*
X28114Y-3589D01*
X28099Y-3532D01*
X28099Y-3307D01*
X28114Y-3251D01*
X28144Y-3223D01*
X28204Y-3223D01*
X28234Y-3251D01*
X28249Y-3307D01*
X28249Y-3364D01*
X28099Y-3420D01*
X25204Y-2317D02*
X25099Y-2035D01*
X25024Y-2317D02*
X25024Y-1726D01*
X25144Y-1726D01*
X25174Y-1754D01*
X25189Y-1782D01*
X25204Y-1839D01*
X25204Y-1923D01*
X25189Y-1979D01*
X25174Y-2007D01*
X25144Y-2035D01*
X25024Y-2035D01*
X25399Y-1726D02*
X25459Y-1726D01*
X25489Y-1754D01*
X25519Y-1810D01*
X25534Y-1923D01*
X25534Y-2120D01*
X25519Y-2232D01*
X25489Y-2289D01*
X25459Y-2317D01*
X25399Y-2317D01*
X25369Y-2289D01*
X25339Y-2232D01*
X25324Y-2120D01*
X25324Y-1923D01*
X25339Y-1810D01*
X25369Y-1754D01*
X25399Y-1726D01*
X25669Y-2317D02*
X25669Y-1726D01*
X25774Y-2148D01*
X25879Y-1726D01*
X25879Y-2317D01*
X26239Y-1726D02*
X26449Y-1726D01*
X26314Y-2317D01*
X26809Y-2007D02*
X26914Y-2007D01*
X26959Y-2317D02*
X26809Y-2317D01*
X26809Y-1726D01*
X26959Y-1726D01*
X27094Y-1923D02*
X27094Y-2317D01*
X27094Y-1979D02*
X27109Y-1951D01*
X27139Y-1923D01*
X27184Y-1923D01*
X27214Y-1951D01*
X27229Y-2007D01*
X27229Y-2317D01*
X27514Y-2317D02*
X27514Y-2007D01*
X27499Y-1951D01*
X27469Y-1923D01*
X27409Y-1923D01*
X27379Y-1951D01*
X27514Y-2289D02*
X27484Y-2317D01*
X27409Y-2317D01*
X27379Y-2289D01*
X27364Y-2232D01*
X27364Y-2176D01*
X27379Y-2120D01*
X27409Y-2092D01*
X27484Y-2092D01*
X27514Y-2064D01*
X27664Y-2317D02*
X27664Y-1726D01*
X27664Y-1951D02*
X27694Y-1923D01*
X27754Y-1923D01*
X27784Y-1951D01*
X27799Y-1979D01*
X27814Y-2035D01*
X27814Y-2204D01*
X27799Y-2260D01*
X27784Y-2289D01*
X27754Y-2317D01*
X27694Y-2317D01*
X27664Y-2289D01*
X27994Y-2317D02*
X27964Y-2289D01*
X27949Y-2232D01*
X27949Y-1726D01*
X28234Y-2289D02*
X28204Y-2317D01*
X28144Y-2317D01*
X28114Y-2289D01*
X28099Y-2232D01*
X28099Y-2007D01*
X28114Y-1951D01*
X28144Y-1923D01*
X28204Y-1923D01*
X28234Y-1951D01*
X28249Y-2007D01*
X28249Y-2064D01*
X28099Y-2120D01*
G54D13*
X1262Y-1982D02*
X1290Y-1954D01*
X1346Y-1926D01*
X1487Y-1926D01*
X1543Y-1954D01*
X1571Y-1982D01*
X1599Y-2039D01*
X1599Y-2095D01*
X1571Y-2179D01*
X1234Y-2517D01*
X1599Y-2517D01*
X1965Y-1926D02*
X2021Y-1926D01*
X2078Y-1954D01*
X2106Y-1982D01*
X2134Y-2039D01*
X2162Y-2151D01*
X2162Y-2292D01*
X2134Y-2404D01*
X2106Y-2460D01*
X2078Y-2489D01*
X2021Y-2517D01*
X1965Y-2517D01*
X1909Y-2489D01*
X1881Y-2460D01*
X1853Y-2404D01*
X1824Y-2292D01*
X1824Y-2151D01*
X1853Y-2039D01*
X1881Y-1982D01*
X1909Y-1954D01*
X1965Y-1926D01*
X2724Y-2517D02*
X2387Y-2517D01*
X2556Y-2517D02*
X2556Y-1926D01*
X2499Y-2010D01*
X2443Y-2067D01*
X2387Y-2095D01*
X3230Y-2123D02*
X3230Y-2517D01*
X3090Y-1898D02*
X2949Y-2320D01*
X3315Y-2320D01*
X3990Y-2123D02*
X3990Y-2714D01*
X3990Y-2151D02*
X4046Y-2123D01*
X4158Y-2123D01*
X4215Y-2151D01*
X4243Y-2179D01*
X4271Y-2235D01*
X4271Y-2404D01*
X4243Y-2460D01*
X4215Y-2489D01*
X4158Y-2517D01*
X4046Y-2517D01*
X3990Y-2489D01*
X4749Y-2489D02*
X4693Y-2517D01*
X4580Y-2517D01*
X4524Y-2489D01*
X4496Y-2432D01*
X4496Y-2207D01*
X4524Y-2151D01*
X4580Y-2123D01*
X4693Y-2123D01*
X4749Y-2151D01*
X4777Y-2207D01*
X4777Y-2264D01*
X4496Y-2320D01*
X5115Y-2517D02*
X5058Y-2489D01*
X5030Y-2432D01*
X5030Y-1926D01*
X5340Y-2517D02*
X5340Y-2123D01*
X5340Y-2235D02*
X5368Y-2179D01*
X5396Y-2151D01*
X5452Y-2123D01*
X5508Y-2123D01*
X5958Y-2123D02*
X5958Y-2517D01*
X5705Y-2123D02*
X5705Y-2432D01*
X5733Y-2489D01*
X5790Y-2517D01*
X5874Y-2517D01*
X5930Y-2489D01*
X5958Y-2460D01*
X6239Y-2123D02*
X6239Y-2517D01*
X6239Y-2179D02*
X6268Y-2151D01*
X6324Y-2123D01*
X6408Y-2123D01*
X6464Y-2151D01*
X6493Y-2207D01*
X6493Y-2517D01*
X7139Y-2235D02*
X7111Y-2207D01*
X7055Y-2179D01*
X6999Y-2179D01*
X6943Y-2207D01*
X6914Y-2235D01*
X6886Y-2292D01*
X6886Y-2348D01*
X6914Y-2404D01*
X6943Y-2432D01*
X6999Y-2460D01*
X7055Y-2460D01*
X7111Y-2432D01*
X7139Y-2404D01*
X7139Y-2179D02*
X7139Y-2404D01*
X7167Y-2432D01*
X7196Y-2432D01*
X7252Y-2404D01*
X7280Y-2348D01*
X7280Y-2207D01*
X7224Y-2123D01*
X7139Y-2067D01*
X7027Y-2039D01*
X6914Y-2067D01*
X6830Y-2123D01*
X6774Y-2207D01*
X6746Y-2320D01*
X6774Y-2432D01*
X6830Y-2517D01*
X6914Y-2573D01*
X7027Y-2601D01*
X7139Y-2573D01*
X7224Y-2517D01*
X7786Y-2123D02*
X7786Y-2601D01*
X7758Y-2657D01*
X7730Y-2685D01*
X7674Y-2714D01*
X7589Y-2714D01*
X7533Y-2685D01*
X7786Y-2489D02*
X7730Y-2517D01*
X7617Y-2517D01*
X7561Y-2489D01*
X7533Y-2460D01*
X7505Y-2404D01*
X7505Y-2235D01*
X7533Y-2179D01*
X7561Y-2151D01*
X7617Y-2123D01*
X7730Y-2123D01*
X7786Y-2151D01*
X8067Y-2517D02*
X8067Y-2123D01*
X8067Y-2179D02*
X8096Y-2151D01*
X8152Y-2123D01*
X8236Y-2123D01*
X8292Y-2151D01*
X8320Y-2207D01*
X8320Y-2517D01*
X8320Y-2207D02*
X8349Y-2151D01*
X8405Y-2123D01*
X8489Y-2123D01*
X8545Y-2151D01*
X8574Y-2207D01*
X8574Y-2517D01*
X9108Y-2517D02*
X9108Y-2207D01*
X9080Y-2151D01*
X9024Y-2123D01*
X8911Y-2123D01*
X8855Y-2151D01*
X9108Y-2489D02*
X9052Y-2517D01*
X8911Y-2517D01*
X8855Y-2489D01*
X8827Y-2432D01*
X8827Y-2376D01*
X8855Y-2320D01*
X8911Y-2292D01*
X9052Y-2292D01*
X9108Y-2264D01*
X9389Y-2517D02*
X9389Y-2123D01*
X9389Y-1926D02*
X9361Y-1954D01*
X9389Y-1982D01*
X9417Y-1954D01*
X9389Y-1926D01*
X9389Y-1982D01*
X9755Y-2517D02*
X9698Y-2489D01*
X9670Y-2432D01*
X9670Y-1926D01*
X9980Y-2460D02*
X10008Y-2489D01*
X9980Y-2517D01*
X9952Y-2489D01*
X9980Y-2460D01*
X9980Y-2517D01*
X10514Y-2489D02*
X10458Y-2517D01*
X10345Y-2517D01*
X10289Y-2489D01*
X10261Y-2460D01*
X10233Y-2404D01*
X10233Y-2235D01*
X10261Y-2179D01*
X10289Y-2151D01*
X10345Y-2123D01*
X10458Y-2123D01*
X10514Y-2151D01*
X10851Y-2517D02*
X10795Y-2489D01*
X10767Y-2460D01*
X10739Y-2404D01*
X10739Y-2235D01*
X10767Y-2179D01*
X10795Y-2151D01*
X10851Y-2123D01*
X10936Y-2123D01*
X10992Y-2151D01*
X11020Y-2179D01*
X11048Y-2235D01*
X11048Y-2404D01*
X11020Y-2460D01*
X10992Y-2489D01*
X10936Y-2517D01*
X10851Y-2517D01*
X11301Y-2517D02*
X11301Y-2123D01*
X11301Y-2179D02*
X11329Y-2151D01*
X11386Y-2123D01*
X11470Y-2123D01*
X11526Y-2151D01*
X11554Y-2207D01*
X11554Y-2517D01*
X11554Y-2207D02*
X11583Y-2151D01*
X11639Y-2123D01*
X11723Y-2123D01*
X11779Y-2151D01*
X11808Y-2207D01*
X11808Y-2517D01*
X1290Y-1417D02*
X1290Y-826D01*
X1487Y-1248D01*
X1684Y-826D01*
X1684Y-1417D01*
X2190Y-1389D02*
X2134Y-1417D01*
X2021Y-1417D01*
X1965Y-1389D01*
X1937Y-1332D01*
X1937Y-1107D01*
X1965Y-1051D01*
X2021Y-1023D01*
X2134Y-1023D01*
X2190Y-1051D01*
X2218Y-1107D01*
X2218Y-1164D01*
X1937Y-1220D01*
X2724Y-1023D02*
X2724Y-1501D01*
X2696Y-1557D01*
X2668Y-1585D01*
X2612Y-1614D01*
X2527Y-1614D01*
X2471Y-1585D01*
X2724Y-1389D02*
X2668Y-1417D01*
X2556Y-1417D01*
X2499Y-1389D01*
X2471Y-1360D01*
X2443Y-1304D01*
X2443Y-1135D01*
X2471Y-1079D01*
X2499Y-1051D01*
X2556Y-1023D01*
X2668Y-1023D01*
X2724Y-1051D01*
X3259Y-1417D02*
X3259Y-1107D01*
X3230Y-1051D01*
X3174Y-1023D01*
X3062Y-1023D01*
X3006Y-1051D01*
X3259Y-1389D02*
X3202Y-1417D01*
X3062Y-1417D01*
X3006Y-1389D01*
X2977Y-1332D01*
X2977Y-1276D01*
X3006Y-1220D01*
X3062Y-1192D01*
X3202Y-1192D01*
X3259Y-1164D01*
X3455Y-1023D02*
X3680Y-1023D01*
X3540Y-1417D02*
X3540Y-910D01*
X3568Y-854D01*
X3624Y-826D01*
X3680Y-826D01*
X3962Y-1417D02*
X3905Y-1389D01*
X3877Y-1332D01*
X3877Y-826D01*
X4440Y-1417D02*
X4440Y-1107D01*
X4412Y-1051D01*
X4355Y-1023D01*
X4243Y-1023D01*
X4187Y-1051D01*
X4440Y-1389D02*
X4383Y-1417D01*
X4243Y-1417D01*
X4187Y-1389D01*
X4158Y-1332D01*
X4158Y-1276D01*
X4187Y-1220D01*
X4243Y-1192D01*
X4383Y-1192D01*
X4440Y-1164D01*
X4693Y-1389D02*
X4749Y-1417D01*
X4862Y-1417D01*
X4918Y-1389D01*
X4946Y-1332D01*
X4946Y-1304D01*
X4918Y-1248D01*
X4862Y-1220D01*
X4777Y-1220D01*
X4721Y-1192D01*
X4693Y-1135D01*
X4693Y-1107D01*
X4721Y-1051D01*
X4777Y-1023D01*
X4862Y-1023D01*
X4918Y-1051D01*
X5199Y-1417D02*
X5199Y-826D01*
X5452Y-1417D02*
X5452Y-1107D01*
X5424Y-1051D01*
X5368Y-1023D01*
X5283Y-1023D01*
X5227Y-1051D01*
X5199Y-1079D01*
X6521Y-1417D02*
X6324Y-1135D01*
X6183Y-1417D02*
X6183Y-826D01*
X6408Y-826D01*
X6464Y-854D01*
X6493Y-882D01*
X6521Y-939D01*
X6521Y-1023D01*
X6493Y-1079D01*
X6464Y-1107D01*
X6408Y-1135D01*
X6183Y-1135D01*
X6999Y-1389D02*
X6943Y-1417D01*
X6830Y-1417D01*
X6774Y-1389D01*
X6746Y-1332D01*
X6746Y-1107D01*
X6774Y-1051D01*
X6830Y-1023D01*
X6943Y-1023D01*
X6999Y-1051D01*
X7027Y-1107D01*
X7027Y-1164D01*
X6746Y-1220D01*
X7533Y-1417D02*
X7533Y-826D01*
X7533Y-1389D02*
X7477Y-1417D01*
X7364Y-1417D01*
X7308Y-1389D01*
X7280Y-1360D01*
X7252Y-1304D01*
X7252Y-1135D01*
X7280Y-1079D01*
X7308Y-1051D01*
X7364Y-1023D01*
X7477Y-1023D01*
X7533Y-1051D01*
X8067Y-1023D02*
X8067Y-1417D01*
X7814Y-1023D02*
X7814Y-1332D01*
X7842Y-1389D01*
X7899Y-1417D01*
X7983Y-1417D01*
X8039Y-1389D01*
X8067Y-1360D01*
X8292Y-1417D02*
X8602Y-1023D01*
X8292Y-1023D02*
X8602Y-1417D01*
X9220Y-1023D02*
X9361Y-1417D01*
X9502Y-1023D01*
X10036Y-1417D02*
X9698Y-1417D01*
X9867Y-1417D02*
X9867Y-826D01*
X9811Y-910D01*
X9755Y-967D01*
X9698Y-995D01*
X10542Y-1417D02*
X10542Y-1107D01*
X10514Y-1051D01*
X10458Y-1023D01*
X10345Y-1023D01*
X10289Y-1051D01*
X10542Y-1389D02*
X10486Y-1417D01*
X10345Y-1417D01*
X10289Y-1389D01*
X10261Y-1332D01*
X10261Y-1276D01*
X10289Y-1220D01*
X10345Y-1192D01*
X10486Y-1192D01*
X10542Y-1164D01*
G54D12*
X0Y-17100D02*
X0Y0D01*
X28600Y0D02*
X28600Y-17100D01*
G54D15*
X1700Y-11450D02*
X1700Y-12750D01*
X1700Y-12750D02*
X2700Y-12750D01*
X2700Y-12750D02*
X3000Y-12450D01*
X3000Y-12450D02*
X3000Y-11750D01*
X3000Y-11750D02*
X2700Y-11450D01*
X2700Y-11450D02*
X1700Y-11450D01*
X1800Y-11900D02*
X1800Y-12300D01*
X1850Y-11800D02*
X1850Y-12400D01*
X1900Y-11700D02*
X1900Y-12500D01*
X1950Y-11650D02*
X1950Y-12550D01*
X2950Y-12100D02*
G75*
G03X2950Y-12100I-600J0D01*
G74*
G01*
X2800Y-12100D02*
X2500Y-12100D01*
X2650Y-11950D02*
X2650Y-12250D01*
G54D16*
X28300Y-13250D02*
X300Y-13250D01*
X300Y-16850D02*
X28300Y-16850D01*
G54D17*
X28300Y-16850D02*
X28300Y-13250D01*
X300Y-16850D02*
X300Y-13250D01*
X13800Y-13250D02*
X13800Y-13750D01*
X13800Y-13750D02*
X14800Y-13750D01*
X14800Y-13750D02*
X14800Y-13250D01*
G54D15*
X5000Y-12400D02*
X4500Y-12400D01*
X5000Y-11900D02*
X4510Y-11900D01*
X5000Y-11750D02*
X5000Y-12550D01*
X5000Y-12550D02*
X4500Y-12550D01*
X4500Y-12550D02*
X4500Y-11750D01*
X4500Y-11750D02*
X5000Y-11750D01*
X20150Y-2900D02*
X19650Y-2900D01*
X20150Y-2400D02*
X19660Y-2400D01*
X20150Y-2250D02*
X20150Y-3050D01*
X20150Y-3050D02*
X19650Y-3050D01*
X19650Y-3050D02*
X19650Y-2250D01*
X19650Y-2250D02*
X20150Y-2250D01*
G54D18*
X17544Y-11233D02*
X22623Y-11233D01*
X22465Y-6667D02*
X17977Y-6667D01*
X24355Y-12533D02*
X16245Y-12533D01*
X16245Y-5367D02*
X23646Y-5367D01*
X17544Y-11233D02*
X17544Y-7100D01*
X23056Y-7257D02*
X23056Y-10800D01*
X23055Y-7257D02*
X22465Y-6667D01*
X16245Y-5367D02*
X16245Y-12533D01*
X24355Y-12533D02*
X24355Y-6076D01*
X24356Y-6076D02*
X23647Y-5367D01*
X17545Y-7099D02*
X16719Y-6273D01*
X16719Y-6273D02*
X17152Y-5840D01*
X17150Y-5840D02*
X17976Y-6666D01*
X22623Y-11234D02*
X23449Y-12060D01*
X23450Y-12060D02*
X23883Y-11627D01*
X23881Y-11627D02*
X23055Y-10801D01*
G54D15*
X25250Y-9350D02*
X24750Y-9350D01*
X25250Y-8850D02*
X24760Y-8850D01*
X25250Y-8700D02*
X25250Y-9500D01*
X25250Y-9500D02*
X24750Y-9500D01*
X24750Y-9500D02*
X24750Y-8700D01*
X24750Y-8700D02*
X25250Y-8700D01*
X4276Y-12465D02*
X3724Y-12465D01*
X3724Y-12426D02*
X4276Y-12426D01*
X4276Y-12386D02*
X3724Y-12386D01*
X4276Y-12347D02*
X3724Y-12347D01*
X4276Y-12504D02*
X4276Y-11796D01*
X4276Y-11796D02*
X3724Y-11796D01*
X3724Y-11796D02*
X3724Y-12504D01*
X3724Y-12504D02*
X4276Y-12504D01*
G54D16*
X22800Y-2550D02*
X22800Y-1550D01*
X21800Y-1550D02*
X24800Y-1550D01*
X24800Y-1550D02*
X24800Y-2550D01*
X24800Y-2550D02*
X21800Y-2550D01*
X21800Y-2550D02*
X21800Y-1550D01*
X22800Y-3850D02*
X22800Y-2850D01*
X21800Y-2850D02*
X24800Y-2850D01*
X24800Y-2850D02*
X24800Y-3850D01*
X24800Y-3850D02*
X21800Y-3850D01*
X21800Y-3850D02*
X21800Y-2850D01*
G54D18*
X7093Y-10874D02*
X7093Y-5283D01*
X13707Y-5126D02*
X13707Y-11307D01*
X13707Y-11307D02*
X7526Y-11307D01*
X7683Y-4693D02*
X13274Y-4693D01*
X7093Y-5283D02*
X7683Y-4693D01*
X6542Y-3433D02*
X14967Y-3433D01*
X14967Y-12567D02*
X5833Y-12567D01*
X5833Y-12567D02*
X5833Y-4142D01*
X5833Y-4142D02*
X6542Y-3433D01*
X14967Y-3433D02*
X14967Y-12567D01*
X7525Y-11306D02*
X6699Y-12132D01*
X6700Y-12132D02*
X6267Y-11699D01*
X6266Y-11701D02*
X7092Y-10875D01*
X13707Y-5126D02*
X14533Y-4300D01*
X14534Y-4298D02*
X14101Y-3865D01*
X14100Y-3868D02*
X13274Y-4694D01*
G54D15*
X2326Y-9465D02*
X1774Y-9465D01*
X1774Y-9426D02*
X2326Y-9426D01*
X2326Y-9386D02*
X1774Y-9386D01*
X2326Y-9347D02*
X1774Y-9347D01*
X2326Y-9504D02*
X2326Y-8796D01*
X2326Y-8796D02*
X1774Y-8796D01*
X1774Y-8796D02*
X1774Y-9504D01*
X1774Y-9504D02*
X2326Y-9504D01*
X3226Y-9465D02*
X2674Y-9465D01*
X2674Y-9426D02*
X3226Y-9426D01*
X3226Y-9386D02*
X2674Y-9386D01*
X3226Y-9347D02*
X2674Y-9347D01*
X3226Y-9504D02*
X3226Y-8796D01*
X3226Y-8796D02*
X2674Y-8796D01*
X2674Y-8796D02*
X2674Y-9504D01*
X2674Y-9504D02*
X3226Y-9504D01*
G54D16*
X1050Y-7950D02*
X1050Y-5950D01*
X1050Y-5950D02*
X3050Y-5950D01*
X3050Y-5950D02*
X3050Y-7950D01*
X2050Y-7950D02*
X2050Y-6950D01*
X2050Y-6950D02*
X3050Y-6950D01*
X1050Y-7950D02*
X3050Y-7950D01*
G54D15*
X1550Y-10200D02*
X1050Y-10200D01*
X1550Y-9700D02*
X1060Y-9700D01*
X1550Y-9550D02*
X1550Y-10350D01*
X1550Y-10350D02*
X1050Y-10350D01*
X1050Y-10350D02*
X1050Y-9550D01*
X1050Y-9550D02*
X1550Y-9550D01*
G54D17*
X19994Y-484D02*
G75*
G03X18884Y-406I-594J-516D01*
G74*
G01*
X18876Y-1591D02*
G75*
G03X19991Y-1524I524J591D01*
G74*
G01*
X19400Y-213D02*
G75*
G03X18613Y-1000I0J-787D01*
G74*
G01*
X18613Y-1000D02*
G75*
G03X19400Y-1787I787J0D01*
G74*
G01*
X19912Y-1591D02*
X19912Y-409D01*
X19991Y-1512D02*
X19991Y-488D01*
X19991Y-1000D02*
G75*
G03X19991Y-1000I-591J0D01*
G74*
G01*
G54D16*
X4150Y-9500D02*
X5150Y-9500D01*
X5150Y-10500D02*
X4150Y-10500D01*
X4150Y-10500D02*
X4150Y-4500D01*
X4150Y-4500D02*
X5150Y-4500D01*
X5150Y-4500D02*
X5150Y-10500D01*
G54D15*
X18650Y-2400D02*
X19150Y-2400D01*
X18650Y-2900D02*
X19140Y-2900D01*
X18650Y-3050D02*
X18650Y-2250D01*
X18650Y-2250D02*
X19150Y-2250D01*
X19150Y-2250D02*
X19150Y-3050D01*
X19150Y-3050D02*
X18650Y-3050D01*
X26975Y-7725D02*
X26975Y-8225D01*
X26475Y-7725D02*
X26475Y-8215D01*
X26325Y-7725D02*
X27125Y-7725D01*
X27125Y-7725D02*
X27125Y-8225D01*
X27125Y-8225D02*
X26325Y-8225D01*
X26325Y-8225D02*
X26325Y-7725D01*
X26425Y-6025D02*
X26425Y-5525D01*
X26925Y-6025D02*
X26925Y-5535D01*
X27075Y-6025D02*
X26275Y-6025D01*
X26275Y-6025D02*
X26275Y-5525D01*
X26275Y-5525D02*
X27075Y-5525D01*
X27075Y-5525D02*
X27075Y-6025D01*
X26390Y-7150D02*
X26135Y-6895D01*
X26330Y-7150D02*
X26135Y-6955D01*
X27100Y-6600D02*
X27100Y-6340D01*
X26350Y-6600D02*
X26350Y-6340D01*
X26725Y-7150D02*
X26725Y-7410D01*
X27100Y-7150D02*
X27100Y-7410D01*
X26350Y-7150D02*
X26350Y-7410D01*
X26135Y-6600D02*
X27315Y-6600D01*
X27315Y-6600D02*
X27315Y-7150D01*
X27315Y-7150D02*
X26135Y-7150D01*
X26135Y-7150D02*
X26135Y-6600D01*
%LPC*%
G54D19*
X2941Y-12100D03*
X1759Y-12100D03*
G54D20*
X26300Y-14452D03*
G54D21*
X26300Y-15648D03*
X25300Y-14453D03*
X25300Y-15648D03*
X24300Y-14453D03*
X24300Y-15648D03*
X23300Y-14453D03*
X23300Y-15648D03*
X22300Y-14453D03*
X22300Y-15648D03*
X21300Y-14453D03*
X21300Y-15648D03*
X20300Y-14453D03*
X20300Y-15648D03*
X19300Y-14453D03*
X19300Y-15648D03*
X18300Y-14453D03*
X18300Y-15648D03*
X17300Y-14453D03*
X17300Y-15648D03*
X16300Y-14453D03*
X16300Y-15648D03*
X15300Y-14453D03*
X15300Y-15648D03*
X14300Y-14453D03*
X14300Y-15648D03*
X13300Y-14453D03*
X13300Y-15648D03*
X12300Y-14453D03*
X12300Y-15648D03*
X11300Y-14453D03*
X11300Y-15648D03*
X10300Y-14453D03*
X10300Y-15648D03*
X9300Y-14453D03*
X9300Y-15648D03*
X8300Y-14453D03*
X8300Y-15648D03*
X7300Y-14453D03*
X7300Y-15648D03*
X6300Y-14453D03*
X6300Y-15648D03*
X5300Y-14453D03*
X5300Y-15648D03*
X4300Y-14453D03*
X4300Y-15648D03*
X3300Y-14453D03*
X3300Y-15648D03*
X2300Y-14453D03*
X2300Y-15648D03*
G54D22*
X4750Y-12525D03*
X4750Y-11775D03*
X19900Y-3025D03*
X19900Y-2275D03*
G54D23*
X23300Y-8450D03*
X22300Y-9450D03*
X22300Y-8450D03*
X23300Y-7450D03*
X22300Y-6450D03*
X22300Y-7450D03*
X21300Y-6450D03*
X21300Y-7450D03*
X20300Y-6450D03*
X20300Y-7450D03*
X19300Y-6450D03*
X19300Y-7450D03*
X18300Y-6450D03*
X17300Y-7450D03*
X18300Y-7450D03*
X17300Y-8450D03*
X18300Y-8450D03*
X17300Y-9450D03*
X18300Y-9450D03*
X17300Y-10450D03*
X18300Y-11450D03*
X18300Y-10450D03*
X19300Y-11450D03*
X19300Y-10450D03*
X20300Y-11450D03*
X20300Y-10450D03*
X21300Y-11450D03*
X23300Y-9450D03*
X21300Y-10450D03*
X22300Y-11450D03*
X23300Y-10450D03*
X22300Y-10450D03*
G54D22*
X25000Y-9475D03*
X25000Y-8725D03*
G54D24*
X4000Y-12583D03*
X4000Y-11717D03*
G54D25*
X22300Y-2050D03*
G54D26*
X23300Y-2050D03*
X24300Y-2050D03*
G54D25*
X22300Y-3350D03*
G54D26*
X23300Y-3350D03*
X24300Y-3350D03*
G54D23*
X9900Y-4500D03*
X10900Y-5500D03*
X9900Y-5500D03*
X8900Y-4500D03*
X8900Y-5500D03*
X7900Y-4500D03*
X6900Y-5500D03*
X7900Y-5500D03*
X6900Y-6500D03*
X7900Y-6500D03*
X6900Y-7500D03*
X7900Y-7500D03*
X6900Y-8500D03*
X7900Y-8500D03*
X6900Y-9500D03*
X7900Y-9500D03*
X6900Y-10500D03*
X7900Y-11500D03*
X7900Y-10500D03*
X8900Y-11500D03*
X8900Y-10500D03*
X9900Y-11500D03*
X9900Y-10500D03*
X10900Y-11500D03*
X10900Y-10500D03*
X11900Y-11500D03*
X11900Y-10500D03*
X12900Y-9500D03*
X12900Y-11500D03*
X13900Y-10500D03*
X12900Y-10500D03*
X13900Y-9500D03*
X13900Y-8500D03*
X12900Y-8500D03*
X13900Y-7500D03*
X12900Y-7500D03*
X13900Y-6500D03*
X12900Y-6500D03*
X13900Y-5500D03*
X12900Y-4500D03*
X12900Y-5500D03*
X11900Y-4500D03*
X11900Y-5500D03*
X10900Y-4500D03*
G54D24*
X2050Y-9583D03*
X2050Y-8717D03*
X2950Y-9583D03*
X2950Y-8717D03*
G54D27*
X2648Y-7450D03*
G54D28*
X1452Y-7450D03*
X2648Y-6450D03*
X1452Y-6450D03*
G54D22*
X1300Y-10325D03*
X1300Y-9575D03*
G54D29*
X18900Y-1000D03*
X19900Y-1000D03*
G54D30*
X4650Y-10000D03*
G54D31*
X4650Y-9000D03*
X4650Y-8000D03*
X4650Y-7000D03*
X4650Y-6000D03*
X4650Y-5000D03*
G54D32*
X15500Y-800D03*
X14712Y-800D03*
X16287Y-800D03*
G54D33*
X13610Y-800D03*
X17389Y-800D03*
G54D22*
X18900Y-2275D03*
X18900Y-3025D03*
G54D34*
X27100Y-7975D03*
X26350Y-7975D03*
X26300Y-5775D03*
X27050Y-5775D03*
G54D24*
X26350Y-7291D03*
X27100Y-7291D03*
X26725Y-7291D03*
X27100Y-6459D03*
X26350Y-6459D03*
M02*
