G04 (created by PCBNEW (2013-07-20 BZR 4243)-testing) date 23/04/2014 1:17:44 AM*
%MOIN*%
G04 Gerber Fmt 3.4, Leading zero omitted, Abs format*
%FSLAX34Y34*%
G01*
G70*
G90*
G04 APERTURE LIST*
%ADD10C,0.005906*%
%ADD11C,0.003937*%
%ADD12R,0.059000X0.051200*%
%ADD13R,0.051200X0.059000*%
%ADD14R,0.060000X0.078700*%
%ADD15O,0.060000X0.078700*%
%ADD16C,0.066900*%
%ADD17R,0.060000X0.086600*%
%ADD18O,0.060000X0.086600*%
%ADD19R,0.078700X0.060000*%
%ADD20O,0.078700X0.060000*%
%ADD21C,0.078700*%
%ADD22R,0.086600X0.060000*%
%ADD23O,0.086600X0.060000*%
%ADD24C,0.059055*%
%ADD25C,0.078740*%
%ADD26C,0.031496*%
%ADD27C,0.010000*%
G04 APERTURE END LIST*
G54D10*
G54D11*
X0Y0D02*
X28600Y0D01*
X28600Y-17100D02*
X0Y-17100D01*
X0Y-17100D02*
X0Y0D01*
X28600Y0D02*
X28600Y-17100D01*
G54D12*
X12000Y-6475D03*
X12000Y-7225D03*
G54D13*
X9025Y-9700D03*
X9775Y-9700D03*
G54D14*
X26300Y-14452D03*
G54D15*
X26300Y-15648D03*
X25300Y-14453D03*
X25300Y-15648D03*
X24300Y-14453D03*
X24300Y-15648D03*
X23300Y-14453D03*
X23300Y-15648D03*
X22300Y-14453D03*
X22300Y-15648D03*
X21300Y-14453D03*
X21300Y-15648D03*
X20300Y-14453D03*
X20300Y-15648D03*
X19300Y-14453D03*
X19300Y-15648D03*
X18300Y-14453D03*
X18300Y-15648D03*
X17300Y-14453D03*
X17300Y-15648D03*
X16300Y-14453D03*
X16300Y-15648D03*
X15300Y-14453D03*
X15300Y-15648D03*
X14300Y-14453D03*
X14300Y-15648D03*
X13300Y-14453D03*
X13300Y-15648D03*
X12300Y-14453D03*
X12300Y-15648D03*
X11300Y-14453D03*
X11300Y-15648D03*
X10300Y-14453D03*
X10300Y-15648D03*
X9300Y-14453D03*
X9300Y-15648D03*
X8300Y-14453D03*
X8300Y-15648D03*
X7300Y-14453D03*
X7300Y-15648D03*
X6300Y-14453D03*
X6300Y-15648D03*
X5300Y-14453D03*
X5300Y-15648D03*
X4300Y-14453D03*
X4300Y-15648D03*
X3300Y-14453D03*
X3300Y-15648D03*
X2300Y-14453D03*
X2300Y-15648D03*
G54D16*
X23300Y-8450D03*
X22300Y-9450D03*
X22300Y-8450D03*
X23300Y-7450D03*
X22300Y-6450D03*
X22300Y-7450D03*
X21300Y-6450D03*
X21300Y-7450D03*
X20300Y-6450D03*
X20300Y-7450D03*
X19300Y-6450D03*
X19300Y-7450D03*
X18300Y-6450D03*
X17300Y-7450D03*
X18300Y-7450D03*
X17300Y-8450D03*
X18300Y-8450D03*
X17300Y-9450D03*
X18300Y-9450D03*
X17300Y-10450D03*
X18300Y-11450D03*
X18300Y-10450D03*
X19300Y-11450D03*
X19300Y-10450D03*
X20300Y-11450D03*
X20300Y-10450D03*
X21300Y-11450D03*
X23300Y-9450D03*
X21300Y-10450D03*
X22300Y-11450D03*
X23300Y-10450D03*
X22300Y-10450D03*
G54D17*
X22300Y-2050D03*
G54D18*
X23300Y-2050D03*
X24300Y-2050D03*
G54D17*
X22300Y-3350D03*
G54D18*
X23300Y-3350D03*
X24300Y-3350D03*
G54D16*
X9900Y-4500D03*
X10900Y-5500D03*
X9900Y-5500D03*
X8900Y-4500D03*
X8900Y-5500D03*
X7900Y-4500D03*
X6900Y-5500D03*
X7900Y-5500D03*
X6900Y-6500D03*
X7900Y-6500D03*
X6900Y-7500D03*
X7900Y-7500D03*
X6900Y-8500D03*
X7900Y-8500D03*
X6900Y-9500D03*
X7900Y-9500D03*
X6900Y-10500D03*
X7900Y-11500D03*
X7900Y-10500D03*
X8900Y-11500D03*
X8900Y-10500D03*
X9900Y-11500D03*
X9900Y-10500D03*
X10900Y-11500D03*
X10900Y-10500D03*
X11900Y-11500D03*
X11900Y-10500D03*
X12900Y-9500D03*
X12900Y-11500D03*
X13900Y-10500D03*
X12900Y-10500D03*
X13900Y-9500D03*
X13900Y-8500D03*
X12900Y-8500D03*
X13900Y-7500D03*
X12900Y-7500D03*
X13900Y-6500D03*
X12900Y-6500D03*
X13900Y-5500D03*
X12900Y-4500D03*
X12900Y-5500D03*
X11900Y-4500D03*
X11900Y-5500D03*
X10900Y-4500D03*
G54D19*
X2598Y-7050D03*
G54D20*
X1402Y-7050D03*
X2598Y-6050D03*
X1402Y-6050D03*
G54D21*
X18900Y-1000D03*
X19900Y-1000D03*
G54D22*
X4650Y-10000D03*
G54D23*
X4650Y-9000D03*
X4650Y-8000D03*
X4650Y-7000D03*
X4650Y-6000D03*
X4650Y-5000D03*
G54D13*
X12075Y-9300D03*
X11325Y-9300D03*
G54D24*
X15500Y-800D03*
X14712Y-800D03*
X16287Y-800D03*
G54D25*
X13610Y-800D03*
X17389Y-800D03*
G54D26*
X8700Y-8500D03*
X18800Y-9750D03*
X8700Y-8000D03*
X21250Y-12450D03*
X23250Y-12450D03*
X17800Y-13750D03*
X17700Y-16250D03*
X19800Y-9750D03*
X19750Y-12100D03*
X20550Y-9900D03*
X24600Y-12900D03*
X24500Y-11850D03*
X23800Y-14900D03*
X23750Y-12300D03*
X22250Y-12450D03*
X2050Y-8100D03*
X7800Y-15050D03*
X8700Y-9050D03*
X7300Y-12600D03*
X9450Y-12450D03*
X18400Y-12900D03*
X15000Y-11250D03*
X15050Y-8450D03*
X3800Y-15050D03*
X5800Y-14000D03*
X24350Y-9450D03*
G54D27*
X7900Y-9500D02*
X7600Y-9500D01*
X5850Y-7000D02*
X4650Y-7000D01*
X6000Y-7150D02*
X5850Y-7000D01*
X6000Y-7950D02*
X6000Y-7150D01*
X6400Y-8350D02*
X6000Y-7950D01*
X6400Y-9700D02*
X6400Y-8350D01*
X6700Y-10000D02*
X6400Y-9700D01*
X7100Y-10000D02*
X6700Y-10000D01*
X7600Y-9500D02*
X7100Y-10000D01*
X7900Y-9500D02*
X7900Y-9200D01*
X8600Y-8500D02*
X8700Y-8500D01*
X7900Y-9200D02*
X8600Y-8500D01*
X18800Y-14700D02*
X18800Y-9750D01*
X18300Y-15200D02*
X18800Y-14700D01*
X18300Y-15550D02*
X18300Y-15200D01*
X7700Y-8000D02*
X6700Y-8000D01*
X6050Y-6000D02*
X4650Y-6000D01*
X6400Y-6350D02*
X6050Y-6000D01*
X6400Y-7700D02*
X6400Y-6350D01*
X6700Y-8000D02*
X6400Y-7700D01*
X6900Y-9500D02*
X6900Y-9200D01*
X7700Y-8000D02*
X8700Y-8000D01*
X7400Y-8300D02*
X7700Y-8000D01*
X7400Y-8700D02*
X7400Y-8300D01*
X6900Y-9200D02*
X7400Y-8700D01*
X22800Y-15050D02*
X22150Y-15050D01*
X23300Y-15550D02*
X22800Y-15050D01*
X21800Y-13000D02*
X21250Y-12450D01*
X21800Y-14700D02*
X21800Y-13000D01*
X22150Y-15050D02*
X21800Y-14700D01*
X23300Y-14550D02*
X23300Y-12500D01*
X23300Y-12500D02*
X23250Y-12450D01*
X21300Y-10450D02*
X21300Y-10200D01*
X21300Y-10200D02*
X20500Y-9400D01*
X18500Y-7950D02*
X19950Y-9400D01*
X18500Y-7950D02*
X14450Y-7950D01*
X14450Y-7950D02*
X13900Y-8500D01*
X19950Y-9400D02*
X20500Y-9400D01*
X21300Y-10450D02*
X21300Y-10750D01*
X21300Y-10750D02*
X21800Y-11250D01*
X24300Y-14550D02*
X24300Y-12400D01*
X21800Y-11650D02*
X22100Y-11950D01*
X22100Y-11950D02*
X23850Y-11950D01*
X23850Y-11950D02*
X24300Y-12400D01*
X21800Y-11250D02*
X21800Y-11650D01*
X13900Y-7500D02*
X16550Y-7500D01*
X16550Y-7500D02*
X17100Y-6950D01*
X21800Y-10650D02*
X21800Y-10250D01*
X20750Y-9200D02*
X20350Y-9200D01*
X21800Y-10250D02*
X20750Y-9200D01*
X18800Y-7250D02*
X18800Y-7650D01*
X18800Y-7650D02*
X20350Y-9200D01*
X22300Y-11450D02*
X22300Y-11150D01*
X18500Y-6950D02*
X17100Y-6950D01*
X18800Y-7250D02*
X18500Y-6950D01*
X22300Y-11150D02*
X21800Y-10650D01*
X13400Y-10700D02*
X14300Y-11600D01*
X14300Y-11600D02*
X15650Y-11600D01*
X12475Y-9775D02*
X10825Y-9775D01*
X10450Y-9400D02*
X10450Y-7450D01*
X10825Y-9775D02*
X10450Y-9400D01*
X9400Y-5300D02*
X9400Y-6400D01*
X9400Y-6400D02*
X10450Y-7450D01*
X11900Y-5500D02*
X11400Y-5000D01*
X9700Y-5000D02*
X9400Y-5300D01*
X11400Y-5000D02*
X9700Y-5000D01*
X13400Y-10700D02*
X13400Y-10300D01*
X12700Y-10000D02*
X12475Y-9775D01*
X13100Y-10000D02*
X12700Y-10000D01*
X13400Y-10300D02*
X13100Y-10000D01*
X25300Y-15550D02*
X25300Y-15700D01*
X17800Y-13750D02*
X15650Y-11600D01*
X17850Y-16400D02*
X17700Y-16250D01*
X24600Y-16400D02*
X17850Y-16400D01*
X25300Y-15700D02*
X24600Y-16400D01*
X13900Y-5500D02*
X17650Y-5500D01*
X17650Y-5500D02*
X17800Y-5350D01*
X22300Y-8450D02*
X22300Y-8250D01*
X21900Y-5350D02*
X17800Y-5350D01*
X22800Y-6250D02*
X21900Y-5350D01*
X22800Y-7750D02*
X22800Y-6250D01*
X22300Y-8250D02*
X22800Y-7750D01*
X17800Y-14200D02*
X15400Y-11800D01*
X25300Y-14550D02*
X24800Y-15050D01*
X24800Y-15900D02*
X24800Y-15050D01*
X24500Y-16200D02*
X24800Y-15900D01*
X18100Y-16200D02*
X24500Y-16200D01*
X17800Y-15900D02*
X18100Y-16200D01*
X17800Y-15900D02*
X17800Y-14200D01*
X13200Y-11800D02*
X12900Y-11500D01*
X15400Y-11800D02*
X13200Y-11800D01*
X12900Y-4500D02*
X13600Y-4500D01*
X14250Y-5150D02*
X22000Y-5150D01*
X13600Y-4500D02*
X14250Y-5150D01*
X23300Y-8450D02*
X23800Y-7950D01*
X23800Y-6950D02*
X22000Y-5150D01*
X23800Y-7950D02*
X23800Y-6950D01*
X13900Y-6500D02*
X17250Y-6500D01*
X17250Y-6500D02*
X18000Y-5750D01*
X20800Y-8650D02*
X20800Y-6250D01*
X20300Y-5750D02*
X18000Y-5750D01*
X20800Y-6250D02*
X20300Y-5750D01*
X23300Y-10450D02*
X22800Y-9950D01*
X22100Y-9950D02*
X20800Y-8650D01*
X22800Y-9950D02*
X22100Y-9950D01*
X13400Y-6000D02*
X17450Y-6000D01*
X17450Y-6000D02*
X17900Y-5550D01*
X22300Y-9450D02*
X21800Y-8950D01*
X21100Y-5550D02*
X17900Y-5550D01*
X21800Y-6250D02*
X21100Y-5550D01*
X21800Y-8950D02*
X21800Y-6250D01*
X13400Y-6000D02*
X12900Y-6500D01*
X19800Y-14750D02*
X19800Y-12500D01*
X19300Y-15250D02*
X19800Y-14750D01*
X19300Y-15550D02*
X19300Y-15250D01*
X19800Y-12500D02*
X20050Y-12250D01*
X19800Y-11700D02*
X20050Y-11950D01*
X19800Y-9750D02*
X19800Y-11700D01*
X20050Y-11950D02*
X20050Y-12250D01*
X19300Y-14550D02*
X19300Y-12550D01*
X19300Y-12550D02*
X19750Y-12100D01*
X20550Y-9900D02*
X20800Y-10150D01*
X20800Y-14700D02*
X20800Y-10150D01*
X20300Y-15200D02*
X20800Y-14700D01*
X20300Y-15550D02*
X20300Y-15200D01*
X24600Y-12900D02*
X24600Y-11950D01*
X24600Y-11950D02*
X24500Y-11850D01*
X23800Y-14900D02*
X23800Y-12350D01*
X23800Y-12350D02*
X23750Y-12300D01*
X22300Y-14550D02*
X22300Y-12500D01*
X22300Y-12500D02*
X22250Y-12450D01*
X2300Y-15550D02*
X550Y-13800D01*
X8400Y-5000D02*
X8900Y-5500D01*
X8400Y-4300D02*
X8400Y-5000D01*
X8100Y-4000D02*
X8400Y-4300D01*
X1950Y-4000D02*
X8100Y-4000D01*
X550Y-5400D02*
X1950Y-4000D01*
X550Y-13800D02*
X550Y-5400D01*
X8500Y-12100D02*
X7900Y-11500D01*
X8500Y-12950D02*
X8500Y-12100D01*
X9000Y-13450D02*
X8500Y-12950D01*
X13050Y-13450D02*
X13800Y-14200D01*
X9000Y-13450D02*
X13050Y-13450D01*
X14300Y-15550D02*
X13800Y-15050D01*
X13800Y-15050D02*
X13800Y-14200D01*
X8400Y-11000D02*
X8400Y-11700D01*
X8400Y-11700D02*
X8700Y-12000D01*
X8700Y-12850D02*
X9050Y-13200D01*
X8700Y-12000D02*
X8700Y-12850D01*
X13100Y-13200D02*
X9050Y-13200D01*
X7900Y-10500D02*
X8400Y-11000D01*
X13100Y-13200D02*
X14300Y-14400D01*
X14300Y-14550D02*
X14300Y-14400D01*
X8900Y-12750D02*
X8900Y-11500D01*
X9150Y-13000D02*
X8900Y-12750D01*
X13600Y-13000D02*
X14800Y-14200D01*
X9150Y-13000D02*
X13600Y-13000D01*
X15300Y-15550D02*
X14800Y-15050D01*
X14800Y-15050D02*
X14800Y-14200D01*
X9900Y-11500D02*
X11200Y-12800D01*
X15300Y-14000D02*
X15300Y-14550D01*
X14100Y-12800D02*
X15300Y-14000D01*
X11200Y-12800D02*
X14100Y-12800D01*
X10900Y-11500D02*
X12000Y-12600D01*
X14200Y-12600D02*
X15795Y-14195D01*
X12000Y-12600D02*
X14200Y-12600D01*
X15795Y-15045D02*
X15795Y-14195D01*
X16300Y-15550D02*
X15795Y-15045D01*
X10900Y-10500D02*
X11400Y-11000D01*
X14300Y-12400D02*
X16300Y-14400D01*
X12100Y-12400D02*
X14300Y-12400D01*
X11400Y-11700D02*
X12100Y-12400D01*
X11400Y-11000D02*
X11400Y-11700D01*
X16300Y-14550D02*
X16300Y-14400D01*
X11900Y-11500D02*
X12600Y-12200D01*
X14800Y-12200D02*
X16800Y-14200D01*
X12600Y-12200D02*
X14800Y-12200D01*
X17300Y-15550D02*
X16800Y-15050D01*
X16800Y-15050D02*
X16800Y-14200D01*
X11900Y-10500D02*
X12400Y-11000D01*
X14900Y-12000D02*
X17300Y-14400D01*
X12700Y-12000D02*
X14900Y-12000D01*
X12400Y-11700D02*
X12700Y-12000D01*
X12400Y-11000D02*
X12400Y-11700D01*
X17300Y-14550D02*
X17300Y-14400D01*
X17300Y-14400D02*
X17000Y-14100D01*
X18300Y-10450D02*
X17800Y-10950D01*
X14350Y-10950D02*
X13900Y-10500D01*
X17800Y-10950D02*
X14350Y-10950D01*
X2050Y-8100D02*
X2750Y-8100D01*
X2750Y-8100D02*
X4350Y-6500D01*
X6900Y-8500D02*
X6200Y-7800D01*
X5900Y-6500D02*
X4350Y-6500D01*
X6200Y-6800D02*
X5900Y-6500D01*
X6200Y-7800D02*
X6200Y-6800D01*
X11300Y-15550D02*
X10800Y-15050D01*
X10800Y-15050D02*
X7800Y-15050D01*
X7400Y-10250D02*
X7400Y-11700D01*
X7100Y-13900D02*
X6800Y-14200D01*
X8100Y-13900D02*
X7100Y-13900D01*
X8300Y-13700D02*
X8100Y-13900D01*
X8300Y-12200D02*
X8300Y-13700D01*
X8100Y-12000D02*
X8300Y-12200D01*
X7700Y-12000D02*
X8100Y-12000D01*
X7400Y-11700D02*
X7700Y-12000D01*
X12900Y-8500D02*
X13200Y-8500D01*
X13200Y-8500D02*
X13700Y-9000D01*
X8400Y-9700D02*
X8100Y-10000D01*
X8400Y-9350D02*
X8400Y-9700D01*
X8700Y-9050D02*
X8400Y-9350D01*
X6300Y-15550D02*
X6300Y-15400D01*
X6800Y-14900D02*
X6800Y-14200D01*
X6300Y-15400D02*
X6800Y-14900D01*
X7400Y-10250D02*
X7650Y-10000D01*
X7650Y-10000D02*
X8100Y-10000D01*
X19300Y-10450D02*
X19300Y-9650D01*
X14150Y-9000D02*
X13700Y-9000D01*
X14200Y-8950D02*
X14150Y-9000D01*
X18600Y-8950D02*
X14200Y-8950D01*
X19300Y-9650D02*
X18600Y-8950D01*
X13400Y-7000D02*
X16750Y-7000D01*
X16750Y-7000D02*
X17000Y-6750D01*
X17300Y-6750D02*
X18100Y-5950D01*
X17000Y-6750D02*
X17300Y-6750D01*
X19517Y-5950D02*
X18100Y-5950D01*
X19800Y-7950D02*
X19800Y-6232D01*
X22300Y-10450D02*
X19800Y-7950D01*
X19800Y-6232D02*
X19517Y-5950D01*
X13400Y-7000D02*
X12900Y-7500D01*
X4650Y-10650D02*
X6600Y-12600D01*
X6600Y-12600D02*
X7300Y-12600D01*
X4650Y-10000D02*
X4650Y-10650D01*
X9400Y-11000D02*
X9900Y-10500D01*
X9400Y-12400D02*
X9400Y-11000D01*
X9450Y-12450D02*
X9400Y-12400D01*
X4650Y-10000D02*
X2550Y-10000D01*
X7400Y-6000D02*
X7900Y-6500D01*
X6500Y-6000D02*
X7400Y-6000D01*
X6000Y-5500D02*
X6500Y-6000D01*
X3100Y-5500D02*
X6000Y-5500D01*
X2750Y-5150D02*
X3100Y-5500D01*
X1300Y-5150D02*
X2750Y-5150D01*
X800Y-5650D02*
X1300Y-5150D01*
X800Y-8250D02*
X800Y-5650D01*
X2550Y-10000D02*
X800Y-8250D01*
X18400Y-12900D02*
X16750Y-11250D01*
X16750Y-11250D02*
X15000Y-11250D01*
X13900Y-9500D02*
X13400Y-9000D01*
X12700Y-9000D02*
X12000Y-8300D01*
X12000Y-8300D02*
X12000Y-8050D01*
X13400Y-9000D02*
X12700Y-9000D01*
X11325Y-9300D02*
X11325Y-8725D01*
X11325Y-8725D02*
X12000Y-8050D01*
X12000Y-8050D02*
X12000Y-7225D01*
X22300Y-2050D02*
X22300Y-3350D01*
X9900Y-10500D02*
X9900Y-9825D01*
X9900Y-9825D02*
X9775Y-9700D01*
X15050Y-8450D02*
X17300Y-8450D01*
X6900Y-10500D02*
X6200Y-9800D01*
X5750Y-8000D02*
X4650Y-8000D01*
X6200Y-8450D02*
X5750Y-8000D01*
X6200Y-9800D02*
X6200Y-8450D01*
X12900Y-10500D02*
X12400Y-10000D01*
X10250Y-9500D02*
X10250Y-7550D01*
X10750Y-10000D02*
X10250Y-9500D01*
X12400Y-10000D02*
X10750Y-10000D01*
X8400Y-5700D02*
X10250Y-7550D01*
X8100Y-5000D02*
X8400Y-5300D01*
X8400Y-5300D02*
X8400Y-5700D01*
X4650Y-5000D02*
X8100Y-5000D01*
X12900Y-5500D02*
X12400Y-5000D01*
X12400Y-5000D02*
X12400Y-4300D01*
X16287Y-2812D02*
X16287Y-800D01*
X15100Y-4000D02*
X16287Y-2812D01*
X12700Y-4000D02*
X15100Y-4000D01*
X12400Y-4300D02*
X12700Y-4000D01*
X3800Y-15050D02*
X3800Y-15900D01*
X3800Y-15900D02*
X4100Y-16200D01*
X12900Y-9500D02*
X12275Y-9500D01*
X12275Y-9500D02*
X12075Y-9300D01*
X5800Y-16200D02*
X5800Y-14000D01*
X5800Y-16200D02*
X4100Y-16200D01*
X12900Y-5500D02*
X12000Y-6400D01*
X12000Y-6400D02*
X12000Y-6475D01*
X8900Y-10500D02*
X8900Y-9825D01*
X8900Y-9825D02*
X9025Y-9700D01*
X5800Y-16200D02*
X12500Y-16200D01*
X23300Y-9450D02*
X24350Y-9450D01*
X13300Y-14550D02*
X13300Y-14900D01*
X12800Y-15900D02*
X12500Y-16200D01*
X12800Y-15400D02*
X12800Y-15900D01*
X13300Y-14900D02*
X12800Y-15400D01*
G54D10*
G36*
X10050Y-9155D02*
X9887Y-9155D01*
X9825Y-9217D01*
X9825Y-9650D01*
X9832Y-9650D01*
X9832Y-9750D01*
X9825Y-9750D01*
X9825Y-9757D01*
X9725Y-9757D01*
X9725Y-9750D01*
X9717Y-9750D01*
X9717Y-9650D01*
X9725Y-9650D01*
X9725Y-9217D01*
X9662Y-9155D01*
X9469Y-9155D01*
X9377Y-9193D01*
X9314Y-9256D01*
X9310Y-9255D01*
X9251Y-9255D01*
X8929Y-9255D01*
X8960Y-9224D01*
X9007Y-9111D01*
X9007Y-8989D01*
X8960Y-8876D01*
X8874Y-8789D01*
X8839Y-8775D01*
X8873Y-8760D01*
X8960Y-8674D01*
X9007Y-8561D01*
X9007Y-8439D01*
X8960Y-8326D01*
X8884Y-8249D01*
X8960Y-8174D01*
X9007Y-8061D01*
X9007Y-7939D01*
X8960Y-7826D01*
X8874Y-7739D01*
X8761Y-7692D01*
X8639Y-7692D01*
X8526Y-7739D01*
X8489Y-7776D01*
X8489Y-6590D01*
X8478Y-6357D01*
X8409Y-6191D01*
X8310Y-6159D01*
X7970Y-6500D01*
X8310Y-6840D01*
X8409Y-6808D01*
X8489Y-6590D01*
X8489Y-7776D01*
X8465Y-7800D01*
X8285Y-7800D01*
X8310Y-7774D01*
X8384Y-7596D01*
X8384Y-7404D01*
X8310Y-7225D01*
X8174Y-7089D01*
X8095Y-7056D01*
X8208Y-7009D01*
X8240Y-6910D01*
X7900Y-6570D01*
X7559Y-6910D01*
X7591Y-7009D01*
X7711Y-7053D01*
X7625Y-7089D01*
X7489Y-7225D01*
X7415Y-7403D01*
X7415Y-7595D01*
X7489Y-7774D01*
X7514Y-7800D01*
X7285Y-7800D01*
X7310Y-7774D01*
X7384Y-7596D01*
X7384Y-7404D01*
X7310Y-7225D01*
X7174Y-7089D01*
X6996Y-7015D01*
X6804Y-7015D01*
X6625Y-7089D01*
X6600Y-7114D01*
X6600Y-6885D01*
X6625Y-6910D01*
X6803Y-6984D01*
X6995Y-6984D01*
X7174Y-6910D01*
X7310Y-6774D01*
X7343Y-6695D01*
X7390Y-6808D01*
X7489Y-6840D01*
X7829Y-6500D01*
X7489Y-6159D01*
X7390Y-6191D01*
X7346Y-6311D01*
X7310Y-6225D01*
X7174Y-6089D01*
X6996Y-6015D01*
X6804Y-6015D01*
X6625Y-6089D01*
X6523Y-6190D01*
X6191Y-5858D01*
X6126Y-5815D01*
X6050Y-5800D01*
X5191Y-5800D01*
X5112Y-5681D01*
X4966Y-5584D01*
X4794Y-5550D01*
X4505Y-5550D01*
X4333Y-5584D01*
X4187Y-5681D01*
X4089Y-5827D01*
X4055Y-6000D01*
X4089Y-6172D01*
X4187Y-6318D01*
X4228Y-6345D01*
X4208Y-6358D01*
X3152Y-7415D01*
X3152Y-6050D01*
X3117Y-5877D01*
X3020Y-5731D01*
X2874Y-5634D01*
X2702Y-5600D01*
X2493Y-5600D01*
X2321Y-5634D01*
X2175Y-5731D01*
X2078Y-5877D01*
X2043Y-6050D01*
X2078Y-6222D01*
X2175Y-6368D01*
X2321Y-6465D01*
X2493Y-6500D01*
X2702Y-6500D01*
X2874Y-6465D01*
X3020Y-6368D01*
X3117Y-6222D01*
X3152Y-6050D01*
X3152Y-7415D01*
X3141Y-7425D01*
X3141Y-7379D01*
X3141Y-7320D01*
X3141Y-6720D01*
X3118Y-6665D01*
X3076Y-6622D01*
X3021Y-6600D01*
X2961Y-6600D01*
X2174Y-6600D01*
X2119Y-6622D01*
X2077Y-6665D01*
X2054Y-6720D01*
X2054Y-6779D01*
X2054Y-7379D01*
X2077Y-7434D01*
X2119Y-7477D01*
X2174Y-7500D01*
X2234Y-7500D01*
X3021Y-7500D01*
X3076Y-7477D01*
X3118Y-7434D01*
X3141Y-7379D01*
X3141Y-7425D01*
X2667Y-7900D01*
X2284Y-7900D01*
X2224Y-7839D01*
X2111Y-7792D01*
X1989Y-7792D01*
X1956Y-7806D01*
X1956Y-7050D01*
X1956Y-6050D01*
X1921Y-5877D01*
X1824Y-5731D01*
X1678Y-5634D01*
X1506Y-5600D01*
X1297Y-5600D01*
X1125Y-5634D01*
X979Y-5731D01*
X882Y-5877D01*
X847Y-6050D01*
X882Y-6222D01*
X979Y-6368D01*
X1125Y-6465D01*
X1297Y-6500D01*
X1506Y-6500D01*
X1678Y-6465D01*
X1824Y-6368D01*
X1921Y-6222D01*
X1956Y-6050D01*
X1956Y-7050D01*
X1921Y-6877D01*
X1824Y-6731D01*
X1678Y-6634D01*
X1506Y-6600D01*
X1297Y-6600D01*
X1125Y-6634D01*
X979Y-6731D01*
X882Y-6877D01*
X847Y-7050D01*
X882Y-7222D01*
X979Y-7368D01*
X1125Y-7465D01*
X1297Y-7500D01*
X1506Y-7500D01*
X1678Y-7465D01*
X1824Y-7368D01*
X1921Y-7222D01*
X1956Y-7050D01*
X1956Y-7806D01*
X1876Y-7839D01*
X1789Y-7925D01*
X1742Y-8038D01*
X1742Y-8160D01*
X1789Y-8273D01*
X1875Y-8360D01*
X1988Y-8407D01*
X2110Y-8407D01*
X2223Y-8360D01*
X2284Y-8300D01*
X2750Y-8300D01*
X2826Y-8284D01*
X2891Y-8241D01*
X4068Y-7064D01*
X4089Y-7172D01*
X4187Y-7318D01*
X4333Y-7415D01*
X4505Y-7450D01*
X4794Y-7450D01*
X4966Y-7415D01*
X5112Y-7318D01*
X5191Y-7200D01*
X5767Y-7200D01*
X5800Y-7232D01*
X5800Y-7809D01*
X5750Y-7800D01*
X5191Y-7800D01*
X5112Y-7681D01*
X4966Y-7584D01*
X4794Y-7550D01*
X4505Y-7550D01*
X4333Y-7584D01*
X4187Y-7681D01*
X4089Y-7827D01*
X4055Y-8000D01*
X4089Y-8172D01*
X4187Y-8318D01*
X4333Y-8415D01*
X4505Y-8450D01*
X4794Y-8450D01*
X4966Y-8415D01*
X5112Y-8318D01*
X5191Y-8200D01*
X5667Y-8200D01*
X6000Y-8532D01*
X6000Y-9800D01*
X6015Y-9876D01*
X6058Y-9941D01*
X6446Y-10329D01*
X6415Y-10403D01*
X6415Y-10595D01*
X6489Y-10774D01*
X6625Y-10910D01*
X6803Y-10984D01*
X6995Y-10984D01*
X7174Y-10910D01*
X7200Y-10885D01*
X7200Y-11700D01*
X7215Y-11776D01*
X7258Y-11841D01*
X7558Y-12141D01*
X7623Y-12184D01*
X7700Y-12200D01*
X8017Y-12200D01*
X8100Y-12282D01*
X8100Y-13617D01*
X8017Y-13700D01*
X7100Y-13700D01*
X7023Y-13715D01*
X6958Y-13758D01*
X6658Y-14058D01*
X6647Y-14074D01*
X6618Y-14030D01*
X6472Y-13933D01*
X6300Y-13898D01*
X6127Y-13933D01*
X6107Y-13946D01*
X6107Y-13939D01*
X6060Y-13826D01*
X5974Y-13739D01*
X5861Y-13692D01*
X5739Y-13692D01*
X5626Y-13739D01*
X5539Y-13825D01*
X5492Y-13938D01*
X5492Y-13946D01*
X5472Y-13933D01*
X5333Y-13905D01*
X5333Y-10349D01*
X5333Y-10112D01*
X5333Y-9887D01*
X5333Y-9650D01*
X5294Y-9558D01*
X5224Y-9488D01*
X5132Y-9450D01*
X5033Y-9450D01*
X4794Y-9450D01*
X4966Y-9415D01*
X5112Y-9318D01*
X5210Y-9172D01*
X5244Y-9000D01*
X5210Y-8827D01*
X5112Y-8681D01*
X4966Y-8584D01*
X4794Y-8550D01*
X4505Y-8550D01*
X4333Y-8584D01*
X4187Y-8681D01*
X4089Y-8827D01*
X4055Y-9000D01*
X4089Y-9172D01*
X4187Y-9318D01*
X4333Y-9415D01*
X4505Y-9450D01*
X4266Y-9450D01*
X4167Y-9450D01*
X4075Y-9488D01*
X4005Y-9558D01*
X3967Y-9650D01*
X3967Y-9887D01*
X4029Y-9950D01*
X4600Y-9950D01*
X4600Y-9512D01*
X4537Y-9450D01*
X4762Y-9450D01*
X4700Y-9512D01*
X4700Y-9950D01*
X5270Y-9950D01*
X5333Y-9887D01*
X5333Y-10112D01*
X5270Y-10050D01*
X4700Y-10050D01*
X4700Y-10487D01*
X4762Y-10550D01*
X5033Y-10550D01*
X5132Y-10550D01*
X5224Y-10511D01*
X5294Y-10441D01*
X5333Y-10349D01*
X5333Y-13905D01*
X5300Y-13898D01*
X5127Y-13933D01*
X4981Y-14030D01*
X4884Y-14176D01*
X4850Y-14348D01*
X4850Y-14557D01*
X4884Y-14729D01*
X4981Y-14875D01*
X5127Y-14972D01*
X5300Y-15007D01*
X5472Y-14972D01*
X5600Y-14887D01*
X5600Y-15213D01*
X5472Y-15128D01*
X5300Y-15093D01*
X5127Y-15128D01*
X4981Y-15225D01*
X4884Y-15371D01*
X4850Y-15543D01*
X4850Y-15752D01*
X4884Y-15924D01*
X4934Y-16000D01*
X4665Y-16000D01*
X4715Y-15924D01*
X4750Y-15752D01*
X4750Y-15543D01*
X4715Y-15371D01*
X4618Y-15225D01*
X4472Y-15128D01*
X4300Y-15093D01*
X4127Y-15128D01*
X4090Y-15153D01*
X4107Y-15111D01*
X4107Y-14989D01*
X4090Y-14948D01*
X4127Y-14972D01*
X4300Y-15007D01*
X4472Y-14972D01*
X4618Y-14875D01*
X4715Y-14729D01*
X4750Y-14557D01*
X4750Y-14348D01*
X4715Y-14176D01*
X4618Y-14030D01*
X4600Y-14018D01*
X4600Y-10487D01*
X4600Y-10050D01*
X4029Y-10050D01*
X3967Y-10112D01*
X3967Y-10349D01*
X4005Y-10441D01*
X4075Y-10511D01*
X4167Y-10550D01*
X4266Y-10550D01*
X4537Y-10550D01*
X4600Y-10487D01*
X4600Y-14018D01*
X4472Y-13933D01*
X4300Y-13898D01*
X4127Y-13933D01*
X3981Y-14030D01*
X3884Y-14176D01*
X3850Y-14348D01*
X3850Y-14557D01*
X3884Y-14729D01*
X3905Y-14760D01*
X3861Y-14742D01*
X3739Y-14742D01*
X3694Y-14760D01*
X3715Y-14729D01*
X3750Y-14557D01*
X3750Y-14348D01*
X3715Y-14176D01*
X3618Y-14030D01*
X3472Y-13933D01*
X3300Y-13898D01*
X3127Y-13933D01*
X2981Y-14030D01*
X2884Y-14176D01*
X2851Y-14338D01*
X2850Y-14348D01*
X2850Y-14402D01*
X2789Y-14402D01*
X2851Y-14316D01*
X2793Y-14108D01*
X2659Y-13938D01*
X2471Y-13832D01*
X2435Y-13826D01*
X2350Y-13874D01*
X2350Y-14403D01*
X2357Y-14403D01*
X2357Y-14503D01*
X2350Y-14503D01*
X2350Y-14510D01*
X2250Y-14510D01*
X2250Y-14503D01*
X2250Y-14403D01*
X2250Y-13874D01*
X2164Y-13826D01*
X2128Y-13832D01*
X1940Y-13938D01*
X1806Y-14108D01*
X1748Y-14316D01*
X1810Y-14403D01*
X2250Y-14403D01*
X2250Y-14503D01*
X1810Y-14503D01*
X1748Y-14589D01*
X1797Y-14764D01*
X750Y-13717D01*
X750Y-5482D01*
X2032Y-4200D01*
X7514Y-4200D01*
X7489Y-4225D01*
X7415Y-4403D01*
X7415Y-4595D01*
X7489Y-4774D01*
X7514Y-4800D01*
X5191Y-4800D01*
X5112Y-4681D01*
X4966Y-4584D01*
X4794Y-4550D01*
X4505Y-4550D01*
X4333Y-4584D01*
X4187Y-4681D01*
X4089Y-4827D01*
X4055Y-5000D01*
X4089Y-5172D01*
X4187Y-5318D01*
X4333Y-5415D01*
X4505Y-5450D01*
X4794Y-5450D01*
X4966Y-5415D01*
X5112Y-5318D01*
X5191Y-5200D01*
X6514Y-5200D01*
X6489Y-5225D01*
X6415Y-5403D01*
X6415Y-5595D01*
X6489Y-5774D01*
X6625Y-5910D01*
X6803Y-5984D01*
X6995Y-5984D01*
X7174Y-5910D01*
X7310Y-5774D01*
X7384Y-5596D01*
X7384Y-5404D01*
X7310Y-5225D01*
X7285Y-5200D01*
X7514Y-5200D01*
X7489Y-5225D01*
X7415Y-5403D01*
X7415Y-5595D01*
X7489Y-5774D01*
X7625Y-5910D01*
X7704Y-5943D01*
X7591Y-5990D01*
X7559Y-6089D01*
X7900Y-6429D01*
X8240Y-6089D01*
X8208Y-5990D01*
X8088Y-5946D01*
X8174Y-5910D01*
X8252Y-5832D01*
X8258Y-5841D01*
X10050Y-7632D01*
X10050Y-9155D01*
X10050Y-9155D01*
G37*
G54D27*
X10050Y-9155D02*
X9887Y-9155D01*
X9825Y-9217D01*
X9825Y-9650D01*
X9832Y-9650D01*
X9832Y-9750D01*
X9825Y-9750D01*
X9825Y-9757D01*
X9725Y-9757D01*
X9725Y-9750D01*
X9717Y-9750D01*
X9717Y-9650D01*
X9725Y-9650D01*
X9725Y-9217D01*
X9662Y-9155D01*
X9469Y-9155D01*
X9377Y-9193D01*
X9314Y-9256D01*
X9310Y-9255D01*
X9251Y-9255D01*
X8929Y-9255D01*
X8960Y-9224D01*
X9007Y-9111D01*
X9007Y-8989D01*
X8960Y-8876D01*
X8874Y-8789D01*
X8839Y-8775D01*
X8873Y-8760D01*
X8960Y-8674D01*
X9007Y-8561D01*
X9007Y-8439D01*
X8960Y-8326D01*
X8884Y-8249D01*
X8960Y-8174D01*
X9007Y-8061D01*
X9007Y-7939D01*
X8960Y-7826D01*
X8874Y-7739D01*
X8761Y-7692D01*
X8639Y-7692D01*
X8526Y-7739D01*
X8489Y-7776D01*
X8489Y-6590D01*
X8478Y-6357D01*
X8409Y-6191D01*
X8310Y-6159D01*
X7970Y-6500D01*
X8310Y-6840D01*
X8409Y-6808D01*
X8489Y-6590D01*
X8489Y-7776D01*
X8465Y-7800D01*
X8285Y-7800D01*
X8310Y-7774D01*
X8384Y-7596D01*
X8384Y-7404D01*
X8310Y-7225D01*
X8174Y-7089D01*
X8095Y-7056D01*
X8208Y-7009D01*
X8240Y-6910D01*
X7900Y-6570D01*
X7559Y-6910D01*
X7591Y-7009D01*
X7711Y-7053D01*
X7625Y-7089D01*
X7489Y-7225D01*
X7415Y-7403D01*
X7415Y-7595D01*
X7489Y-7774D01*
X7514Y-7800D01*
X7285Y-7800D01*
X7310Y-7774D01*
X7384Y-7596D01*
X7384Y-7404D01*
X7310Y-7225D01*
X7174Y-7089D01*
X6996Y-7015D01*
X6804Y-7015D01*
X6625Y-7089D01*
X6600Y-7114D01*
X6600Y-6885D01*
X6625Y-6910D01*
X6803Y-6984D01*
X6995Y-6984D01*
X7174Y-6910D01*
X7310Y-6774D01*
X7343Y-6695D01*
X7390Y-6808D01*
X7489Y-6840D01*
X7829Y-6500D01*
X7489Y-6159D01*
X7390Y-6191D01*
X7346Y-6311D01*
X7310Y-6225D01*
X7174Y-6089D01*
X6996Y-6015D01*
X6804Y-6015D01*
X6625Y-6089D01*
X6523Y-6190D01*
X6191Y-5858D01*
X6126Y-5815D01*
X6050Y-5800D01*
X5191Y-5800D01*
X5112Y-5681D01*
X4966Y-5584D01*
X4794Y-5550D01*
X4505Y-5550D01*
X4333Y-5584D01*
X4187Y-5681D01*
X4089Y-5827D01*
X4055Y-6000D01*
X4089Y-6172D01*
X4187Y-6318D01*
X4228Y-6345D01*
X4208Y-6358D01*
X3152Y-7415D01*
X3152Y-6050D01*
X3117Y-5877D01*
X3020Y-5731D01*
X2874Y-5634D01*
X2702Y-5600D01*
X2493Y-5600D01*
X2321Y-5634D01*
X2175Y-5731D01*
X2078Y-5877D01*
X2043Y-6050D01*
X2078Y-6222D01*
X2175Y-6368D01*
X2321Y-6465D01*
X2493Y-6500D01*
X2702Y-6500D01*
X2874Y-6465D01*
X3020Y-6368D01*
X3117Y-6222D01*
X3152Y-6050D01*
X3152Y-7415D01*
X3141Y-7425D01*
X3141Y-7379D01*
X3141Y-7320D01*
X3141Y-6720D01*
X3118Y-6665D01*
X3076Y-6622D01*
X3021Y-6600D01*
X2961Y-6600D01*
X2174Y-6600D01*
X2119Y-6622D01*
X2077Y-6665D01*
X2054Y-6720D01*
X2054Y-6779D01*
X2054Y-7379D01*
X2077Y-7434D01*
X2119Y-7477D01*
X2174Y-7500D01*
X2234Y-7500D01*
X3021Y-7500D01*
X3076Y-7477D01*
X3118Y-7434D01*
X3141Y-7379D01*
X3141Y-7425D01*
X2667Y-7900D01*
X2284Y-7900D01*
X2224Y-7839D01*
X2111Y-7792D01*
X1989Y-7792D01*
X1956Y-7806D01*
X1956Y-7050D01*
X1956Y-6050D01*
X1921Y-5877D01*
X1824Y-5731D01*
X1678Y-5634D01*
X1506Y-5600D01*
X1297Y-5600D01*
X1125Y-5634D01*
X979Y-5731D01*
X882Y-5877D01*
X847Y-6050D01*
X882Y-6222D01*
X979Y-6368D01*
X1125Y-6465D01*
X1297Y-6500D01*
X1506Y-6500D01*
X1678Y-6465D01*
X1824Y-6368D01*
X1921Y-6222D01*
X1956Y-6050D01*
X1956Y-7050D01*
X1921Y-6877D01*
X1824Y-6731D01*
X1678Y-6634D01*
X1506Y-6600D01*
X1297Y-6600D01*
X1125Y-6634D01*
X979Y-6731D01*
X882Y-6877D01*
X847Y-7050D01*
X882Y-7222D01*
X979Y-7368D01*
X1125Y-7465D01*
X1297Y-7500D01*
X1506Y-7500D01*
X1678Y-7465D01*
X1824Y-7368D01*
X1921Y-7222D01*
X1956Y-7050D01*
X1956Y-7806D01*
X1876Y-7839D01*
X1789Y-7925D01*
X1742Y-8038D01*
X1742Y-8160D01*
X1789Y-8273D01*
X1875Y-8360D01*
X1988Y-8407D01*
X2110Y-8407D01*
X2223Y-8360D01*
X2284Y-8300D01*
X2750Y-8300D01*
X2826Y-8284D01*
X2891Y-8241D01*
X4068Y-7064D01*
X4089Y-7172D01*
X4187Y-7318D01*
X4333Y-7415D01*
X4505Y-7450D01*
X4794Y-7450D01*
X4966Y-7415D01*
X5112Y-7318D01*
X5191Y-7200D01*
X5767Y-7200D01*
X5800Y-7232D01*
X5800Y-7809D01*
X5750Y-7800D01*
X5191Y-7800D01*
X5112Y-7681D01*
X4966Y-7584D01*
X4794Y-7550D01*
X4505Y-7550D01*
X4333Y-7584D01*
X4187Y-7681D01*
X4089Y-7827D01*
X4055Y-8000D01*
X4089Y-8172D01*
X4187Y-8318D01*
X4333Y-8415D01*
X4505Y-8450D01*
X4794Y-8450D01*
X4966Y-8415D01*
X5112Y-8318D01*
X5191Y-8200D01*
X5667Y-8200D01*
X6000Y-8532D01*
X6000Y-9800D01*
X6015Y-9876D01*
X6058Y-9941D01*
X6446Y-10329D01*
X6415Y-10403D01*
X6415Y-10595D01*
X6489Y-10774D01*
X6625Y-10910D01*
X6803Y-10984D01*
X6995Y-10984D01*
X7174Y-10910D01*
X7200Y-10885D01*
X7200Y-11700D01*
X7215Y-11776D01*
X7258Y-11841D01*
X7558Y-12141D01*
X7623Y-12184D01*
X7700Y-12200D01*
X8017Y-12200D01*
X8100Y-12282D01*
X8100Y-13617D01*
X8017Y-13700D01*
X7100Y-13700D01*
X7023Y-13715D01*
X6958Y-13758D01*
X6658Y-14058D01*
X6647Y-14074D01*
X6618Y-14030D01*
X6472Y-13933D01*
X6300Y-13898D01*
X6127Y-13933D01*
X6107Y-13946D01*
X6107Y-13939D01*
X6060Y-13826D01*
X5974Y-13739D01*
X5861Y-13692D01*
X5739Y-13692D01*
X5626Y-13739D01*
X5539Y-13825D01*
X5492Y-13938D01*
X5492Y-13946D01*
X5472Y-13933D01*
X5333Y-13905D01*
X5333Y-10349D01*
X5333Y-10112D01*
X5333Y-9887D01*
X5333Y-9650D01*
X5294Y-9558D01*
X5224Y-9488D01*
X5132Y-9450D01*
X5033Y-9450D01*
X4794Y-9450D01*
X4966Y-9415D01*
X5112Y-9318D01*
X5210Y-9172D01*
X5244Y-9000D01*
X5210Y-8827D01*
X5112Y-8681D01*
X4966Y-8584D01*
X4794Y-8550D01*
X4505Y-8550D01*
X4333Y-8584D01*
X4187Y-8681D01*
X4089Y-8827D01*
X4055Y-9000D01*
X4089Y-9172D01*
X4187Y-9318D01*
X4333Y-9415D01*
X4505Y-9450D01*
X4266Y-9450D01*
X4167Y-9450D01*
X4075Y-9488D01*
X4005Y-9558D01*
X3967Y-9650D01*
X3967Y-9887D01*
X4029Y-9950D01*
X4600Y-9950D01*
X4600Y-9512D01*
X4537Y-9450D01*
X4762Y-9450D01*
X4700Y-9512D01*
X4700Y-9950D01*
X5270Y-9950D01*
X5333Y-9887D01*
X5333Y-10112D01*
X5270Y-10050D01*
X4700Y-10050D01*
X4700Y-10487D01*
X4762Y-10550D01*
X5033Y-10550D01*
X5132Y-10550D01*
X5224Y-10511D01*
X5294Y-10441D01*
X5333Y-10349D01*
X5333Y-13905D01*
X5300Y-13898D01*
X5127Y-13933D01*
X4981Y-14030D01*
X4884Y-14176D01*
X4850Y-14348D01*
X4850Y-14557D01*
X4884Y-14729D01*
X4981Y-14875D01*
X5127Y-14972D01*
X5300Y-15007D01*
X5472Y-14972D01*
X5600Y-14887D01*
X5600Y-15213D01*
X5472Y-15128D01*
X5300Y-15093D01*
X5127Y-15128D01*
X4981Y-15225D01*
X4884Y-15371D01*
X4850Y-15543D01*
X4850Y-15752D01*
X4884Y-15924D01*
X4934Y-16000D01*
X4665Y-16000D01*
X4715Y-15924D01*
X4750Y-15752D01*
X4750Y-15543D01*
X4715Y-15371D01*
X4618Y-15225D01*
X4472Y-15128D01*
X4300Y-15093D01*
X4127Y-15128D01*
X4090Y-15153D01*
X4107Y-15111D01*
X4107Y-14989D01*
X4090Y-14948D01*
X4127Y-14972D01*
X4300Y-15007D01*
X4472Y-14972D01*
X4618Y-14875D01*
X4715Y-14729D01*
X4750Y-14557D01*
X4750Y-14348D01*
X4715Y-14176D01*
X4618Y-14030D01*
X4600Y-14018D01*
X4600Y-10487D01*
X4600Y-10050D01*
X4029Y-10050D01*
X3967Y-10112D01*
X3967Y-10349D01*
X4005Y-10441D01*
X4075Y-10511D01*
X4167Y-10550D01*
X4266Y-10550D01*
X4537Y-10550D01*
X4600Y-10487D01*
X4600Y-14018D01*
X4472Y-13933D01*
X4300Y-13898D01*
X4127Y-13933D01*
X3981Y-14030D01*
X3884Y-14176D01*
X3850Y-14348D01*
X3850Y-14557D01*
X3884Y-14729D01*
X3905Y-14760D01*
X3861Y-14742D01*
X3739Y-14742D01*
X3694Y-14760D01*
X3715Y-14729D01*
X3750Y-14557D01*
X3750Y-14348D01*
X3715Y-14176D01*
X3618Y-14030D01*
X3472Y-13933D01*
X3300Y-13898D01*
X3127Y-13933D01*
X2981Y-14030D01*
X2884Y-14176D01*
X2851Y-14338D01*
X2850Y-14348D01*
X2850Y-14402D01*
X2789Y-14402D01*
X2851Y-14316D01*
X2793Y-14108D01*
X2659Y-13938D01*
X2471Y-13832D01*
X2435Y-13826D01*
X2350Y-13874D01*
X2350Y-14403D01*
X2357Y-14403D01*
X2357Y-14503D01*
X2350Y-14503D01*
X2350Y-14510D01*
X2250Y-14510D01*
X2250Y-14503D01*
X2250Y-14403D01*
X2250Y-13874D01*
X2164Y-13826D01*
X2128Y-13832D01*
X1940Y-13938D01*
X1806Y-14108D01*
X1748Y-14316D01*
X1810Y-14403D01*
X2250Y-14403D01*
X2250Y-14503D01*
X1810Y-14503D01*
X1748Y-14589D01*
X1797Y-14764D01*
X750Y-13717D01*
X750Y-5482D01*
X2032Y-4200D01*
X7514Y-4200D01*
X7489Y-4225D01*
X7415Y-4403D01*
X7415Y-4595D01*
X7489Y-4774D01*
X7514Y-4800D01*
X5191Y-4800D01*
X5112Y-4681D01*
X4966Y-4584D01*
X4794Y-4550D01*
X4505Y-4550D01*
X4333Y-4584D01*
X4187Y-4681D01*
X4089Y-4827D01*
X4055Y-5000D01*
X4089Y-5172D01*
X4187Y-5318D01*
X4333Y-5415D01*
X4505Y-5450D01*
X4794Y-5450D01*
X4966Y-5415D01*
X5112Y-5318D01*
X5191Y-5200D01*
X6514Y-5200D01*
X6489Y-5225D01*
X6415Y-5403D01*
X6415Y-5595D01*
X6489Y-5774D01*
X6625Y-5910D01*
X6803Y-5984D01*
X6995Y-5984D01*
X7174Y-5910D01*
X7310Y-5774D01*
X7384Y-5596D01*
X7384Y-5404D01*
X7310Y-5225D01*
X7285Y-5200D01*
X7514Y-5200D01*
X7489Y-5225D01*
X7415Y-5403D01*
X7415Y-5595D01*
X7489Y-5774D01*
X7625Y-5910D01*
X7704Y-5943D01*
X7591Y-5990D01*
X7559Y-6089D01*
X7900Y-6429D01*
X8240Y-6089D01*
X8208Y-5990D01*
X8088Y-5946D01*
X8174Y-5910D01*
X8252Y-5832D01*
X8258Y-5841D01*
X10050Y-7632D01*
X10050Y-9155D01*
G54D10*
G36*
X11717Y-12600D02*
X11282Y-12600D01*
X10353Y-11670D01*
X10384Y-11596D01*
X10384Y-11404D01*
X10310Y-11225D01*
X10174Y-11089D01*
X10095Y-11056D01*
X10208Y-11009D01*
X10240Y-10910D01*
X9900Y-10570D01*
X9559Y-10910D01*
X9591Y-11009D01*
X9711Y-11053D01*
X9625Y-11089D01*
X9489Y-11225D01*
X9415Y-11403D01*
X9415Y-11595D01*
X9489Y-11774D01*
X9625Y-11910D01*
X9803Y-11984D01*
X9995Y-11984D01*
X10070Y-11953D01*
X10917Y-12800D01*
X9232Y-12800D01*
X9100Y-12667D01*
X9100Y-11941D01*
X9174Y-11910D01*
X9310Y-11774D01*
X9384Y-11596D01*
X9384Y-11404D01*
X9310Y-11225D01*
X9174Y-11089D01*
X8996Y-11015D01*
X8804Y-11015D01*
X8625Y-11089D01*
X8600Y-11114D01*
X8600Y-11000D01*
X8587Y-10936D01*
X8584Y-10923D01*
X8584Y-10923D01*
X8541Y-10858D01*
X8353Y-10670D01*
X8384Y-10596D01*
X8384Y-10404D01*
X8310Y-10225D01*
X8232Y-10147D01*
X8241Y-10141D01*
X8541Y-9841D01*
X8584Y-9776D01*
X8600Y-9700D01*
X8600Y-9432D01*
X8619Y-9413D01*
X8619Y-9434D01*
X8619Y-10024D01*
X8641Y-10079D01*
X8643Y-10081D01*
X8625Y-10089D01*
X8489Y-10225D01*
X8415Y-10403D01*
X8415Y-10595D01*
X8489Y-10774D01*
X8625Y-10910D01*
X8803Y-10984D01*
X8995Y-10984D01*
X9174Y-10910D01*
X9310Y-10774D01*
X9343Y-10695D01*
X9390Y-10808D01*
X9489Y-10840D01*
X9829Y-10500D01*
X9823Y-10494D01*
X9894Y-10423D01*
X9900Y-10429D01*
X10086Y-10242D01*
X10172Y-10206D01*
X10242Y-10136D01*
X10281Y-10044D01*
X10281Y-9945D01*
X10281Y-9813D01*
X10591Y-10123D01*
X10489Y-10225D01*
X10456Y-10304D01*
X10409Y-10191D01*
X10310Y-10159D01*
X9970Y-10500D01*
X10310Y-10840D01*
X10409Y-10808D01*
X10453Y-10688D01*
X10489Y-10774D01*
X10625Y-10910D01*
X10803Y-10984D01*
X10995Y-10984D01*
X11070Y-10953D01*
X11200Y-11082D01*
X11200Y-11114D01*
X11174Y-11089D01*
X10996Y-11015D01*
X10804Y-11015D01*
X10625Y-11089D01*
X10489Y-11225D01*
X10415Y-11403D01*
X10415Y-11595D01*
X10489Y-11774D01*
X10625Y-11910D01*
X10803Y-11984D01*
X10995Y-11984D01*
X11070Y-11953D01*
X11717Y-12600D01*
X11717Y-12600D01*
G37*
G54D27*
X11717Y-12600D02*
X11282Y-12600D01*
X10353Y-11670D01*
X10384Y-11596D01*
X10384Y-11404D01*
X10310Y-11225D01*
X10174Y-11089D01*
X10095Y-11056D01*
X10208Y-11009D01*
X10240Y-10910D01*
X9900Y-10570D01*
X9559Y-10910D01*
X9591Y-11009D01*
X9711Y-11053D01*
X9625Y-11089D01*
X9489Y-11225D01*
X9415Y-11403D01*
X9415Y-11595D01*
X9489Y-11774D01*
X9625Y-11910D01*
X9803Y-11984D01*
X9995Y-11984D01*
X10070Y-11953D01*
X10917Y-12800D01*
X9232Y-12800D01*
X9100Y-12667D01*
X9100Y-11941D01*
X9174Y-11910D01*
X9310Y-11774D01*
X9384Y-11596D01*
X9384Y-11404D01*
X9310Y-11225D01*
X9174Y-11089D01*
X8996Y-11015D01*
X8804Y-11015D01*
X8625Y-11089D01*
X8600Y-11114D01*
X8600Y-11000D01*
X8587Y-10936D01*
X8584Y-10923D01*
X8584Y-10923D01*
X8541Y-10858D01*
X8353Y-10670D01*
X8384Y-10596D01*
X8384Y-10404D01*
X8310Y-10225D01*
X8232Y-10147D01*
X8241Y-10141D01*
X8541Y-9841D01*
X8584Y-9776D01*
X8600Y-9700D01*
X8600Y-9432D01*
X8619Y-9413D01*
X8619Y-9434D01*
X8619Y-10024D01*
X8641Y-10079D01*
X8643Y-10081D01*
X8625Y-10089D01*
X8489Y-10225D01*
X8415Y-10403D01*
X8415Y-10595D01*
X8489Y-10774D01*
X8625Y-10910D01*
X8803Y-10984D01*
X8995Y-10984D01*
X9174Y-10910D01*
X9310Y-10774D01*
X9343Y-10695D01*
X9390Y-10808D01*
X9489Y-10840D01*
X9829Y-10500D01*
X9823Y-10494D01*
X9894Y-10423D01*
X9900Y-10429D01*
X10086Y-10242D01*
X10172Y-10206D01*
X10242Y-10136D01*
X10281Y-10044D01*
X10281Y-9945D01*
X10281Y-9813D01*
X10591Y-10123D01*
X10489Y-10225D01*
X10456Y-10304D01*
X10409Y-10191D01*
X10310Y-10159D01*
X9970Y-10500D01*
X10310Y-10840D01*
X10409Y-10808D01*
X10453Y-10688D01*
X10489Y-10774D01*
X10625Y-10910D01*
X10803Y-10984D01*
X10995Y-10984D01*
X11070Y-10953D01*
X11200Y-11082D01*
X11200Y-11114D01*
X11174Y-11089D01*
X10996Y-11015D01*
X10804Y-11015D01*
X10625Y-11089D01*
X10489Y-11225D01*
X10415Y-11403D01*
X10415Y-11595D01*
X10489Y-11774D01*
X10625Y-11910D01*
X10803Y-11984D01*
X10995Y-11984D01*
X11070Y-11953D01*
X11717Y-12600D01*
G54D10*
G36*
X16787Y-8150D02*
X16710Y-8359D01*
X16721Y-8592D01*
X16786Y-8750D01*
X14320Y-8750D01*
X14384Y-8596D01*
X14384Y-8404D01*
X14353Y-8329D01*
X14532Y-8150D01*
X16787Y-8150D01*
X16787Y-8150D01*
G37*
G54D27*
X16787Y-8150D02*
X16710Y-8359D01*
X16721Y-8592D01*
X16786Y-8750D01*
X14320Y-8750D01*
X14384Y-8596D01*
X14384Y-8404D01*
X14353Y-8329D01*
X14532Y-8150D01*
X16787Y-8150D01*
G54D10*
G36*
X17376Y-8455D02*
X17305Y-8526D01*
X17300Y-8520D01*
X17294Y-8526D01*
X17223Y-8455D01*
X17229Y-8450D01*
X17223Y-8444D01*
X17294Y-8373D01*
X17300Y-8379D01*
X17305Y-8373D01*
X17376Y-8444D01*
X17370Y-8450D01*
X17376Y-8455D01*
X17376Y-8455D01*
G37*
G54D27*
X17376Y-8455D02*
X17305Y-8526D01*
X17300Y-8520D01*
X17294Y-8526D01*
X17223Y-8455D01*
X17229Y-8450D01*
X17223Y-8444D01*
X17294Y-8373D01*
X17300Y-8379D01*
X17305Y-8373D01*
X17376Y-8444D01*
X17370Y-8450D01*
X17376Y-8455D01*
G54D10*
G36*
X18600Y-14018D02*
X18472Y-13933D01*
X18300Y-13898D01*
X18127Y-13933D01*
X17981Y-14030D01*
X17952Y-14074D01*
X17941Y-14058D01*
X17917Y-14034D01*
X17973Y-14010D01*
X18060Y-13924D01*
X18107Y-13811D01*
X18107Y-13689D01*
X18060Y-13576D01*
X17974Y-13489D01*
X17861Y-13442D01*
X17775Y-13442D01*
X15791Y-11458D01*
X15726Y-11415D01*
X15650Y-11400D01*
X14382Y-11400D01*
X13967Y-10984D01*
X13995Y-10984D01*
X14070Y-10953D01*
X14208Y-11091D01*
X14273Y-11134D01*
X14273Y-11134D01*
X14350Y-11150D01*
X17800Y-11150D01*
X17876Y-11134D01*
X17941Y-11091D01*
X18129Y-10903D01*
X18203Y-10934D01*
X18395Y-10934D01*
X18574Y-10860D01*
X18600Y-10835D01*
X18600Y-11064D01*
X18574Y-11039D01*
X18396Y-10965D01*
X18204Y-10965D01*
X18025Y-11039D01*
X17889Y-11175D01*
X17815Y-11353D01*
X17815Y-11545D01*
X17889Y-11724D01*
X18025Y-11860D01*
X18203Y-11934D01*
X18395Y-11934D01*
X18574Y-11860D01*
X18600Y-11835D01*
X18600Y-14018D01*
X18600Y-14018D01*
G37*
G54D27*
X18600Y-14018D02*
X18472Y-13933D01*
X18300Y-13898D01*
X18127Y-13933D01*
X17981Y-14030D01*
X17952Y-14074D01*
X17941Y-14058D01*
X17917Y-14034D01*
X17973Y-14010D01*
X18060Y-13924D01*
X18107Y-13811D01*
X18107Y-13689D01*
X18060Y-13576D01*
X17974Y-13489D01*
X17861Y-13442D01*
X17775Y-13442D01*
X15791Y-11458D01*
X15726Y-11415D01*
X15650Y-11400D01*
X14382Y-11400D01*
X13967Y-10984D01*
X13995Y-10984D01*
X14070Y-10953D01*
X14208Y-11091D01*
X14273Y-11134D01*
X14273Y-11134D01*
X14350Y-11150D01*
X17800Y-11150D01*
X17876Y-11134D01*
X17941Y-11091D01*
X18129Y-10903D01*
X18203Y-10934D01*
X18395Y-10934D01*
X18574Y-10860D01*
X18600Y-10835D01*
X18600Y-11064D01*
X18574Y-11039D01*
X18396Y-10965D01*
X18204Y-10965D01*
X18025Y-11039D01*
X17889Y-11175D01*
X17815Y-11353D01*
X17815Y-11545D01*
X17889Y-11724D01*
X18025Y-11860D01*
X18203Y-11934D01*
X18395Y-11934D01*
X18574Y-11860D01*
X18600Y-11835D01*
X18600Y-14018D01*
G54D10*
G36*
X28430Y-16930D02*
X26851Y-16930D01*
X26851Y-15784D01*
X26851Y-15511D01*
X26793Y-15303D01*
X26750Y-15248D01*
X26750Y-14875D01*
X26750Y-14815D01*
X26750Y-14028D01*
X26727Y-13973D01*
X26684Y-13931D01*
X26629Y-13908D01*
X26570Y-13908D01*
X25970Y-13908D01*
X25915Y-13931D01*
X25872Y-13973D01*
X25850Y-14028D01*
X25850Y-14088D01*
X25850Y-14875D01*
X25872Y-14930D01*
X25915Y-14972D01*
X25970Y-14995D01*
X26029Y-14995D01*
X26629Y-14995D01*
X26684Y-14972D01*
X26727Y-14930D01*
X26750Y-14875D01*
X26750Y-15248D01*
X26659Y-15133D01*
X26471Y-15027D01*
X26435Y-15021D01*
X26350Y-15069D01*
X26350Y-15598D01*
X26789Y-15598D01*
X26851Y-15511D01*
X26851Y-15784D01*
X26789Y-15698D01*
X26350Y-15698D01*
X26350Y-16226D01*
X26435Y-16274D01*
X26471Y-16268D01*
X26659Y-16162D01*
X26793Y-15992D01*
X26851Y-15784D01*
X26851Y-16930D01*
X26250Y-16930D01*
X26250Y-16226D01*
X26250Y-15698D01*
X26250Y-15598D01*
X26250Y-15069D01*
X26164Y-15021D01*
X26128Y-15027D01*
X25940Y-15133D01*
X25806Y-15303D01*
X25748Y-15511D01*
X25810Y-15598D01*
X26250Y-15598D01*
X26250Y-15698D01*
X25810Y-15698D01*
X25750Y-15782D01*
X25750Y-15752D01*
X25750Y-15543D01*
X25715Y-15371D01*
X25618Y-15225D01*
X25472Y-15128D01*
X25300Y-15093D01*
X25127Y-15128D01*
X25000Y-15213D01*
X25000Y-15132D01*
X25154Y-14978D01*
X25300Y-15007D01*
X25472Y-14972D01*
X25618Y-14875D01*
X25715Y-14729D01*
X25750Y-14557D01*
X25750Y-14348D01*
X25715Y-14176D01*
X25618Y-14030D01*
X25472Y-13933D01*
X25300Y-13898D01*
X25127Y-13933D01*
X24981Y-14030D01*
X24884Y-14176D01*
X24850Y-14348D01*
X24850Y-14557D01*
X24876Y-14690D01*
X24658Y-14908D01*
X24615Y-14973D01*
X24600Y-15050D01*
X24600Y-15213D01*
X24472Y-15128D01*
X24300Y-15093D01*
X24127Y-15128D01*
X23981Y-15225D01*
X23884Y-15371D01*
X23850Y-15543D01*
X23850Y-15752D01*
X23884Y-15924D01*
X23934Y-16000D01*
X23665Y-16000D01*
X23715Y-15924D01*
X23750Y-15752D01*
X23750Y-15543D01*
X23715Y-15371D01*
X23618Y-15225D01*
X23472Y-15128D01*
X23300Y-15093D01*
X23155Y-15122D01*
X22941Y-14908D01*
X22876Y-14865D01*
X22800Y-14850D01*
X22635Y-14850D01*
X22715Y-14729D01*
X22750Y-14557D01*
X22750Y-14348D01*
X22715Y-14176D01*
X22618Y-14030D01*
X22500Y-13951D01*
X22500Y-12634D01*
X22510Y-12624D01*
X22557Y-12511D01*
X22557Y-12389D01*
X22510Y-12276D01*
X22424Y-12189D01*
X22329Y-12150D01*
X23170Y-12150D01*
X23076Y-12189D01*
X22989Y-12275D01*
X22942Y-12388D01*
X22942Y-12510D01*
X22989Y-12623D01*
X23075Y-12710D01*
X23100Y-12720D01*
X23100Y-13951D01*
X22981Y-14030D01*
X22884Y-14176D01*
X22850Y-14348D01*
X22850Y-14557D01*
X22884Y-14729D01*
X22981Y-14875D01*
X23127Y-14972D01*
X23300Y-15007D01*
X23472Y-14972D01*
X23492Y-14959D01*
X23492Y-14960D01*
X23539Y-15073D01*
X23625Y-15160D01*
X23738Y-15207D01*
X23860Y-15207D01*
X23973Y-15160D01*
X24060Y-15074D01*
X24107Y-14961D01*
X24107Y-14959D01*
X24127Y-14972D01*
X24300Y-15007D01*
X24472Y-14972D01*
X24618Y-14875D01*
X24715Y-14729D01*
X24750Y-14557D01*
X24750Y-14348D01*
X24715Y-14176D01*
X24618Y-14030D01*
X24500Y-13951D01*
X24500Y-13191D01*
X24538Y-13207D01*
X24660Y-13207D01*
X24773Y-13160D01*
X24860Y-13074D01*
X24907Y-12961D01*
X24907Y-12839D01*
X24860Y-12726D01*
X24800Y-12665D01*
X24800Y-11950D01*
X24797Y-11936D01*
X24807Y-11911D01*
X24807Y-11789D01*
X24760Y-11676D01*
X24750Y-11665D01*
X24750Y-3494D01*
X24750Y-3205D01*
X24750Y-2194D01*
X24750Y-1905D01*
X24715Y-1733D01*
X24618Y-1587D01*
X24472Y-1489D01*
X24300Y-1455D01*
X24127Y-1489D01*
X23981Y-1587D01*
X23884Y-1733D01*
X23850Y-1905D01*
X23850Y-2194D01*
X23884Y-2366D01*
X23981Y-2512D01*
X24127Y-2610D01*
X24300Y-2644D01*
X24472Y-2610D01*
X24618Y-2512D01*
X24715Y-2366D01*
X24750Y-2194D01*
X24750Y-3205D01*
X24715Y-3033D01*
X24618Y-2887D01*
X24472Y-2789D01*
X24300Y-2755D01*
X24127Y-2789D01*
X23981Y-2887D01*
X23884Y-3033D01*
X23850Y-3205D01*
X23850Y-3494D01*
X23884Y-3666D01*
X23981Y-3812D01*
X24127Y-3910D01*
X24300Y-3944D01*
X24472Y-3910D01*
X24618Y-3812D01*
X24715Y-3666D01*
X24750Y-3494D01*
X24750Y-11665D01*
X24674Y-11589D01*
X24657Y-11582D01*
X24657Y-9389D01*
X24610Y-9276D01*
X24524Y-9189D01*
X24411Y-9142D01*
X24289Y-9142D01*
X24176Y-9189D01*
X24115Y-9250D01*
X23741Y-9250D01*
X23710Y-9175D01*
X23574Y-9039D01*
X23396Y-8965D01*
X23204Y-8965D01*
X23025Y-9039D01*
X22889Y-9175D01*
X22815Y-9353D01*
X22815Y-9545D01*
X22889Y-9724D01*
X23025Y-9860D01*
X23203Y-9934D01*
X23395Y-9934D01*
X23574Y-9860D01*
X23710Y-9724D01*
X23741Y-9650D01*
X24115Y-9650D01*
X24175Y-9710D01*
X24288Y-9757D01*
X24410Y-9757D01*
X24523Y-9710D01*
X24610Y-9624D01*
X24657Y-9511D01*
X24657Y-9389D01*
X24657Y-11582D01*
X24561Y-11542D01*
X24439Y-11542D01*
X24326Y-11589D01*
X24239Y-11675D01*
X24192Y-11788D01*
X24192Y-11910D01*
X24239Y-12023D01*
X24325Y-12110D01*
X24400Y-12141D01*
X24400Y-12217D01*
X23991Y-11808D01*
X23926Y-11765D01*
X23850Y-11750D01*
X22685Y-11750D01*
X22710Y-11724D01*
X22784Y-11546D01*
X22784Y-11354D01*
X22710Y-11175D01*
X22574Y-11039D01*
X22399Y-10966D01*
X22367Y-10934D01*
X22395Y-10934D01*
X22574Y-10860D01*
X22710Y-10724D01*
X22784Y-10546D01*
X22784Y-10354D01*
X22710Y-10175D01*
X22685Y-10150D01*
X22717Y-10150D01*
X22846Y-10279D01*
X22815Y-10353D01*
X22815Y-10545D01*
X22889Y-10724D01*
X23025Y-10860D01*
X23203Y-10934D01*
X23395Y-10934D01*
X23574Y-10860D01*
X23710Y-10724D01*
X23784Y-10546D01*
X23784Y-10354D01*
X23710Y-10175D01*
X23574Y-10039D01*
X23396Y-9965D01*
X23204Y-9965D01*
X23129Y-9996D01*
X22941Y-9808D01*
X22876Y-9765D01*
X22800Y-9750D01*
X22685Y-9750D01*
X22710Y-9724D01*
X22784Y-9546D01*
X22784Y-9354D01*
X22710Y-9175D01*
X22574Y-9039D01*
X22396Y-8965D01*
X22204Y-8965D01*
X22129Y-8996D01*
X22000Y-8867D01*
X22000Y-8835D01*
X22025Y-8860D01*
X22203Y-8934D01*
X22395Y-8934D01*
X22574Y-8860D01*
X22710Y-8724D01*
X22784Y-8546D01*
X22784Y-8354D01*
X22710Y-8175D01*
X22683Y-8148D01*
X22941Y-7891D01*
X22984Y-7826D01*
X22984Y-7826D01*
X22985Y-7821D01*
X23025Y-7860D01*
X23203Y-7934D01*
X23395Y-7934D01*
X23574Y-7860D01*
X23600Y-7835D01*
X23600Y-7867D01*
X23470Y-7996D01*
X23396Y-7965D01*
X23204Y-7965D01*
X23025Y-8039D01*
X22889Y-8175D01*
X22815Y-8353D01*
X22815Y-8545D01*
X22889Y-8724D01*
X23025Y-8860D01*
X23203Y-8934D01*
X23395Y-8934D01*
X23574Y-8860D01*
X23710Y-8724D01*
X23784Y-8546D01*
X23784Y-8354D01*
X23753Y-8279D01*
X23941Y-8091D01*
X23984Y-8026D01*
X23984Y-8026D01*
X23987Y-8013D01*
X23999Y-7950D01*
X24000Y-7950D01*
X24000Y-6950D01*
X23987Y-6886D01*
X23984Y-6873D01*
X23984Y-6873D01*
X23941Y-6808D01*
X23941Y-6808D01*
X23750Y-6617D01*
X23750Y-3494D01*
X23750Y-3205D01*
X23715Y-3033D01*
X23618Y-2887D01*
X23472Y-2789D01*
X23300Y-2755D01*
X23127Y-2789D01*
X22981Y-2887D01*
X22884Y-3033D01*
X22850Y-3205D01*
X22850Y-2966D01*
X22850Y-2867D01*
X22811Y-2775D01*
X22741Y-2705D01*
X22729Y-2700D01*
X22741Y-2694D01*
X22811Y-2624D01*
X22850Y-2532D01*
X22850Y-2433D01*
X22850Y-2194D01*
X22884Y-2366D01*
X22981Y-2512D01*
X23127Y-2610D01*
X23300Y-2644D01*
X23472Y-2610D01*
X23618Y-2512D01*
X23715Y-2366D01*
X23750Y-2194D01*
X23750Y-1905D01*
X23715Y-1733D01*
X23618Y-1587D01*
X23472Y-1489D01*
X23300Y-1455D01*
X23127Y-1489D01*
X22981Y-1587D01*
X22884Y-1733D01*
X22850Y-1905D01*
X22850Y-1666D01*
X22850Y-1567D01*
X22811Y-1475D01*
X22741Y-1405D01*
X22649Y-1367D01*
X22412Y-1367D01*
X22350Y-1429D01*
X22350Y-2000D01*
X22357Y-2000D01*
X22357Y-2100D01*
X22350Y-2100D01*
X22350Y-2670D01*
X22379Y-2700D01*
X22350Y-2729D01*
X22350Y-3300D01*
X22357Y-3300D01*
X22357Y-3400D01*
X22350Y-3400D01*
X22350Y-3970D01*
X22412Y-4033D01*
X22649Y-4033D01*
X22741Y-3994D01*
X22811Y-3924D01*
X22850Y-3832D01*
X22850Y-3733D01*
X22850Y-3494D01*
X22884Y-3666D01*
X22981Y-3812D01*
X23127Y-3910D01*
X23300Y-3944D01*
X23472Y-3910D01*
X23618Y-3812D01*
X23715Y-3666D01*
X23750Y-3494D01*
X23750Y-6617D01*
X22250Y-5117D01*
X22250Y-3970D01*
X22250Y-3400D01*
X22250Y-3300D01*
X22250Y-2729D01*
X22220Y-2700D01*
X22250Y-2670D01*
X22250Y-2100D01*
X22250Y-2000D01*
X22250Y-1429D01*
X22187Y-1367D01*
X21950Y-1367D01*
X21858Y-1405D01*
X21788Y-1475D01*
X21750Y-1567D01*
X21750Y-1666D01*
X21750Y-1937D01*
X21812Y-2000D01*
X22250Y-2000D01*
X22250Y-2100D01*
X21812Y-2100D01*
X21750Y-2162D01*
X21750Y-2433D01*
X21750Y-2532D01*
X21788Y-2624D01*
X21858Y-2694D01*
X21870Y-2700D01*
X21858Y-2705D01*
X21788Y-2775D01*
X21750Y-2867D01*
X21750Y-2966D01*
X21750Y-3237D01*
X21812Y-3300D01*
X22250Y-3300D01*
X22250Y-3400D01*
X21812Y-3400D01*
X21750Y-3462D01*
X21750Y-3733D01*
X21750Y-3832D01*
X21788Y-3924D01*
X21858Y-3994D01*
X21950Y-4033D01*
X22187Y-4033D01*
X22250Y-3970D01*
X22250Y-5117D01*
X22141Y-5008D01*
X22076Y-4965D01*
X22000Y-4950D01*
X20443Y-4950D01*
X20443Y-892D01*
X20361Y-692D01*
X20208Y-539D01*
X20008Y-456D01*
X19792Y-456D01*
X19592Y-538D01*
X19439Y-691D01*
X19400Y-786D01*
X19361Y-692D01*
X19208Y-539D01*
X19008Y-456D01*
X18792Y-456D01*
X18592Y-538D01*
X18439Y-691D01*
X18356Y-891D01*
X18356Y-1107D01*
X18438Y-1307D01*
X18591Y-1460D01*
X18791Y-1543D01*
X19007Y-1543D01*
X19207Y-1461D01*
X19360Y-1308D01*
X19399Y-1213D01*
X19438Y-1307D01*
X19591Y-1460D01*
X19791Y-1543D01*
X20007Y-1543D01*
X20207Y-1461D01*
X20360Y-1308D01*
X20443Y-1108D01*
X20443Y-892D01*
X20443Y-4950D01*
X17933Y-4950D01*
X17933Y-692D01*
X17850Y-492D01*
X17698Y-339D01*
X17498Y-256D01*
X17282Y-256D01*
X17082Y-338D01*
X16929Y-491D01*
X16846Y-691D01*
X16845Y-907D01*
X16928Y-1107D01*
X17081Y-1260D01*
X17281Y-1343D01*
X17497Y-1343D01*
X17697Y-1261D01*
X17850Y-1108D01*
X17933Y-908D01*
X17933Y-692D01*
X17933Y-4950D01*
X14332Y-4950D01*
X13741Y-4358D01*
X13676Y-4315D01*
X13600Y-4300D01*
X13341Y-4300D01*
X13310Y-4225D01*
X13285Y-4200D01*
X15100Y-4200D01*
X15176Y-4184D01*
X15241Y-4141D01*
X16428Y-2954D01*
X16472Y-2889D01*
X16472Y-2889D01*
X16487Y-2812D01*
X16487Y-1199D01*
X16539Y-1177D01*
X16664Y-1052D01*
X16732Y-888D01*
X16732Y-711D01*
X16665Y-548D01*
X16539Y-422D01*
X16376Y-354D01*
X16199Y-354D01*
X16035Y-422D01*
X15910Y-547D01*
X15893Y-586D01*
X15877Y-548D01*
X15752Y-422D01*
X15588Y-354D01*
X15411Y-354D01*
X15248Y-422D01*
X15162Y-507D01*
X15095Y-488D01*
X15024Y-558D01*
X15024Y-417D01*
X14997Y-322D01*
X14793Y-249D01*
X14576Y-260D01*
X14427Y-322D01*
X14400Y-417D01*
X14712Y-729D01*
X15024Y-417D01*
X15024Y-558D01*
X14783Y-800D01*
X15095Y-1111D01*
X15162Y-1092D01*
X15247Y-1177D01*
X15411Y-1245D01*
X15588Y-1245D01*
X15751Y-1177D01*
X15877Y-1052D01*
X15893Y-1013D01*
X15909Y-1051D01*
X16034Y-1177D01*
X16087Y-1199D01*
X16087Y-2729D01*
X15024Y-3792D01*
X15024Y-1182D01*
X14712Y-870D01*
X14641Y-941D01*
X14641Y-800D01*
X14330Y-488D01*
X14235Y-514D01*
X14162Y-719D01*
X14173Y-936D01*
X14235Y-1085D01*
X14330Y-1111D01*
X14641Y-800D01*
X14641Y-941D01*
X14400Y-1182D01*
X14427Y-1277D01*
X14631Y-1350D01*
X14848Y-1339D01*
X14997Y-1277D01*
X15024Y-1182D01*
X15024Y-3792D01*
X15017Y-3800D01*
X14154Y-3800D01*
X14154Y-692D01*
X14071Y-492D01*
X13918Y-339D01*
X13718Y-256D01*
X13502Y-256D01*
X13302Y-338D01*
X13149Y-491D01*
X13066Y-691D01*
X13066Y-907D01*
X13149Y-1107D01*
X13301Y-1260D01*
X13501Y-1343D01*
X13717Y-1343D01*
X13917Y-1261D01*
X14070Y-1108D01*
X14153Y-908D01*
X14154Y-692D01*
X14154Y-3800D01*
X12700Y-3800D01*
X12623Y-3815D01*
X12558Y-3858D01*
X12258Y-4158D01*
X12252Y-4167D01*
X12174Y-4089D01*
X11996Y-4015D01*
X11804Y-4015D01*
X11625Y-4089D01*
X11489Y-4225D01*
X11415Y-4403D01*
X11415Y-4595D01*
X11489Y-4774D01*
X11625Y-4910D01*
X11803Y-4984D01*
X11995Y-4984D01*
X12174Y-4910D01*
X12200Y-4885D01*
X12200Y-5000D01*
X12215Y-5076D01*
X12258Y-5141D01*
X12446Y-5329D01*
X12415Y-5403D01*
X12415Y-5595D01*
X12446Y-5670D01*
X12048Y-6069D01*
X11675Y-6069D01*
X11620Y-6091D01*
X11577Y-6134D01*
X11555Y-6189D01*
X11555Y-6248D01*
X11555Y-6760D01*
X11556Y-6764D01*
X11493Y-6827D01*
X11455Y-6919D01*
X11455Y-7112D01*
X11517Y-7175D01*
X11950Y-7175D01*
X11950Y-7167D01*
X12050Y-7167D01*
X12050Y-7175D01*
X12057Y-7175D01*
X12057Y-7275D01*
X12050Y-7275D01*
X12050Y-7668D01*
X12112Y-7731D01*
X12245Y-7731D01*
X12344Y-7731D01*
X12436Y-7692D01*
X12449Y-7679D01*
X12489Y-7774D01*
X12625Y-7910D01*
X12803Y-7984D01*
X12995Y-7984D01*
X13174Y-7910D01*
X13310Y-7774D01*
X13384Y-7596D01*
X13384Y-7404D01*
X13353Y-7329D01*
X13482Y-7200D01*
X13514Y-7200D01*
X13489Y-7225D01*
X13415Y-7403D01*
X13415Y-7595D01*
X13489Y-7774D01*
X13625Y-7910D01*
X13803Y-7984D01*
X13995Y-7984D01*
X14174Y-7910D01*
X14310Y-7774D01*
X14341Y-7700D01*
X16550Y-7700D01*
X16626Y-7684D01*
X16691Y-7641D01*
X16815Y-7517D01*
X16815Y-7545D01*
X16889Y-7724D01*
X16914Y-7750D01*
X14450Y-7750D01*
X14386Y-7762D01*
X14373Y-7765D01*
X14308Y-7808D01*
X14070Y-8046D01*
X13996Y-8015D01*
X13804Y-8015D01*
X13625Y-8089D01*
X13489Y-8225D01*
X13415Y-8403D01*
X13415Y-8432D01*
X13382Y-8400D01*
X13310Y-8225D01*
X13174Y-8089D01*
X12996Y-8015D01*
X12804Y-8015D01*
X12625Y-8089D01*
X12489Y-8225D01*
X12415Y-8403D01*
X12415Y-8595D01*
X12489Y-8774D01*
X12625Y-8910D01*
X12803Y-8984D01*
X12995Y-8984D01*
X13174Y-8910D01*
X13251Y-8834D01*
X13558Y-9141D01*
X13623Y-9184D01*
X13623Y-9184D01*
X13636Y-9187D01*
X13663Y-9192D01*
X13900Y-9429D01*
X13905Y-9423D01*
X13976Y-9494D01*
X13970Y-9500D01*
X14310Y-9840D01*
X14409Y-9808D01*
X14489Y-9590D01*
X14478Y-9357D01*
X14409Y-9191D01*
X14310Y-9159D01*
X14320Y-9150D01*
X16914Y-9150D01*
X16889Y-9175D01*
X16815Y-9353D01*
X16815Y-9545D01*
X16889Y-9724D01*
X17025Y-9860D01*
X17203Y-9934D01*
X17395Y-9934D01*
X17574Y-9860D01*
X17710Y-9724D01*
X17784Y-9546D01*
X17784Y-9354D01*
X17710Y-9175D01*
X17685Y-9150D01*
X17914Y-9150D01*
X17889Y-9175D01*
X17815Y-9353D01*
X17815Y-9545D01*
X17889Y-9724D01*
X18025Y-9860D01*
X18203Y-9934D01*
X18395Y-9934D01*
X18522Y-9882D01*
X18539Y-9923D01*
X18600Y-9984D01*
X18600Y-10064D01*
X18574Y-10039D01*
X18396Y-9965D01*
X18204Y-9965D01*
X18025Y-10039D01*
X17889Y-10175D01*
X17815Y-10353D01*
X17815Y-10545D01*
X17846Y-10620D01*
X17717Y-10750D01*
X17685Y-10750D01*
X17710Y-10724D01*
X17784Y-10546D01*
X17784Y-10354D01*
X17710Y-10175D01*
X17574Y-10039D01*
X17396Y-9965D01*
X17204Y-9965D01*
X17025Y-10039D01*
X16889Y-10175D01*
X16815Y-10353D01*
X16815Y-10545D01*
X16889Y-10724D01*
X16914Y-10750D01*
X14489Y-10750D01*
X14432Y-10750D01*
X14353Y-10670D01*
X14384Y-10596D01*
X14384Y-10404D01*
X14310Y-10225D01*
X14174Y-10089D01*
X14095Y-10056D01*
X14208Y-10009D01*
X14240Y-9910D01*
X13900Y-9570D01*
X13559Y-9910D01*
X13591Y-10009D01*
X13711Y-10053D01*
X13625Y-10089D01*
X13547Y-10167D01*
X13541Y-10158D01*
X13241Y-9858D01*
X13232Y-9852D01*
X13310Y-9774D01*
X13343Y-9695D01*
X13390Y-9808D01*
X13489Y-9840D01*
X13829Y-9500D01*
X13489Y-9159D01*
X13390Y-9191D01*
X13346Y-9311D01*
X13310Y-9225D01*
X13174Y-9089D01*
X12996Y-9015D01*
X12804Y-9015D01*
X12625Y-9089D01*
X12489Y-9225D01*
X12481Y-9245D01*
X12481Y-8975D01*
X12458Y-8920D01*
X12415Y-8877D01*
X12360Y-8855D01*
X12301Y-8855D01*
X11950Y-8855D01*
X11950Y-7668D01*
X11950Y-7275D01*
X11517Y-7275D01*
X11455Y-7337D01*
X11455Y-7530D01*
X11493Y-7622D01*
X11563Y-7692D01*
X11655Y-7731D01*
X11754Y-7731D01*
X11887Y-7731D01*
X11950Y-7668D01*
X11950Y-8855D01*
X11789Y-8855D01*
X11785Y-8856D01*
X11722Y-8793D01*
X11630Y-8755D01*
X11437Y-8755D01*
X11375Y-8817D01*
X11375Y-9250D01*
X11382Y-9250D01*
X11382Y-9350D01*
X11375Y-9350D01*
X11375Y-9357D01*
X11275Y-9357D01*
X11275Y-9350D01*
X11275Y-9250D01*
X11275Y-8817D01*
X11212Y-8755D01*
X11019Y-8755D01*
X10927Y-8793D01*
X10857Y-8863D01*
X10819Y-8955D01*
X10819Y-9054D01*
X10819Y-9187D01*
X10881Y-9250D01*
X11275Y-9250D01*
X11275Y-9350D01*
X10881Y-9350D01*
X10819Y-9412D01*
X10819Y-9486D01*
X10650Y-9317D01*
X10650Y-7450D01*
X10634Y-7373D01*
X10591Y-7308D01*
X9600Y-6317D01*
X9600Y-5885D01*
X9625Y-5910D01*
X9803Y-5984D01*
X9995Y-5984D01*
X10174Y-5910D01*
X10310Y-5774D01*
X10384Y-5596D01*
X10384Y-5404D01*
X10310Y-5225D01*
X10285Y-5200D01*
X10514Y-5200D01*
X10489Y-5225D01*
X10415Y-5403D01*
X10415Y-5595D01*
X10489Y-5774D01*
X10625Y-5910D01*
X10803Y-5984D01*
X10995Y-5984D01*
X11174Y-5910D01*
X11310Y-5774D01*
X11384Y-5596D01*
X11384Y-5404D01*
X11310Y-5225D01*
X11285Y-5200D01*
X11317Y-5200D01*
X11446Y-5329D01*
X11415Y-5403D01*
X11415Y-5595D01*
X11489Y-5774D01*
X11625Y-5910D01*
X11803Y-5984D01*
X11995Y-5984D01*
X12174Y-5910D01*
X12310Y-5774D01*
X12384Y-5596D01*
X12384Y-5404D01*
X12310Y-5225D01*
X12174Y-5089D01*
X11996Y-5015D01*
X11804Y-5015D01*
X11729Y-5046D01*
X11541Y-4858D01*
X11476Y-4815D01*
X11400Y-4800D01*
X11285Y-4800D01*
X11310Y-4774D01*
X11384Y-4596D01*
X11384Y-4404D01*
X11310Y-4225D01*
X11174Y-4089D01*
X10996Y-4015D01*
X10804Y-4015D01*
X10625Y-4089D01*
X10489Y-4225D01*
X10415Y-4403D01*
X10415Y-4595D01*
X10489Y-4774D01*
X10514Y-4800D01*
X10285Y-4800D01*
X10310Y-4774D01*
X10384Y-4596D01*
X10384Y-4404D01*
X10310Y-4225D01*
X10174Y-4089D01*
X9996Y-4015D01*
X9804Y-4015D01*
X9625Y-4089D01*
X9489Y-4225D01*
X9415Y-4403D01*
X9415Y-4595D01*
X9489Y-4774D01*
X9567Y-4852D01*
X9558Y-4858D01*
X9258Y-5158D01*
X9252Y-5167D01*
X9174Y-5089D01*
X8996Y-5015D01*
X8804Y-5015D01*
X8729Y-5046D01*
X8600Y-4917D01*
X8600Y-4885D01*
X8625Y-4910D01*
X8803Y-4984D01*
X8995Y-4984D01*
X9174Y-4910D01*
X9310Y-4774D01*
X9384Y-4596D01*
X9384Y-4404D01*
X9310Y-4225D01*
X9174Y-4089D01*
X8996Y-4015D01*
X8804Y-4015D01*
X8625Y-4089D01*
X8547Y-4167D01*
X8541Y-4158D01*
X8241Y-3858D01*
X8176Y-3815D01*
X8100Y-3800D01*
X1950Y-3800D01*
X1886Y-3812D01*
X1873Y-3815D01*
X1808Y-3858D01*
X408Y-5258D01*
X365Y-5323D01*
X350Y-5400D01*
X350Y-13800D01*
X365Y-13876D01*
X408Y-13941D01*
X1876Y-15409D01*
X1850Y-15543D01*
X1850Y-15752D01*
X1884Y-15924D01*
X1981Y-16070D01*
X2127Y-16167D01*
X2300Y-16202D01*
X2472Y-16167D01*
X2618Y-16070D01*
X2715Y-15924D01*
X2750Y-15752D01*
X2750Y-15543D01*
X2715Y-15371D01*
X2618Y-15225D01*
X2472Y-15128D01*
X2313Y-15096D01*
X2350Y-15096D01*
X2350Y-15031D01*
X2435Y-15079D01*
X2471Y-15073D01*
X2659Y-14967D01*
X2793Y-14797D01*
X2851Y-14589D01*
X2789Y-14503D01*
X2850Y-14503D01*
X2850Y-14557D01*
X2884Y-14729D01*
X2981Y-14875D01*
X3127Y-14972D01*
X3300Y-15007D01*
X3472Y-14972D01*
X3509Y-14948D01*
X3492Y-14988D01*
X3492Y-15110D01*
X3510Y-15153D01*
X3472Y-15128D01*
X3300Y-15093D01*
X3127Y-15128D01*
X2981Y-15225D01*
X2884Y-15371D01*
X2851Y-15533D01*
X2850Y-15543D01*
X2850Y-15752D01*
X2884Y-15924D01*
X2981Y-16070D01*
X3127Y-16167D01*
X3300Y-16202D01*
X3472Y-16167D01*
X3618Y-16070D01*
X3648Y-16025D01*
X3658Y-16041D01*
X3958Y-16341D01*
X4023Y-16384D01*
X4100Y-16400D01*
X5800Y-16400D01*
X12500Y-16400D01*
X12576Y-16384D01*
X12641Y-16341D01*
X12941Y-16041D01*
X12951Y-16025D01*
X12981Y-16070D01*
X13127Y-16167D01*
X13300Y-16202D01*
X13472Y-16167D01*
X13618Y-16070D01*
X13715Y-15924D01*
X13750Y-15752D01*
X13750Y-15543D01*
X13715Y-15371D01*
X13618Y-15225D01*
X13472Y-15128D01*
X13374Y-15108D01*
X13441Y-15041D01*
X13484Y-14976D01*
X13484Y-14976D01*
X13487Y-14963D01*
X13487Y-14962D01*
X13600Y-14887D01*
X13600Y-15050D01*
X13615Y-15126D01*
X13658Y-15191D01*
X13876Y-15409D01*
X13850Y-15543D01*
X13850Y-15752D01*
X13884Y-15924D01*
X13981Y-16070D01*
X14127Y-16167D01*
X14300Y-16202D01*
X14472Y-16167D01*
X14618Y-16070D01*
X14715Y-15924D01*
X14750Y-15752D01*
X14750Y-15543D01*
X14715Y-15371D01*
X14618Y-15225D01*
X14472Y-15128D01*
X14300Y-15093D01*
X14155Y-15122D01*
X14000Y-14967D01*
X14000Y-14887D01*
X14127Y-14972D01*
X14300Y-15007D01*
X14472Y-14972D01*
X14600Y-14887D01*
X14600Y-15050D01*
X14615Y-15126D01*
X14658Y-15191D01*
X14876Y-15409D01*
X14850Y-15543D01*
X14850Y-15752D01*
X14884Y-15924D01*
X14981Y-16070D01*
X15127Y-16167D01*
X15300Y-16202D01*
X15472Y-16167D01*
X15618Y-16070D01*
X15715Y-15924D01*
X15750Y-15752D01*
X15750Y-15543D01*
X15715Y-15371D01*
X15618Y-15225D01*
X15472Y-15128D01*
X15300Y-15093D01*
X15155Y-15122D01*
X15000Y-14967D01*
X15000Y-14887D01*
X15127Y-14972D01*
X15300Y-15007D01*
X15472Y-14972D01*
X15595Y-14890D01*
X15595Y-15045D01*
X15611Y-15122D01*
X15654Y-15187D01*
X15876Y-15409D01*
X15850Y-15543D01*
X15850Y-15752D01*
X15884Y-15924D01*
X15981Y-16070D01*
X16127Y-16167D01*
X16300Y-16202D01*
X16472Y-16167D01*
X16618Y-16070D01*
X16715Y-15924D01*
X16750Y-15752D01*
X16750Y-15543D01*
X16715Y-15371D01*
X16618Y-15225D01*
X16472Y-15128D01*
X16300Y-15093D01*
X16155Y-15122D01*
X15995Y-14962D01*
X15995Y-14884D01*
X16127Y-14972D01*
X16300Y-15007D01*
X16472Y-14972D01*
X16600Y-14887D01*
X16600Y-15050D01*
X16615Y-15126D01*
X16658Y-15191D01*
X16876Y-15409D01*
X16850Y-15543D01*
X16850Y-15752D01*
X16884Y-15924D01*
X16981Y-16070D01*
X17127Y-16167D01*
X17300Y-16202D01*
X17394Y-16183D01*
X17392Y-16188D01*
X17392Y-16310D01*
X17439Y-16423D01*
X17525Y-16510D01*
X17638Y-16557D01*
X17732Y-16557D01*
X17732Y-16557D01*
X17773Y-16584D01*
X17773Y-16584D01*
X17786Y-16587D01*
X17850Y-16600D01*
X24600Y-16600D01*
X24676Y-16584D01*
X24741Y-16541D01*
X25120Y-16162D01*
X25127Y-16167D01*
X25300Y-16202D01*
X25472Y-16167D01*
X25618Y-16070D01*
X25715Y-15924D01*
X25750Y-15752D01*
X25750Y-15782D01*
X25748Y-15784D01*
X25806Y-15992D01*
X25940Y-16162D01*
X26128Y-16268D01*
X26164Y-16274D01*
X26250Y-16226D01*
X26250Y-16930D01*
X169Y-16930D01*
X169Y-169D01*
X28430Y-169D01*
X28430Y-16930D01*
X28430Y-16930D01*
G37*
G54D27*
X28430Y-16930D02*
X26851Y-16930D01*
X26851Y-15784D01*
X26851Y-15511D01*
X26793Y-15303D01*
X26750Y-15248D01*
X26750Y-14875D01*
X26750Y-14815D01*
X26750Y-14028D01*
X26727Y-13973D01*
X26684Y-13931D01*
X26629Y-13908D01*
X26570Y-13908D01*
X25970Y-13908D01*
X25915Y-13931D01*
X25872Y-13973D01*
X25850Y-14028D01*
X25850Y-14088D01*
X25850Y-14875D01*
X25872Y-14930D01*
X25915Y-14972D01*
X25970Y-14995D01*
X26029Y-14995D01*
X26629Y-14995D01*
X26684Y-14972D01*
X26727Y-14930D01*
X26750Y-14875D01*
X26750Y-15248D01*
X26659Y-15133D01*
X26471Y-15027D01*
X26435Y-15021D01*
X26350Y-15069D01*
X26350Y-15598D01*
X26789Y-15598D01*
X26851Y-15511D01*
X26851Y-15784D01*
X26789Y-15698D01*
X26350Y-15698D01*
X26350Y-16226D01*
X26435Y-16274D01*
X26471Y-16268D01*
X26659Y-16162D01*
X26793Y-15992D01*
X26851Y-15784D01*
X26851Y-16930D01*
X26250Y-16930D01*
X26250Y-16226D01*
X26250Y-15698D01*
X26250Y-15598D01*
X26250Y-15069D01*
X26164Y-15021D01*
X26128Y-15027D01*
X25940Y-15133D01*
X25806Y-15303D01*
X25748Y-15511D01*
X25810Y-15598D01*
X26250Y-15598D01*
X26250Y-15698D01*
X25810Y-15698D01*
X25750Y-15782D01*
X25750Y-15752D01*
X25750Y-15543D01*
X25715Y-15371D01*
X25618Y-15225D01*
X25472Y-15128D01*
X25300Y-15093D01*
X25127Y-15128D01*
X25000Y-15213D01*
X25000Y-15132D01*
X25154Y-14978D01*
X25300Y-15007D01*
X25472Y-14972D01*
X25618Y-14875D01*
X25715Y-14729D01*
X25750Y-14557D01*
X25750Y-14348D01*
X25715Y-14176D01*
X25618Y-14030D01*
X25472Y-13933D01*
X25300Y-13898D01*
X25127Y-13933D01*
X24981Y-14030D01*
X24884Y-14176D01*
X24850Y-14348D01*
X24850Y-14557D01*
X24876Y-14690D01*
X24658Y-14908D01*
X24615Y-14973D01*
X24600Y-15050D01*
X24600Y-15213D01*
X24472Y-15128D01*
X24300Y-15093D01*
X24127Y-15128D01*
X23981Y-15225D01*
X23884Y-15371D01*
X23850Y-15543D01*
X23850Y-15752D01*
X23884Y-15924D01*
X23934Y-16000D01*
X23665Y-16000D01*
X23715Y-15924D01*
X23750Y-15752D01*
X23750Y-15543D01*
X23715Y-15371D01*
X23618Y-15225D01*
X23472Y-15128D01*
X23300Y-15093D01*
X23155Y-15122D01*
X22941Y-14908D01*
X22876Y-14865D01*
X22800Y-14850D01*
X22635Y-14850D01*
X22715Y-14729D01*
X22750Y-14557D01*
X22750Y-14348D01*
X22715Y-14176D01*
X22618Y-14030D01*
X22500Y-13951D01*
X22500Y-12634D01*
X22510Y-12624D01*
X22557Y-12511D01*
X22557Y-12389D01*
X22510Y-12276D01*
X22424Y-12189D01*
X22329Y-12150D01*
X23170Y-12150D01*
X23076Y-12189D01*
X22989Y-12275D01*
X22942Y-12388D01*
X22942Y-12510D01*
X22989Y-12623D01*
X23075Y-12710D01*
X23100Y-12720D01*
X23100Y-13951D01*
X22981Y-14030D01*
X22884Y-14176D01*
X22850Y-14348D01*
X22850Y-14557D01*
X22884Y-14729D01*
X22981Y-14875D01*
X23127Y-14972D01*
X23300Y-15007D01*
X23472Y-14972D01*
X23492Y-14959D01*
X23492Y-14960D01*
X23539Y-15073D01*
X23625Y-15160D01*
X23738Y-15207D01*
X23860Y-15207D01*
X23973Y-15160D01*
X24060Y-15074D01*
X24107Y-14961D01*
X24107Y-14959D01*
X24127Y-14972D01*
X24300Y-15007D01*
X24472Y-14972D01*
X24618Y-14875D01*
X24715Y-14729D01*
X24750Y-14557D01*
X24750Y-14348D01*
X24715Y-14176D01*
X24618Y-14030D01*
X24500Y-13951D01*
X24500Y-13191D01*
X24538Y-13207D01*
X24660Y-13207D01*
X24773Y-13160D01*
X24860Y-13074D01*
X24907Y-12961D01*
X24907Y-12839D01*
X24860Y-12726D01*
X24800Y-12665D01*
X24800Y-11950D01*
X24797Y-11936D01*
X24807Y-11911D01*
X24807Y-11789D01*
X24760Y-11676D01*
X24750Y-11665D01*
X24750Y-3494D01*
X24750Y-3205D01*
X24750Y-2194D01*
X24750Y-1905D01*
X24715Y-1733D01*
X24618Y-1587D01*
X24472Y-1489D01*
X24300Y-1455D01*
X24127Y-1489D01*
X23981Y-1587D01*
X23884Y-1733D01*
X23850Y-1905D01*
X23850Y-2194D01*
X23884Y-2366D01*
X23981Y-2512D01*
X24127Y-2610D01*
X24300Y-2644D01*
X24472Y-2610D01*
X24618Y-2512D01*
X24715Y-2366D01*
X24750Y-2194D01*
X24750Y-3205D01*
X24715Y-3033D01*
X24618Y-2887D01*
X24472Y-2789D01*
X24300Y-2755D01*
X24127Y-2789D01*
X23981Y-2887D01*
X23884Y-3033D01*
X23850Y-3205D01*
X23850Y-3494D01*
X23884Y-3666D01*
X23981Y-3812D01*
X24127Y-3910D01*
X24300Y-3944D01*
X24472Y-3910D01*
X24618Y-3812D01*
X24715Y-3666D01*
X24750Y-3494D01*
X24750Y-11665D01*
X24674Y-11589D01*
X24657Y-11582D01*
X24657Y-9389D01*
X24610Y-9276D01*
X24524Y-9189D01*
X24411Y-9142D01*
X24289Y-9142D01*
X24176Y-9189D01*
X24115Y-9250D01*
X23741Y-9250D01*
X23710Y-9175D01*
X23574Y-9039D01*
X23396Y-8965D01*
X23204Y-8965D01*
X23025Y-9039D01*
X22889Y-9175D01*
X22815Y-9353D01*
X22815Y-9545D01*
X22889Y-9724D01*
X23025Y-9860D01*
X23203Y-9934D01*
X23395Y-9934D01*
X23574Y-9860D01*
X23710Y-9724D01*
X23741Y-9650D01*
X24115Y-9650D01*
X24175Y-9710D01*
X24288Y-9757D01*
X24410Y-9757D01*
X24523Y-9710D01*
X24610Y-9624D01*
X24657Y-9511D01*
X24657Y-9389D01*
X24657Y-11582D01*
X24561Y-11542D01*
X24439Y-11542D01*
X24326Y-11589D01*
X24239Y-11675D01*
X24192Y-11788D01*
X24192Y-11910D01*
X24239Y-12023D01*
X24325Y-12110D01*
X24400Y-12141D01*
X24400Y-12217D01*
X23991Y-11808D01*
X23926Y-11765D01*
X23850Y-11750D01*
X22685Y-11750D01*
X22710Y-11724D01*
X22784Y-11546D01*
X22784Y-11354D01*
X22710Y-11175D01*
X22574Y-11039D01*
X22399Y-10966D01*
X22367Y-10934D01*
X22395Y-10934D01*
X22574Y-10860D01*
X22710Y-10724D01*
X22784Y-10546D01*
X22784Y-10354D01*
X22710Y-10175D01*
X22685Y-10150D01*
X22717Y-10150D01*
X22846Y-10279D01*
X22815Y-10353D01*
X22815Y-10545D01*
X22889Y-10724D01*
X23025Y-10860D01*
X23203Y-10934D01*
X23395Y-10934D01*
X23574Y-10860D01*
X23710Y-10724D01*
X23784Y-10546D01*
X23784Y-10354D01*
X23710Y-10175D01*
X23574Y-10039D01*
X23396Y-9965D01*
X23204Y-9965D01*
X23129Y-9996D01*
X22941Y-9808D01*
X22876Y-9765D01*
X22800Y-9750D01*
X22685Y-9750D01*
X22710Y-9724D01*
X22784Y-9546D01*
X22784Y-9354D01*
X22710Y-9175D01*
X22574Y-9039D01*
X22396Y-8965D01*
X22204Y-8965D01*
X22129Y-8996D01*
X22000Y-8867D01*
X22000Y-8835D01*
X22025Y-8860D01*
X22203Y-8934D01*
X22395Y-8934D01*
X22574Y-8860D01*
X22710Y-8724D01*
X22784Y-8546D01*
X22784Y-8354D01*
X22710Y-8175D01*
X22683Y-8148D01*
X22941Y-7891D01*
X22984Y-7826D01*
X22984Y-7826D01*
X22985Y-7821D01*
X23025Y-7860D01*
X23203Y-7934D01*
X23395Y-7934D01*
X23574Y-7860D01*
X23600Y-7835D01*
X23600Y-7867D01*
X23470Y-7996D01*
X23396Y-7965D01*
X23204Y-7965D01*
X23025Y-8039D01*
X22889Y-8175D01*
X22815Y-8353D01*
X22815Y-8545D01*
X22889Y-8724D01*
X23025Y-8860D01*
X23203Y-8934D01*
X23395Y-8934D01*
X23574Y-8860D01*
X23710Y-8724D01*
X23784Y-8546D01*
X23784Y-8354D01*
X23753Y-8279D01*
X23941Y-8091D01*
X23984Y-8026D01*
X23984Y-8026D01*
X23987Y-8013D01*
X23999Y-7950D01*
X24000Y-7950D01*
X24000Y-6950D01*
X23987Y-6886D01*
X23984Y-6873D01*
X23984Y-6873D01*
X23941Y-6808D01*
X23941Y-6808D01*
X23750Y-6617D01*
X23750Y-3494D01*
X23750Y-3205D01*
X23715Y-3033D01*
X23618Y-2887D01*
X23472Y-2789D01*
X23300Y-2755D01*
X23127Y-2789D01*
X22981Y-2887D01*
X22884Y-3033D01*
X22850Y-3205D01*
X22850Y-2966D01*
X22850Y-2867D01*
X22811Y-2775D01*
X22741Y-2705D01*
X22729Y-2700D01*
X22741Y-2694D01*
X22811Y-2624D01*
X22850Y-2532D01*
X22850Y-2433D01*
X22850Y-2194D01*
X22884Y-2366D01*
X22981Y-2512D01*
X23127Y-2610D01*
X23300Y-2644D01*
X23472Y-2610D01*
X23618Y-2512D01*
X23715Y-2366D01*
X23750Y-2194D01*
X23750Y-1905D01*
X23715Y-1733D01*
X23618Y-1587D01*
X23472Y-1489D01*
X23300Y-1455D01*
X23127Y-1489D01*
X22981Y-1587D01*
X22884Y-1733D01*
X22850Y-1905D01*
X22850Y-1666D01*
X22850Y-1567D01*
X22811Y-1475D01*
X22741Y-1405D01*
X22649Y-1367D01*
X22412Y-1367D01*
X22350Y-1429D01*
X22350Y-2000D01*
X22357Y-2000D01*
X22357Y-2100D01*
X22350Y-2100D01*
X22350Y-2670D01*
X22379Y-2700D01*
X22350Y-2729D01*
X22350Y-3300D01*
X22357Y-3300D01*
X22357Y-3400D01*
X22350Y-3400D01*
X22350Y-3970D01*
X22412Y-4033D01*
X22649Y-4033D01*
X22741Y-3994D01*
X22811Y-3924D01*
X22850Y-3832D01*
X22850Y-3733D01*
X22850Y-3494D01*
X22884Y-3666D01*
X22981Y-3812D01*
X23127Y-3910D01*
X23300Y-3944D01*
X23472Y-3910D01*
X23618Y-3812D01*
X23715Y-3666D01*
X23750Y-3494D01*
X23750Y-6617D01*
X22250Y-5117D01*
X22250Y-3970D01*
X22250Y-3400D01*
X22250Y-3300D01*
X22250Y-2729D01*
X22220Y-2700D01*
X22250Y-2670D01*
X22250Y-2100D01*
X22250Y-2000D01*
X22250Y-1429D01*
X22187Y-1367D01*
X21950Y-1367D01*
X21858Y-1405D01*
X21788Y-1475D01*
X21750Y-1567D01*
X21750Y-1666D01*
X21750Y-1937D01*
X21812Y-2000D01*
X22250Y-2000D01*
X22250Y-2100D01*
X21812Y-2100D01*
X21750Y-2162D01*
X21750Y-2433D01*
X21750Y-2532D01*
X21788Y-2624D01*
X21858Y-2694D01*
X21870Y-2700D01*
X21858Y-2705D01*
X21788Y-2775D01*
X21750Y-2867D01*
X21750Y-2966D01*
X21750Y-3237D01*
X21812Y-3300D01*
X22250Y-3300D01*
X22250Y-3400D01*
X21812Y-3400D01*
X21750Y-3462D01*
X21750Y-3733D01*
X21750Y-3832D01*
X21788Y-3924D01*
X21858Y-3994D01*
X21950Y-4033D01*
X22187Y-4033D01*
X22250Y-3970D01*
X22250Y-5117D01*
X22141Y-5008D01*
X22076Y-4965D01*
X22000Y-4950D01*
X20443Y-4950D01*
X20443Y-892D01*
X20361Y-692D01*
X20208Y-539D01*
X20008Y-456D01*
X19792Y-456D01*
X19592Y-538D01*
X19439Y-691D01*
X19400Y-786D01*
X19361Y-692D01*
X19208Y-539D01*
X19008Y-456D01*
X18792Y-456D01*
X18592Y-538D01*
X18439Y-691D01*
X18356Y-891D01*
X18356Y-1107D01*
X18438Y-1307D01*
X18591Y-1460D01*
X18791Y-1543D01*
X19007Y-1543D01*
X19207Y-1461D01*
X19360Y-1308D01*
X19399Y-1213D01*
X19438Y-1307D01*
X19591Y-1460D01*
X19791Y-1543D01*
X20007Y-1543D01*
X20207Y-1461D01*
X20360Y-1308D01*
X20443Y-1108D01*
X20443Y-892D01*
X20443Y-4950D01*
X17933Y-4950D01*
X17933Y-692D01*
X17850Y-492D01*
X17698Y-339D01*
X17498Y-256D01*
X17282Y-256D01*
X17082Y-338D01*
X16929Y-491D01*
X16846Y-691D01*
X16845Y-907D01*
X16928Y-1107D01*
X17081Y-1260D01*
X17281Y-1343D01*
X17497Y-1343D01*
X17697Y-1261D01*
X17850Y-1108D01*
X17933Y-908D01*
X17933Y-692D01*
X17933Y-4950D01*
X14332Y-4950D01*
X13741Y-4358D01*
X13676Y-4315D01*
X13600Y-4300D01*
X13341Y-4300D01*
X13310Y-4225D01*
X13285Y-4200D01*
X15100Y-4200D01*
X15176Y-4184D01*
X15241Y-4141D01*
X16428Y-2954D01*
X16472Y-2889D01*
X16472Y-2889D01*
X16487Y-2812D01*
X16487Y-1199D01*
X16539Y-1177D01*
X16664Y-1052D01*
X16732Y-888D01*
X16732Y-711D01*
X16665Y-548D01*
X16539Y-422D01*
X16376Y-354D01*
X16199Y-354D01*
X16035Y-422D01*
X15910Y-547D01*
X15893Y-586D01*
X15877Y-548D01*
X15752Y-422D01*
X15588Y-354D01*
X15411Y-354D01*
X15248Y-422D01*
X15162Y-507D01*
X15095Y-488D01*
X15024Y-558D01*
X15024Y-417D01*
X14997Y-322D01*
X14793Y-249D01*
X14576Y-260D01*
X14427Y-322D01*
X14400Y-417D01*
X14712Y-729D01*
X15024Y-417D01*
X15024Y-558D01*
X14783Y-800D01*
X15095Y-1111D01*
X15162Y-1092D01*
X15247Y-1177D01*
X15411Y-1245D01*
X15588Y-1245D01*
X15751Y-1177D01*
X15877Y-1052D01*
X15893Y-1013D01*
X15909Y-1051D01*
X16034Y-1177D01*
X16087Y-1199D01*
X16087Y-2729D01*
X15024Y-3792D01*
X15024Y-1182D01*
X14712Y-870D01*
X14641Y-941D01*
X14641Y-800D01*
X14330Y-488D01*
X14235Y-514D01*
X14162Y-719D01*
X14173Y-936D01*
X14235Y-1085D01*
X14330Y-1111D01*
X14641Y-800D01*
X14641Y-941D01*
X14400Y-1182D01*
X14427Y-1277D01*
X14631Y-1350D01*
X14848Y-1339D01*
X14997Y-1277D01*
X15024Y-1182D01*
X15024Y-3792D01*
X15017Y-3800D01*
X14154Y-3800D01*
X14154Y-692D01*
X14071Y-492D01*
X13918Y-339D01*
X13718Y-256D01*
X13502Y-256D01*
X13302Y-338D01*
X13149Y-491D01*
X13066Y-691D01*
X13066Y-907D01*
X13149Y-1107D01*
X13301Y-1260D01*
X13501Y-1343D01*
X13717Y-1343D01*
X13917Y-1261D01*
X14070Y-1108D01*
X14153Y-908D01*
X14154Y-692D01*
X14154Y-3800D01*
X12700Y-3800D01*
X12623Y-3815D01*
X12558Y-3858D01*
X12258Y-4158D01*
X12252Y-4167D01*
X12174Y-4089D01*
X11996Y-4015D01*
X11804Y-4015D01*
X11625Y-4089D01*
X11489Y-4225D01*
X11415Y-4403D01*
X11415Y-4595D01*
X11489Y-4774D01*
X11625Y-4910D01*
X11803Y-4984D01*
X11995Y-4984D01*
X12174Y-4910D01*
X12200Y-4885D01*
X12200Y-5000D01*
X12215Y-5076D01*
X12258Y-5141D01*
X12446Y-5329D01*
X12415Y-5403D01*
X12415Y-5595D01*
X12446Y-5670D01*
X12048Y-6069D01*
X11675Y-6069D01*
X11620Y-6091D01*
X11577Y-6134D01*
X11555Y-6189D01*
X11555Y-6248D01*
X11555Y-6760D01*
X11556Y-6764D01*
X11493Y-6827D01*
X11455Y-6919D01*
X11455Y-7112D01*
X11517Y-7175D01*
X11950Y-7175D01*
X11950Y-7167D01*
X12050Y-7167D01*
X12050Y-7175D01*
X12057Y-7175D01*
X12057Y-7275D01*
X12050Y-7275D01*
X12050Y-7668D01*
X12112Y-7731D01*
X12245Y-7731D01*
X12344Y-7731D01*
X12436Y-7692D01*
X12449Y-7679D01*
X12489Y-7774D01*
X12625Y-7910D01*
X12803Y-7984D01*
X12995Y-7984D01*
X13174Y-7910D01*
X13310Y-7774D01*
X13384Y-7596D01*
X13384Y-7404D01*
X13353Y-7329D01*
X13482Y-7200D01*
X13514Y-7200D01*
X13489Y-7225D01*
X13415Y-7403D01*
X13415Y-7595D01*
X13489Y-7774D01*
X13625Y-7910D01*
X13803Y-7984D01*
X13995Y-7984D01*
X14174Y-7910D01*
X14310Y-7774D01*
X14341Y-7700D01*
X16550Y-7700D01*
X16626Y-7684D01*
X16691Y-7641D01*
X16815Y-7517D01*
X16815Y-7545D01*
X16889Y-7724D01*
X16914Y-7750D01*
X14450Y-7750D01*
X14386Y-7762D01*
X14373Y-7765D01*
X14308Y-7808D01*
X14070Y-8046D01*
X13996Y-8015D01*
X13804Y-8015D01*
X13625Y-8089D01*
X13489Y-8225D01*
X13415Y-8403D01*
X13415Y-8432D01*
X13382Y-8400D01*
X13310Y-8225D01*
X13174Y-8089D01*
X12996Y-8015D01*
X12804Y-8015D01*
X12625Y-8089D01*
X12489Y-8225D01*
X12415Y-8403D01*
X12415Y-8595D01*
X12489Y-8774D01*
X12625Y-8910D01*
X12803Y-8984D01*
X12995Y-8984D01*
X13174Y-8910D01*
X13251Y-8834D01*
X13558Y-9141D01*
X13623Y-9184D01*
X13623Y-9184D01*
X13636Y-9187D01*
X13663Y-9192D01*
X13900Y-9429D01*
X13905Y-9423D01*
X13976Y-9494D01*
X13970Y-9500D01*
X14310Y-9840D01*
X14409Y-9808D01*
X14489Y-9590D01*
X14478Y-9357D01*
X14409Y-9191D01*
X14310Y-9159D01*
X14320Y-9150D01*
X16914Y-9150D01*
X16889Y-9175D01*
X16815Y-9353D01*
X16815Y-9545D01*
X16889Y-9724D01*
X17025Y-9860D01*
X17203Y-9934D01*
X17395Y-9934D01*
X17574Y-9860D01*
X17710Y-9724D01*
X17784Y-9546D01*
X17784Y-9354D01*
X17710Y-9175D01*
X17685Y-9150D01*
X17914Y-9150D01*
X17889Y-9175D01*
X17815Y-9353D01*
X17815Y-9545D01*
X17889Y-9724D01*
X18025Y-9860D01*
X18203Y-9934D01*
X18395Y-9934D01*
X18522Y-9882D01*
X18539Y-9923D01*
X18600Y-9984D01*
X18600Y-10064D01*
X18574Y-10039D01*
X18396Y-9965D01*
X18204Y-9965D01*
X18025Y-10039D01*
X17889Y-10175D01*
X17815Y-10353D01*
X17815Y-10545D01*
X17846Y-10620D01*
X17717Y-10750D01*
X17685Y-10750D01*
X17710Y-10724D01*
X17784Y-10546D01*
X17784Y-10354D01*
X17710Y-10175D01*
X17574Y-10039D01*
X17396Y-9965D01*
X17204Y-9965D01*
X17025Y-10039D01*
X16889Y-10175D01*
X16815Y-10353D01*
X16815Y-10545D01*
X16889Y-10724D01*
X16914Y-10750D01*
X14489Y-10750D01*
X14432Y-10750D01*
X14353Y-10670D01*
X14384Y-10596D01*
X14384Y-10404D01*
X14310Y-10225D01*
X14174Y-10089D01*
X14095Y-10056D01*
X14208Y-10009D01*
X14240Y-9910D01*
X13900Y-9570D01*
X13559Y-9910D01*
X13591Y-10009D01*
X13711Y-10053D01*
X13625Y-10089D01*
X13547Y-10167D01*
X13541Y-10158D01*
X13241Y-9858D01*
X13232Y-9852D01*
X13310Y-9774D01*
X13343Y-9695D01*
X13390Y-9808D01*
X13489Y-9840D01*
X13829Y-9500D01*
X13489Y-9159D01*
X13390Y-9191D01*
X13346Y-9311D01*
X13310Y-9225D01*
X13174Y-9089D01*
X12996Y-9015D01*
X12804Y-9015D01*
X12625Y-9089D01*
X12489Y-9225D01*
X12481Y-9245D01*
X12481Y-8975D01*
X12458Y-8920D01*
X12415Y-8877D01*
X12360Y-8855D01*
X12301Y-8855D01*
X11950Y-8855D01*
X11950Y-7668D01*
X11950Y-7275D01*
X11517Y-7275D01*
X11455Y-7337D01*
X11455Y-7530D01*
X11493Y-7622D01*
X11563Y-7692D01*
X11655Y-7731D01*
X11754Y-7731D01*
X11887Y-7731D01*
X11950Y-7668D01*
X11950Y-8855D01*
X11789Y-8855D01*
X11785Y-8856D01*
X11722Y-8793D01*
X11630Y-8755D01*
X11437Y-8755D01*
X11375Y-8817D01*
X11375Y-9250D01*
X11382Y-9250D01*
X11382Y-9350D01*
X11375Y-9350D01*
X11375Y-9357D01*
X11275Y-9357D01*
X11275Y-9350D01*
X11275Y-9250D01*
X11275Y-8817D01*
X11212Y-8755D01*
X11019Y-8755D01*
X10927Y-8793D01*
X10857Y-8863D01*
X10819Y-8955D01*
X10819Y-9054D01*
X10819Y-9187D01*
X10881Y-9250D01*
X11275Y-9250D01*
X11275Y-9350D01*
X10881Y-9350D01*
X10819Y-9412D01*
X10819Y-9486D01*
X10650Y-9317D01*
X10650Y-7450D01*
X10634Y-7373D01*
X10591Y-7308D01*
X9600Y-6317D01*
X9600Y-5885D01*
X9625Y-5910D01*
X9803Y-5984D01*
X9995Y-5984D01*
X10174Y-5910D01*
X10310Y-5774D01*
X10384Y-5596D01*
X10384Y-5404D01*
X10310Y-5225D01*
X10285Y-5200D01*
X10514Y-5200D01*
X10489Y-5225D01*
X10415Y-5403D01*
X10415Y-5595D01*
X10489Y-5774D01*
X10625Y-5910D01*
X10803Y-5984D01*
X10995Y-5984D01*
X11174Y-5910D01*
X11310Y-5774D01*
X11384Y-5596D01*
X11384Y-5404D01*
X11310Y-5225D01*
X11285Y-5200D01*
X11317Y-5200D01*
X11446Y-5329D01*
X11415Y-5403D01*
X11415Y-5595D01*
X11489Y-5774D01*
X11625Y-5910D01*
X11803Y-5984D01*
X11995Y-5984D01*
X12174Y-5910D01*
X12310Y-5774D01*
X12384Y-5596D01*
X12384Y-5404D01*
X12310Y-5225D01*
X12174Y-5089D01*
X11996Y-5015D01*
X11804Y-5015D01*
X11729Y-5046D01*
X11541Y-4858D01*
X11476Y-4815D01*
X11400Y-4800D01*
X11285Y-4800D01*
X11310Y-4774D01*
X11384Y-4596D01*
X11384Y-4404D01*
X11310Y-4225D01*
X11174Y-4089D01*
X10996Y-4015D01*
X10804Y-4015D01*
X10625Y-4089D01*
X10489Y-4225D01*
X10415Y-4403D01*
X10415Y-4595D01*
X10489Y-4774D01*
X10514Y-4800D01*
X10285Y-4800D01*
X10310Y-4774D01*
X10384Y-4596D01*
X10384Y-4404D01*
X10310Y-4225D01*
X10174Y-4089D01*
X9996Y-4015D01*
X9804Y-4015D01*
X9625Y-4089D01*
X9489Y-4225D01*
X9415Y-4403D01*
X9415Y-4595D01*
X9489Y-4774D01*
X9567Y-4852D01*
X9558Y-4858D01*
X9258Y-5158D01*
X9252Y-5167D01*
X9174Y-5089D01*
X8996Y-5015D01*
X8804Y-5015D01*
X8729Y-5046D01*
X8600Y-4917D01*
X8600Y-4885D01*
X8625Y-4910D01*
X8803Y-4984D01*
X8995Y-4984D01*
X9174Y-4910D01*
X9310Y-4774D01*
X9384Y-4596D01*
X9384Y-4404D01*
X9310Y-4225D01*
X9174Y-4089D01*
X8996Y-4015D01*
X8804Y-4015D01*
X8625Y-4089D01*
X8547Y-4167D01*
X8541Y-4158D01*
X8241Y-3858D01*
X8176Y-3815D01*
X8100Y-3800D01*
X1950Y-3800D01*
X1886Y-3812D01*
X1873Y-3815D01*
X1808Y-3858D01*
X408Y-5258D01*
X365Y-5323D01*
X350Y-5400D01*
X350Y-13800D01*
X365Y-13876D01*
X408Y-13941D01*
X1876Y-15409D01*
X1850Y-15543D01*
X1850Y-15752D01*
X1884Y-15924D01*
X1981Y-16070D01*
X2127Y-16167D01*
X2300Y-16202D01*
X2472Y-16167D01*
X2618Y-16070D01*
X2715Y-15924D01*
X2750Y-15752D01*
X2750Y-15543D01*
X2715Y-15371D01*
X2618Y-15225D01*
X2472Y-15128D01*
X2313Y-15096D01*
X2350Y-15096D01*
X2350Y-15031D01*
X2435Y-15079D01*
X2471Y-15073D01*
X2659Y-14967D01*
X2793Y-14797D01*
X2851Y-14589D01*
X2789Y-14503D01*
X2850Y-14503D01*
X2850Y-14557D01*
X2884Y-14729D01*
X2981Y-14875D01*
X3127Y-14972D01*
X3300Y-15007D01*
X3472Y-14972D01*
X3509Y-14948D01*
X3492Y-14988D01*
X3492Y-15110D01*
X3510Y-15153D01*
X3472Y-15128D01*
X3300Y-15093D01*
X3127Y-15128D01*
X2981Y-15225D01*
X2884Y-15371D01*
X2851Y-15533D01*
X2850Y-15543D01*
X2850Y-15752D01*
X2884Y-15924D01*
X2981Y-16070D01*
X3127Y-16167D01*
X3300Y-16202D01*
X3472Y-16167D01*
X3618Y-16070D01*
X3648Y-16025D01*
X3658Y-16041D01*
X3958Y-16341D01*
X4023Y-16384D01*
X4100Y-16400D01*
X5800Y-16400D01*
X12500Y-16400D01*
X12576Y-16384D01*
X12641Y-16341D01*
X12941Y-16041D01*
X12951Y-16025D01*
X12981Y-16070D01*
X13127Y-16167D01*
X13300Y-16202D01*
X13472Y-16167D01*
X13618Y-16070D01*
X13715Y-15924D01*
X13750Y-15752D01*
X13750Y-15543D01*
X13715Y-15371D01*
X13618Y-15225D01*
X13472Y-15128D01*
X13374Y-15108D01*
X13441Y-15041D01*
X13484Y-14976D01*
X13484Y-14976D01*
X13487Y-14963D01*
X13487Y-14962D01*
X13600Y-14887D01*
X13600Y-15050D01*
X13615Y-15126D01*
X13658Y-15191D01*
X13876Y-15409D01*
X13850Y-15543D01*
X13850Y-15752D01*
X13884Y-15924D01*
X13981Y-16070D01*
X14127Y-16167D01*
X14300Y-16202D01*
X14472Y-16167D01*
X14618Y-16070D01*
X14715Y-15924D01*
X14750Y-15752D01*
X14750Y-15543D01*
X14715Y-15371D01*
X14618Y-15225D01*
X14472Y-15128D01*
X14300Y-15093D01*
X14155Y-15122D01*
X14000Y-14967D01*
X14000Y-14887D01*
X14127Y-14972D01*
X14300Y-15007D01*
X14472Y-14972D01*
X14600Y-14887D01*
X14600Y-15050D01*
X14615Y-15126D01*
X14658Y-15191D01*
X14876Y-15409D01*
X14850Y-15543D01*
X14850Y-15752D01*
X14884Y-15924D01*
X14981Y-16070D01*
X15127Y-16167D01*
X15300Y-16202D01*
X15472Y-16167D01*
X15618Y-16070D01*
X15715Y-15924D01*
X15750Y-15752D01*
X15750Y-15543D01*
X15715Y-15371D01*
X15618Y-15225D01*
X15472Y-15128D01*
X15300Y-15093D01*
X15155Y-15122D01*
X15000Y-14967D01*
X15000Y-14887D01*
X15127Y-14972D01*
X15300Y-15007D01*
X15472Y-14972D01*
X15595Y-14890D01*
X15595Y-15045D01*
X15611Y-15122D01*
X15654Y-15187D01*
X15876Y-15409D01*
X15850Y-15543D01*
X15850Y-15752D01*
X15884Y-15924D01*
X15981Y-16070D01*
X16127Y-16167D01*
X16300Y-16202D01*
X16472Y-16167D01*
X16618Y-16070D01*
X16715Y-15924D01*
X16750Y-15752D01*
X16750Y-15543D01*
X16715Y-15371D01*
X16618Y-15225D01*
X16472Y-15128D01*
X16300Y-15093D01*
X16155Y-15122D01*
X15995Y-14962D01*
X15995Y-14884D01*
X16127Y-14972D01*
X16300Y-15007D01*
X16472Y-14972D01*
X16600Y-14887D01*
X16600Y-15050D01*
X16615Y-15126D01*
X16658Y-15191D01*
X16876Y-15409D01*
X16850Y-15543D01*
X16850Y-15752D01*
X16884Y-15924D01*
X16981Y-16070D01*
X17127Y-16167D01*
X17300Y-16202D01*
X17394Y-16183D01*
X17392Y-16188D01*
X17392Y-16310D01*
X17439Y-16423D01*
X17525Y-16510D01*
X17638Y-16557D01*
X17732Y-16557D01*
X17732Y-16557D01*
X17773Y-16584D01*
X17773Y-16584D01*
X17786Y-16587D01*
X17850Y-16600D01*
X24600Y-16600D01*
X24676Y-16584D01*
X24741Y-16541D01*
X25120Y-16162D01*
X25127Y-16167D01*
X25300Y-16202D01*
X25472Y-16167D01*
X25618Y-16070D01*
X25715Y-15924D01*
X25750Y-15752D01*
X25750Y-15782D01*
X25748Y-15784D01*
X25806Y-15992D01*
X25940Y-16162D01*
X26128Y-16268D01*
X26164Y-16274D01*
X26250Y-16226D01*
X26250Y-16930D01*
X169Y-16930D01*
X169Y-169D01*
X28430Y-169D01*
X28430Y-16930D01*
M02*
