G04 (created by PCBNEW (2013-07-20 BZR 4243)-testing) date 23/04/2014 1:17:44 AM*
%MOIN*%
G04 Gerber Fmt 3.4, Leading zero omitted, Abs format*
%FSLAX34Y34*%
G01*
G70*
G90*
G04 APERTURE LIST*
%ADD10C,0.005906*%
%ADD11C,0.003937*%
%ADD12R,0.086600X0.063000*%
%ADD13R,0.060000X0.078700*%
%ADD14O,0.060000X0.078700*%
%ADD15R,0.059000X0.051200*%
%ADD16C,0.066900*%
%ADD17R,0.023600X0.039400*%
%ADD18R,0.060000X0.086600*%
%ADD19O,0.060000X0.086600*%
%ADD20R,0.078700X0.060000*%
%ADD21O,0.078700X0.060000*%
%ADD22C,0.078700*%
%ADD23R,0.086600X0.060000*%
%ADD24O,0.086600X0.060000*%
%ADD25C,0.059055*%
%ADD26C,0.078740*%
%ADD27C,0.031496*%
%ADD28C,0.010000*%
G04 APERTURE END LIST*
G54D10*
G54D11*
X0Y0D02*
X28600Y0D01*
X28600Y-17100D02*
X0Y-17100D01*
X0Y-17100D02*
X0Y0D01*
X28600Y0D02*
X28600Y-17100D01*
G54D12*
X2941Y-12100D03*
X1759Y-12100D03*
G54D13*
X26300Y-14452D03*
G54D14*
X26300Y-15648D03*
X25300Y-14453D03*
X25300Y-15648D03*
X24300Y-14453D03*
X24300Y-15648D03*
X23300Y-14453D03*
X23300Y-15648D03*
X22300Y-14453D03*
X22300Y-15648D03*
X21300Y-14453D03*
X21300Y-15648D03*
X20300Y-14453D03*
X20300Y-15648D03*
X19300Y-14453D03*
X19300Y-15648D03*
X18300Y-14453D03*
X18300Y-15648D03*
X17300Y-14453D03*
X17300Y-15648D03*
X16300Y-14453D03*
X16300Y-15648D03*
X15300Y-14453D03*
X15300Y-15648D03*
X14300Y-14453D03*
X14300Y-15648D03*
X13300Y-14453D03*
X13300Y-15648D03*
X12300Y-14453D03*
X12300Y-15648D03*
X11300Y-14453D03*
X11300Y-15648D03*
X10300Y-14453D03*
X10300Y-15648D03*
X9300Y-14453D03*
X9300Y-15648D03*
X8300Y-14453D03*
X8300Y-15648D03*
X7300Y-14453D03*
X7300Y-15648D03*
X6300Y-14453D03*
X6300Y-15648D03*
X5300Y-14453D03*
X5300Y-15648D03*
X4300Y-14453D03*
X4300Y-15648D03*
X3300Y-14453D03*
X3300Y-15648D03*
X2300Y-14453D03*
X2300Y-15648D03*
G54D15*
X4750Y-12525D03*
X4750Y-11775D03*
X19900Y-3025D03*
X19900Y-2275D03*
G54D16*
X23300Y-8450D03*
X22300Y-9450D03*
X22300Y-8450D03*
X23300Y-7450D03*
X22300Y-6450D03*
X22300Y-7450D03*
X21300Y-6450D03*
X21300Y-7450D03*
X20300Y-6450D03*
X20300Y-7450D03*
X19300Y-6450D03*
X19300Y-7450D03*
X18300Y-6450D03*
X17300Y-7450D03*
X18300Y-7450D03*
X17300Y-8450D03*
X18300Y-8450D03*
X17300Y-9450D03*
X18300Y-9450D03*
X17300Y-10450D03*
X18300Y-11450D03*
X18300Y-10450D03*
X19300Y-11450D03*
X19300Y-10450D03*
X20300Y-11450D03*
X20300Y-10450D03*
X21300Y-11450D03*
X23300Y-9450D03*
X21300Y-10450D03*
X22300Y-11450D03*
X23300Y-10450D03*
X22300Y-10450D03*
G54D15*
X25000Y-9475D03*
X25000Y-10225D03*
G54D17*
X4000Y-12583D03*
X4000Y-11717D03*
G54D18*
X22300Y-2050D03*
G54D19*
X23300Y-2050D03*
X24300Y-2050D03*
G54D18*
X22300Y-3350D03*
G54D19*
X23300Y-3350D03*
X24300Y-3350D03*
G54D16*
X9900Y-4500D03*
X10900Y-5500D03*
X9900Y-5500D03*
X8900Y-4500D03*
X8900Y-5500D03*
X7900Y-4500D03*
X6900Y-5500D03*
X7900Y-5500D03*
X6900Y-6500D03*
X7900Y-6500D03*
X6900Y-7500D03*
X7900Y-7500D03*
X6900Y-8500D03*
X7900Y-8500D03*
X6900Y-9500D03*
X7900Y-9500D03*
X6900Y-10500D03*
X7900Y-11500D03*
X7900Y-10500D03*
X8900Y-11500D03*
X8900Y-10500D03*
X9900Y-11500D03*
X9900Y-10500D03*
X10900Y-11500D03*
X10900Y-10500D03*
X11900Y-11500D03*
X11900Y-10500D03*
X12900Y-9500D03*
X12900Y-11500D03*
X13900Y-10500D03*
X12900Y-10500D03*
X13900Y-9500D03*
X13900Y-8500D03*
X12900Y-8500D03*
X13900Y-7500D03*
X12900Y-7500D03*
X13900Y-6500D03*
X12900Y-6500D03*
X13900Y-5500D03*
X12900Y-4500D03*
X12900Y-5500D03*
X11900Y-4500D03*
X11900Y-5500D03*
X10900Y-4500D03*
G54D17*
X2050Y-9583D03*
X2050Y-8717D03*
X2950Y-9583D03*
X2950Y-8717D03*
G54D20*
X2598Y-7050D03*
G54D21*
X1402Y-7050D03*
X2598Y-6050D03*
X1402Y-6050D03*
G54D15*
X1300Y-10325D03*
X1300Y-9575D03*
G54D22*
X18900Y-1000D03*
X19900Y-1000D03*
G54D23*
X4650Y-10000D03*
G54D24*
X4650Y-9000D03*
X4650Y-8000D03*
X4650Y-7000D03*
X4650Y-6000D03*
X4650Y-5000D03*
G54D25*
X15500Y-800D03*
X14712Y-800D03*
X16287Y-800D03*
G54D26*
X13610Y-800D03*
X17389Y-800D03*
G54D15*
X18900Y-2275D03*
X18900Y-3025D03*
G54D27*
X8700Y-8500D03*
X18800Y-9750D03*
X8700Y-8000D03*
X21250Y-12450D03*
X23250Y-12450D03*
X17800Y-13750D03*
X17700Y-16250D03*
X19800Y-9750D03*
X19750Y-12100D03*
X20550Y-9900D03*
X24600Y-12900D03*
X24500Y-11850D03*
X23800Y-14900D03*
X23750Y-12300D03*
X22250Y-12450D03*
X2050Y-8100D03*
X7800Y-15050D03*
X8700Y-9050D03*
X7300Y-12600D03*
X9450Y-12450D03*
X18400Y-12900D03*
X15000Y-11250D03*
X15050Y-8450D03*
X3800Y-15050D03*
X5800Y-14000D03*
X24350Y-9450D03*
G54D28*
X9200Y-8000D02*
X15750Y-8000D01*
X8700Y-8500D02*
X9200Y-8000D01*
X19300Y-7450D02*
X18800Y-6950D01*
X18800Y-6950D02*
X18800Y-6250D01*
X18800Y-6250D02*
X18500Y-5950D01*
X18500Y-5950D02*
X17800Y-5950D01*
X17800Y-5950D02*
X15750Y-8000D01*
X19300Y-9250D02*
X19300Y-7450D01*
X18800Y-9750D02*
X19300Y-9250D01*
X18300Y-14550D02*
X18300Y-13800D01*
X19300Y-6750D02*
X19800Y-7250D01*
X19800Y-7250D02*
X19800Y-9200D01*
X19800Y-9200D02*
X18800Y-10200D01*
X18800Y-10200D02*
X18800Y-11650D01*
X19300Y-6750D02*
X19300Y-6450D01*
X17950Y-12500D02*
X18800Y-11650D01*
X17950Y-13450D02*
X17950Y-12500D01*
X18300Y-13800D02*
X17950Y-13450D01*
X9700Y-7000D02*
X16450Y-7000D01*
X8700Y-8000D02*
X9700Y-7000D01*
X19300Y-6450D02*
X18600Y-5750D01*
X18600Y-5750D02*
X17700Y-5750D01*
X17700Y-5750D02*
X16450Y-7000D01*
X21250Y-12450D02*
X21200Y-12400D01*
X19300Y-11450D02*
X19300Y-12100D01*
X19600Y-12400D02*
X21200Y-12400D01*
X19300Y-12100D02*
X19600Y-12400D01*
X21000Y-12150D02*
X21400Y-12150D01*
X21400Y-12150D02*
X22000Y-12750D01*
X22000Y-12750D02*
X22400Y-12750D01*
X22400Y-12750D02*
X22700Y-12450D01*
X22700Y-12450D02*
X23250Y-12450D01*
X21000Y-12150D02*
X20300Y-11450D01*
X24800Y-14050D02*
X25000Y-13850D01*
X25000Y-13850D02*
X25000Y-11600D01*
X24800Y-14700D02*
X24800Y-14050D01*
X24000Y-8150D02*
X23300Y-7450D01*
X25000Y-11600D02*
X24000Y-10600D01*
X24000Y-10600D02*
X24000Y-8150D01*
X24300Y-15550D02*
X24300Y-15200D01*
X24300Y-15200D02*
X24800Y-14700D01*
X17800Y-16150D02*
X17800Y-13750D01*
X17700Y-16250D02*
X17800Y-16150D01*
X20300Y-7450D02*
X20300Y-9250D01*
X20300Y-9250D02*
X19800Y-9750D01*
X20300Y-6450D02*
X20300Y-6750D01*
X19800Y-12050D02*
X19750Y-12100D01*
X19800Y-10200D02*
X19800Y-12050D01*
X20800Y-9200D02*
X19800Y-10200D01*
X20800Y-7250D02*
X20800Y-9200D01*
X20300Y-6750D02*
X20800Y-7250D01*
X21300Y-9250D02*
X20650Y-9900D01*
X21300Y-7450D02*
X21300Y-9250D01*
X20650Y-9900D02*
X20550Y-9900D01*
X21300Y-6450D02*
X21800Y-6950D01*
X20450Y-14550D02*
X20300Y-14550D01*
X23750Y-12950D02*
X22050Y-12950D01*
X22050Y-12950D02*
X20450Y-14550D01*
X24050Y-12650D02*
X23750Y-12950D01*
X24050Y-11850D02*
X24050Y-12650D01*
X23950Y-11750D02*
X24050Y-11850D01*
X23300Y-11750D02*
X23950Y-11750D01*
X22500Y-10950D02*
X23300Y-11750D01*
X22100Y-10950D02*
X22500Y-10950D01*
X21800Y-10650D02*
X22100Y-10950D01*
X21800Y-6950D02*
X21800Y-10650D01*
X23100Y-10950D02*
X23600Y-10950D01*
X23600Y-10950D02*
X24500Y-11850D01*
X21300Y-15550D02*
X21800Y-15050D01*
X21800Y-13800D02*
X22250Y-13350D01*
X22250Y-13350D02*
X24150Y-13350D01*
X24150Y-13350D02*
X24600Y-12900D01*
X21800Y-15050D02*
X21800Y-13800D01*
X22800Y-8250D02*
X22800Y-10650D01*
X22800Y-10650D02*
X23100Y-10950D01*
X22300Y-7750D02*
X22800Y-8250D01*
X22300Y-7750D02*
X22300Y-7450D01*
X23800Y-8250D02*
X23500Y-7950D01*
X21300Y-14550D02*
X21300Y-14000D01*
X23800Y-10700D02*
X23800Y-8250D01*
X24800Y-11700D02*
X23800Y-10700D01*
X24800Y-12250D02*
X24800Y-11700D01*
X23900Y-13150D02*
X24800Y-12250D01*
X22150Y-13150D02*
X23900Y-13150D01*
X21300Y-14000D02*
X22150Y-13150D01*
X22300Y-6750D02*
X22800Y-7250D01*
X22300Y-6450D02*
X22300Y-6750D01*
X23100Y-7950D02*
X23500Y-7950D01*
X22800Y-7650D02*
X23100Y-7950D01*
X22800Y-7250D02*
X22800Y-7650D01*
X22800Y-15050D02*
X23650Y-15050D01*
X23650Y-15050D02*
X23800Y-14900D01*
X22300Y-15550D02*
X22800Y-15050D01*
X22000Y-12150D02*
X21300Y-11450D01*
X23750Y-12300D02*
X23600Y-12150D01*
X23600Y-12150D02*
X22000Y-12150D01*
X20800Y-11650D02*
X20800Y-10950D01*
X20800Y-10950D02*
X20300Y-10450D01*
X21500Y-11950D02*
X21100Y-11950D01*
X21100Y-11950D02*
X20800Y-11650D01*
X22000Y-12450D02*
X22250Y-12450D01*
X21500Y-11950D02*
X22000Y-12450D01*
X2100Y-16200D02*
X850Y-14950D01*
X14300Y-15650D02*
X13750Y-16200D01*
X13750Y-16200D02*
X2100Y-16200D01*
X14300Y-15550D02*
X14300Y-15650D01*
X850Y-6700D02*
X1500Y-6050D01*
X850Y-14950D02*
X850Y-6700D01*
X14300Y-15550D02*
X13800Y-15050D01*
X13800Y-14200D02*
X14100Y-13900D01*
X13800Y-15050D02*
X13800Y-14200D01*
X14500Y-13900D02*
X15800Y-12600D01*
X14100Y-13900D02*
X14500Y-13900D01*
X15800Y-12600D02*
X15800Y-8250D01*
X15800Y-8250D02*
X17600Y-6450D01*
X18300Y-6450D02*
X17600Y-6450D01*
X14300Y-14400D02*
X16000Y-12700D01*
X16000Y-12700D02*
X16000Y-8500D01*
X14300Y-14550D02*
X14300Y-14400D01*
X17050Y-7450D02*
X17300Y-7450D01*
X16000Y-8500D02*
X17050Y-7450D01*
X15300Y-15550D02*
X14800Y-15050D01*
X14800Y-15050D02*
X14800Y-14200D01*
X14800Y-14200D02*
X16200Y-12800D01*
X16200Y-12800D02*
X16200Y-8600D01*
X17800Y-7950D02*
X18300Y-7450D01*
X16200Y-8600D02*
X16850Y-7950D01*
X16850Y-7950D02*
X17800Y-7950D01*
X15300Y-14550D02*
X15300Y-14000D01*
X16400Y-12900D02*
X16400Y-9650D01*
X15300Y-14000D02*
X16400Y-12900D01*
X17800Y-8950D02*
X18300Y-8450D01*
X16400Y-9650D02*
X17100Y-8950D01*
X17100Y-8950D02*
X17800Y-8950D01*
X16300Y-15550D02*
X15800Y-15050D01*
X15800Y-15050D02*
X15800Y-13800D01*
X16600Y-13000D02*
X16600Y-10150D01*
X15800Y-13800D02*
X16600Y-13000D01*
X16600Y-10150D02*
X17300Y-9450D01*
X16300Y-14550D02*
X16300Y-13600D01*
X16800Y-13100D02*
X16800Y-10250D01*
X16300Y-13600D02*
X16800Y-13100D01*
X17800Y-9950D02*
X18300Y-9450D01*
X16800Y-10250D02*
X17100Y-9950D01*
X17100Y-9950D02*
X17800Y-9950D01*
X17300Y-15550D02*
X16800Y-15050D01*
X16800Y-15050D02*
X16800Y-13400D01*
X16800Y-13400D02*
X17000Y-13200D01*
X17000Y-13200D02*
X17000Y-10750D01*
X17000Y-10750D02*
X17300Y-10450D01*
X17300Y-14550D02*
X17300Y-13800D01*
X18300Y-11850D02*
X18300Y-11450D01*
X17750Y-12400D02*
X18300Y-11850D01*
X17750Y-13350D02*
X17750Y-12400D01*
X17300Y-13800D02*
X17750Y-13350D01*
X11600Y-3800D02*
X20900Y-3800D01*
X10900Y-4500D02*
X11600Y-3800D01*
X23300Y-2600D02*
X23300Y-2050D01*
X23200Y-2700D02*
X23300Y-2600D01*
X22000Y-2700D02*
X23200Y-2700D01*
X20900Y-3800D02*
X22000Y-2700D01*
X12400Y-4000D02*
X23100Y-4000D01*
X11900Y-4500D02*
X12400Y-4000D01*
X23300Y-3800D02*
X23300Y-3350D01*
X23100Y-4000D02*
X23300Y-3800D01*
X4000Y-11717D02*
X4000Y-11050D01*
X5650Y-8750D02*
X6400Y-8000D01*
X5650Y-10550D02*
X5650Y-8750D01*
X5350Y-10850D02*
X5650Y-10550D01*
X4200Y-10850D02*
X5350Y-10850D01*
X4000Y-11050D02*
X4200Y-10850D01*
X4000Y-11717D02*
X4692Y-11717D01*
X4692Y-11717D02*
X4750Y-11775D01*
X6400Y-7000D02*
X6900Y-6500D01*
X6400Y-8000D02*
X6400Y-7000D01*
X8600Y-13700D02*
X6500Y-13700D01*
X6050Y-9350D02*
X6900Y-8500D01*
X6050Y-13250D02*
X6050Y-9350D01*
X6500Y-13700D02*
X6050Y-13250D01*
X10600Y-13850D02*
X8750Y-13850D01*
X8750Y-13850D02*
X8600Y-13700D01*
X11300Y-14550D02*
X10600Y-13850D01*
X2050Y-8717D02*
X2050Y-8100D01*
X8700Y-13500D02*
X6600Y-13500D01*
X6700Y-9000D02*
X7400Y-9000D01*
X6250Y-9450D02*
X6700Y-9000D01*
X6250Y-13150D02*
X6250Y-9450D01*
X6600Y-13500D02*
X6250Y-13150D01*
X12250Y-13650D02*
X8850Y-13650D01*
X8850Y-13650D02*
X8700Y-13500D01*
X7400Y-9000D02*
X7900Y-8500D01*
X13300Y-15550D02*
X13300Y-15200D01*
X12800Y-14200D02*
X12250Y-13650D01*
X12800Y-14700D02*
X12800Y-14200D01*
X13300Y-15200D02*
X12800Y-14700D01*
X3167Y-8500D02*
X4950Y-8500D01*
X4950Y-8500D02*
X5450Y-9000D01*
X3550Y-10950D02*
X3550Y-12950D01*
X3850Y-10650D02*
X3550Y-10950D01*
X5250Y-10650D02*
X3850Y-10650D01*
X5450Y-10450D02*
X5250Y-10650D01*
X5450Y-9000D02*
X5450Y-10450D01*
X2950Y-8717D02*
X3167Y-8500D01*
X4800Y-14200D02*
X3550Y-12950D01*
X4800Y-14700D02*
X4800Y-14200D01*
X5150Y-15050D02*
X4800Y-14700D01*
X7800Y-15050D02*
X5150Y-15050D01*
X18900Y-2275D02*
X18900Y-1000D01*
X15500Y-1550D02*
X18350Y-1550D01*
X18350Y-1550D02*
X18900Y-1000D01*
X14100Y-3600D02*
X15500Y-2200D01*
X10800Y-3600D02*
X14100Y-3600D01*
X9900Y-4500D02*
X10800Y-3600D01*
X15500Y-2200D02*
X15500Y-1550D01*
X15500Y-1550D02*
X15500Y-800D01*
X12900Y-8500D02*
X9250Y-8500D01*
X9250Y-8500D02*
X8700Y-9050D01*
X5854Y-8845D02*
X5854Y-13354D01*
X5854Y-13354D02*
X6400Y-13900D01*
X8500Y-13900D02*
X6400Y-13900D01*
X9950Y-14550D02*
X9500Y-15000D01*
X9500Y-15000D02*
X9100Y-15000D01*
X9100Y-15000D02*
X8800Y-14700D01*
X10300Y-14550D02*
X9950Y-14550D01*
X8800Y-14200D02*
X8500Y-13900D01*
X8800Y-14700D02*
X8800Y-14200D01*
X5854Y-8845D02*
X6700Y-8000D01*
X7900Y-7500D02*
X7400Y-8000D01*
X7400Y-8000D02*
X6700Y-8000D01*
X7300Y-12600D02*
X9300Y-12600D01*
X9300Y-12600D02*
X9450Y-12450D01*
X18800Y-13300D02*
X18400Y-12900D01*
X18800Y-16100D02*
X18800Y-13300D01*
X19250Y-16550D02*
X18800Y-16100D01*
X26050Y-16550D02*
X19250Y-16550D01*
X26300Y-16300D02*
X26050Y-16550D01*
X26300Y-15550D02*
X26300Y-16300D01*
X15000Y-10600D02*
X13900Y-9500D01*
X15000Y-11250D02*
X15000Y-10600D01*
X22900Y-1000D02*
X22050Y-150D01*
X15362Y-150D02*
X14712Y-800D01*
X22050Y-150D02*
X15362Y-150D01*
X18900Y-3025D02*
X19900Y-3025D01*
X22300Y-2050D02*
X22300Y-1600D01*
X27350Y-3000D02*
X27350Y-13550D01*
X25350Y-1000D02*
X27350Y-3000D01*
X22900Y-1000D02*
X25350Y-1000D01*
X22300Y-1600D02*
X22900Y-1000D01*
X26300Y-15550D02*
X27050Y-15550D01*
X27050Y-15550D02*
X27350Y-15250D01*
X27350Y-15250D02*
X27350Y-13550D01*
X27350Y-13550D02*
X25000Y-11200D01*
X25000Y-10225D02*
X25000Y-11200D01*
X2900Y-10000D02*
X4650Y-10000D01*
X2300Y-14550D02*
X1759Y-14009D01*
X19900Y-3025D02*
X21375Y-3025D01*
X22300Y-2100D02*
X22300Y-2050D01*
X21375Y-3025D02*
X22300Y-2100D01*
X13900Y-9500D02*
X13400Y-10000D01*
X10400Y-11000D02*
X9900Y-10500D01*
X13250Y-11000D02*
X10400Y-11000D01*
X13400Y-10850D02*
X13250Y-11000D01*
X13400Y-10000D02*
X13400Y-10850D01*
X13900Y-9500D02*
X14000Y-9500D01*
X14000Y-9500D02*
X15050Y-8450D01*
X1759Y-12100D02*
X1759Y-11141D01*
X1759Y-11141D02*
X2900Y-10000D01*
X1759Y-14009D02*
X1759Y-12100D01*
X1750Y-12091D02*
X1759Y-12100D01*
X4000Y-12583D02*
X5300Y-13883D01*
X5300Y-13883D02*
X5300Y-14550D01*
X1300Y-9575D02*
X1300Y-7250D01*
X1300Y-7250D02*
X1500Y-7050D01*
X2950Y-9583D02*
X2050Y-9583D01*
X2050Y-9583D02*
X2042Y-9575D01*
X2042Y-9575D02*
X1300Y-9575D01*
X4650Y-8000D02*
X3450Y-8000D01*
X3450Y-8000D02*
X2500Y-7050D01*
X2500Y-6050D02*
X3600Y-6050D01*
X3600Y-6050D02*
X4650Y-5000D01*
X19900Y-2275D02*
X19900Y-1000D01*
X3800Y-15050D02*
X3800Y-14050D01*
X3800Y-14050D02*
X2941Y-13191D01*
X2941Y-13191D02*
X2941Y-12100D01*
X1300Y-10325D02*
X1150Y-10475D01*
X1150Y-10475D02*
X1150Y-14050D01*
X1150Y-14050D02*
X2150Y-15050D01*
X2150Y-15050D02*
X3800Y-15050D01*
X2941Y-12100D02*
X2941Y-11259D01*
X3750Y-10450D02*
X5150Y-10450D01*
X5150Y-10450D02*
X5250Y-10350D01*
X5250Y-10350D02*
X5250Y-9600D01*
X5250Y-9600D02*
X4650Y-9000D01*
X2941Y-11259D02*
X3750Y-10450D01*
X5800Y-14000D02*
X4750Y-12950D01*
X4750Y-12950D02*
X4750Y-12525D01*
X22100Y-4950D02*
X23350Y-4950D01*
X24300Y-4000D02*
X24300Y-3350D01*
X23350Y-4950D02*
X24300Y-4000D01*
X24300Y-2050D02*
X24300Y-3350D01*
X8900Y-10500D02*
X9900Y-9500D01*
X9900Y-9500D02*
X12900Y-9500D01*
X8400Y-6450D02*
X8400Y-10000D01*
X8850Y-6000D02*
X12400Y-6000D01*
X8400Y-6450D02*
X8850Y-6000D01*
X8400Y-10000D02*
X8900Y-10500D01*
X12900Y-5500D02*
X12400Y-6000D01*
X24375Y-9475D02*
X25000Y-9475D01*
X24350Y-9450D02*
X24375Y-9475D01*
X12900Y-5500D02*
X13450Y-4950D01*
X25000Y-7850D02*
X25000Y-9475D01*
X22100Y-4950D02*
X25000Y-7850D01*
X13450Y-4950D02*
X22100Y-4950D01*
X8900Y-10500D02*
X9400Y-11000D01*
X13300Y-14050D02*
X13300Y-14550D01*
X12600Y-13350D02*
X13300Y-14050D01*
X11000Y-13350D02*
X12600Y-13350D01*
X9400Y-11750D02*
X11000Y-13350D01*
X9400Y-11000D02*
X9400Y-11750D01*
G54D10*
G36*
X10817Y-13450D02*
X8932Y-13450D01*
X8841Y-13358D01*
X8776Y-13315D01*
X8700Y-13300D01*
X8384Y-13300D01*
X8384Y-11404D01*
X8384Y-10404D01*
X8310Y-10225D01*
X8174Y-10089D01*
X7996Y-10015D01*
X7804Y-10015D01*
X7625Y-10089D01*
X7489Y-10225D01*
X7415Y-10403D01*
X7415Y-10595D01*
X7489Y-10774D01*
X7625Y-10910D01*
X7803Y-10984D01*
X7995Y-10984D01*
X8174Y-10910D01*
X8310Y-10774D01*
X8384Y-10596D01*
X8384Y-10404D01*
X8384Y-11404D01*
X8310Y-11225D01*
X8174Y-11089D01*
X7996Y-11015D01*
X7804Y-11015D01*
X7625Y-11089D01*
X7489Y-11225D01*
X7415Y-11403D01*
X7415Y-11595D01*
X7489Y-11774D01*
X7625Y-11910D01*
X7803Y-11984D01*
X7995Y-11984D01*
X8174Y-11910D01*
X8310Y-11774D01*
X8384Y-11596D01*
X8384Y-11404D01*
X8384Y-13300D01*
X6682Y-13300D01*
X6450Y-13067D01*
X6450Y-10679D01*
X6489Y-10774D01*
X6625Y-10910D01*
X6803Y-10984D01*
X6995Y-10984D01*
X7174Y-10910D01*
X7310Y-10774D01*
X7384Y-10596D01*
X7384Y-10404D01*
X7310Y-10225D01*
X7174Y-10089D01*
X6996Y-10015D01*
X6804Y-10015D01*
X6625Y-10089D01*
X6489Y-10225D01*
X6450Y-10320D01*
X6450Y-9679D01*
X6489Y-9774D01*
X6625Y-9910D01*
X6803Y-9984D01*
X6995Y-9984D01*
X7174Y-9910D01*
X7310Y-9774D01*
X7384Y-9596D01*
X7384Y-9404D01*
X7310Y-9225D01*
X7285Y-9200D01*
X7400Y-9200D01*
X7476Y-9184D01*
X7541Y-9141D01*
X7729Y-8953D01*
X7803Y-8984D01*
X7995Y-8984D01*
X8174Y-8910D01*
X8200Y-8885D01*
X8200Y-9114D01*
X8174Y-9089D01*
X7996Y-9015D01*
X7804Y-9015D01*
X7625Y-9089D01*
X7489Y-9225D01*
X7415Y-9403D01*
X7415Y-9595D01*
X7489Y-9774D01*
X7625Y-9910D01*
X7803Y-9984D01*
X7995Y-9984D01*
X8174Y-9910D01*
X8200Y-9885D01*
X8200Y-10000D01*
X8215Y-10076D01*
X8258Y-10141D01*
X8446Y-10329D01*
X8415Y-10403D01*
X8415Y-10595D01*
X8489Y-10774D01*
X8625Y-10910D01*
X8803Y-10984D01*
X8995Y-10984D01*
X9070Y-10953D01*
X9200Y-11082D01*
X9200Y-11114D01*
X9174Y-11089D01*
X8996Y-11015D01*
X8804Y-11015D01*
X8625Y-11089D01*
X8489Y-11225D01*
X8415Y-11403D01*
X8415Y-11595D01*
X8489Y-11774D01*
X8625Y-11910D01*
X8803Y-11984D01*
X8995Y-11984D01*
X9174Y-11910D01*
X9232Y-11852D01*
X9258Y-11891D01*
X10817Y-13450D01*
X10817Y-13450D01*
G37*
G54D28*
X10817Y-13450D02*
X8932Y-13450D01*
X8841Y-13358D01*
X8776Y-13315D01*
X8700Y-13300D01*
X8384Y-13300D01*
X8384Y-11404D01*
X8384Y-10404D01*
X8310Y-10225D01*
X8174Y-10089D01*
X7996Y-10015D01*
X7804Y-10015D01*
X7625Y-10089D01*
X7489Y-10225D01*
X7415Y-10403D01*
X7415Y-10595D01*
X7489Y-10774D01*
X7625Y-10910D01*
X7803Y-10984D01*
X7995Y-10984D01*
X8174Y-10910D01*
X8310Y-10774D01*
X8384Y-10596D01*
X8384Y-10404D01*
X8384Y-11404D01*
X8310Y-11225D01*
X8174Y-11089D01*
X7996Y-11015D01*
X7804Y-11015D01*
X7625Y-11089D01*
X7489Y-11225D01*
X7415Y-11403D01*
X7415Y-11595D01*
X7489Y-11774D01*
X7625Y-11910D01*
X7803Y-11984D01*
X7995Y-11984D01*
X8174Y-11910D01*
X8310Y-11774D01*
X8384Y-11596D01*
X8384Y-11404D01*
X8384Y-13300D01*
X6682Y-13300D01*
X6450Y-13067D01*
X6450Y-10679D01*
X6489Y-10774D01*
X6625Y-10910D01*
X6803Y-10984D01*
X6995Y-10984D01*
X7174Y-10910D01*
X7310Y-10774D01*
X7384Y-10596D01*
X7384Y-10404D01*
X7310Y-10225D01*
X7174Y-10089D01*
X6996Y-10015D01*
X6804Y-10015D01*
X6625Y-10089D01*
X6489Y-10225D01*
X6450Y-10320D01*
X6450Y-9679D01*
X6489Y-9774D01*
X6625Y-9910D01*
X6803Y-9984D01*
X6995Y-9984D01*
X7174Y-9910D01*
X7310Y-9774D01*
X7384Y-9596D01*
X7384Y-9404D01*
X7310Y-9225D01*
X7285Y-9200D01*
X7400Y-9200D01*
X7476Y-9184D01*
X7541Y-9141D01*
X7729Y-8953D01*
X7803Y-8984D01*
X7995Y-8984D01*
X8174Y-8910D01*
X8200Y-8885D01*
X8200Y-9114D01*
X8174Y-9089D01*
X7996Y-9015D01*
X7804Y-9015D01*
X7625Y-9089D01*
X7489Y-9225D01*
X7415Y-9403D01*
X7415Y-9595D01*
X7489Y-9774D01*
X7625Y-9910D01*
X7803Y-9984D01*
X7995Y-9984D01*
X8174Y-9910D01*
X8200Y-9885D01*
X8200Y-10000D01*
X8215Y-10076D01*
X8258Y-10141D01*
X8446Y-10329D01*
X8415Y-10403D01*
X8415Y-10595D01*
X8489Y-10774D01*
X8625Y-10910D01*
X8803Y-10984D01*
X8995Y-10984D01*
X9070Y-10953D01*
X9200Y-11082D01*
X9200Y-11114D01*
X9174Y-11089D01*
X8996Y-11015D01*
X8804Y-11015D01*
X8625Y-11089D01*
X8489Y-11225D01*
X8415Y-11403D01*
X8415Y-11595D01*
X8489Y-11774D01*
X8625Y-11910D01*
X8803Y-11984D01*
X8995Y-11984D01*
X9174Y-11910D01*
X9232Y-11852D01*
X9258Y-11891D01*
X10817Y-13450D01*
G54D10*
G36*
X15609Y-8200D02*
X15600Y-8250D01*
X15600Y-12517D01*
X14489Y-13628D01*
X14489Y-9590D01*
X14478Y-9357D01*
X14409Y-9191D01*
X14310Y-9159D01*
X13970Y-9500D01*
X14310Y-9840D01*
X14409Y-9808D01*
X14489Y-9590D01*
X14489Y-13628D01*
X14417Y-13700D01*
X14384Y-13700D01*
X14384Y-10404D01*
X14310Y-10225D01*
X14174Y-10089D01*
X14095Y-10056D01*
X14208Y-10009D01*
X14240Y-9910D01*
X13900Y-9570D01*
X13559Y-9910D01*
X13591Y-10009D01*
X13711Y-10053D01*
X13625Y-10089D01*
X13489Y-10225D01*
X13415Y-10403D01*
X13415Y-10595D01*
X13489Y-10774D01*
X13625Y-10910D01*
X13803Y-10984D01*
X13995Y-10984D01*
X14174Y-10910D01*
X14310Y-10774D01*
X14384Y-10596D01*
X14384Y-10404D01*
X14384Y-13700D01*
X14100Y-13700D01*
X14023Y-13715D01*
X13958Y-13758D01*
X13658Y-14058D01*
X13647Y-14074D01*
X13618Y-14030D01*
X13472Y-13933D01*
X13455Y-13929D01*
X13441Y-13908D01*
X13384Y-13851D01*
X13384Y-11404D01*
X13384Y-10404D01*
X13310Y-10225D01*
X13174Y-10089D01*
X12996Y-10015D01*
X12804Y-10015D01*
X12625Y-10089D01*
X12489Y-10225D01*
X12415Y-10403D01*
X12415Y-10595D01*
X12489Y-10774D01*
X12625Y-10910D01*
X12803Y-10984D01*
X12995Y-10984D01*
X13174Y-10910D01*
X13310Y-10774D01*
X13384Y-10596D01*
X13384Y-10404D01*
X13384Y-11404D01*
X13310Y-11225D01*
X13174Y-11089D01*
X12996Y-11015D01*
X12804Y-11015D01*
X12625Y-11089D01*
X12489Y-11225D01*
X12415Y-11403D01*
X12415Y-11595D01*
X12489Y-11774D01*
X12625Y-11910D01*
X12803Y-11984D01*
X12995Y-11984D01*
X13174Y-11910D01*
X13310Y-11774D01*
X13384Y-11596D01*
X13384Y-11404D01*
X13384Y-13851D01*
X12741Y-13208D01*
X12676Y-13165D01*
X12600Y-13150D01*
X12384Y-13150D01*
X12384Y-11404D01*
X12384Y-10404D01*
X12310Y-10225D01*
X12174Y-10089D01*
X11996Y-10015D01*
X11804Y-10015D01*
X11625Y-10089D01*
X11489Y-10225D01*
X11415Y-10403D01*
X11415Y-10595D01*
X11489Y-10774D01*
X11625Y-10910D01*
X11803Y-10984D01*
X11995Y-10984D01*
X12174Y-10910D01*
X12310Y-10774D01*
X12384Y-10596D01*
X12384Y-10404D01*
X12384Y-11404D01*
X12310Y-11225D01*
X12174Y-11089D01*
X11996Y-11015D01*
X11804Y-11015D01*
X11625Y-11089D01*
X11489Y-11225D01*
X11415Y-11403D01*
X11415Y-11595D01*
X11489Y-11774D01*
X11625Y-11910D01*
X11803Y-11984D01*
X11995Y-11984D01*
X12174Y-11910D01*
X12310Y-11774D01*
X12384Y-11596D01*
X12384Y-11404D01*
X12384Y-13150D01*
X11384Y-13150D01*
X11384Y-11404D01*
X11384Y-10404D01*
X11310Y-10225D01*
X11174Y-10089D01*
X10996Y-10015D01*
X10804Y-10015D01*
X10625Y-10089D01*
X10489Y-10225D01*
X10456Y-10304D01*
X10409Y-10191D01*
X10310Y-10159D01*
X9970Y-10500D01*
X10310Y-10840D01*
X10409Y-10808D01*
X10453Y-10688D01*
X10489Y-10774D01*
X10625Y-10910D01*
X10803Y-10984D01*
X10995Y-10984D01*
X11174Y-10910D01*
X11310Y-10774D01*
X11384Y-10596D01*
X11384Y-10404D01*
X11384Y-11404D01*
X11310Y-11225D01*
X11174Y-11089D01*
X10996Y-11015D01*
X10804Y-11015D01*
X10625Y-11089D01*
X10489Y-11225D01*
X10415Y-11403D01*
X10415Y-11595D01*
X10489Y-11774D01*
X10625Y-11910D01*
X10803Y-11984D01*
X10995Y-11984D01*
X11174Y-11910D01*
X11310Y-11774D01*
X11384Y-11596D01*
X11384Y-11404D01*
X11384Y-13150D01*
X11082Y-13150D01*
X9917Y-11984D01*
X9995Y-11984D01*
X10174Y-11910D01*
X10310Y-11774D01*
X10384Y-11596D01*
X10384Y-11404D01*
X10310Y-11225D01*
X10174Y-11089D01*
X10095Y-11056D01*
X10208Y-11009D01*
X10240Y-10910D01*
X9900Y-10570D01*
X9894Y-10576D01*
X9823Y-10505D01*
X9829Y-10500D01*
X9823Y-10494D01*
X9894Y-10423D01*
X9900Y-10429D01*
X10240Y-10089D01*
X10208Y-9990D01*
X9990Y-9910D01*
X9761Y-9921D01*
X9982Y-9700D01*
X12458Y-9700D01*
X12489Y-9774D01*
X12625Y-9910D01*
X12803Y-9984D01*
X12995Y-9984D01*
X13174Y-9910D01*
X13310Y-9774D01*
X13343Y-9695D01*
X13390Y-9808D01*
X13489Y-9840D01*
X13829Y-9500D01*
X13489Y-9159D01*
X13390Y-9191D01*
X13346Y-9311D01*
X13310Y-9225D01*
X13174Y-9089D01*
X12996Y-9015D01*
X12804Y-9015D01*
X12625Y-9089D01*
X12489Y-9225D01*
X12458Y-9300D01*
X9900Y-9300D01*
X9823Y-9315D01*
X9801Y-9329D01*
X9758Y-9358D01*
X9070Y-10046D01*
X8996Y-10015D01*
X8804Y-10015D01*
X8729Y-10046D01*
X8600Y-9917D01*
X8600Y-9341D01*
X8638Y-9357D01*
X8760Y-9357D01*
X8873Y-9310D01*
X8960Y-9224D01*
X9007Y-9111D01*
X9007Y-9025D01*
X9332Y-8700D01*
X12458Y-8700D01*
X12489Y-8774D01*
X12625Y-8910D01*
X12803Y-8984D01*
X12995Y-8984D01*
X13174Y-8910D01*
X13310Y-8774D01*
X13384Y-8596D01*
X13384Y-8404D01*
X13310Y-8225D01*
X13285Y-8200D01*
X13514Y-8200D01*
X13489Y-8225D01*
X13415Y-8403D01*
X13415Y-8595D01*
X13489Y-8774D01*
X13625Y-8910D01*
X13704Y-8943D01*
X13591Y-8990D01*
X13559Y-9089D01*
X13900Y-9429D01*
X14240Y-9089D01*
X14208Y-8990D01*
X14088Y-8946D01*
X14174Y-8910D01*
X14310Y-8774D01*
X14384Y-8596D01*
X14384Y-8404D01*
X14310Y-8225D01*
X14285Y-8200D01*
X15609Y-8200D01*
X15609Y-8200D01*
G37*
G54D28*
X15609Y-8200D02*
X15600Y-8250D01*
X15600Y-12517D01*
X14489Y-13628D01*
X14489Y-9590D01*
X14478Y-9357D01*
X14409Y-9191D01*
X14310Y-9159D01*
X13970Y-9500D01*
X14310Y-9840D01*
X14409Y-9808D01*
X14489Y-9590D01*
X14489Y-13628D01*
X14417Y-13700D01*
X14384Y-13700D01*
X14384Y-10404D01*
X14310Y-10225D01*
X14174Y-10089D01*
X14095Y-10056D01*
X14208Y-10009D01*
X14240Y-9910D01*
X13900Y-9570D01*
X13559Y-9910D01*
X13591Y-10009D01*
X13711Y-10053D01*
X13625Y-10089D01*
X13489Y-10225D01*
X13415Y-10403D01*
X13415Y-10595D01*
X13489Y-10774D01*
X13625Y-10910D01*
X13803Y-10984D01*
X13995Y-10984D01*
X14174Y-10910D01*
X14310Y-10774D01*
X14384Y-10596D01*
X14384Y-10404D01*
X14384Y-13700D01*
X14100Y-13700D01*
X14023Y-13715D01*
X13958Y-13758D01*
X13658Y-14058D01*
X13647Y-14074D01*
X13618Y-14030D01*
X13472Y-13933D01*
X13455Y-13929D01*
X13441Y-13908D01*
X13384Y-13851D01*
X13384Y-11404D01*
X13384Y-10404D01*
X13310Y-10225D01*
X13174Y-10089D01*
X12996Y-10015D01*
X12804Y-10015D01*
X12625Y-10089D01*
X12489Y-10225D01*
X12415Y-10403D01*
X12415Y-10595D01*
X12489Y-10774D01*
X12625Y-10910D01*
X12803Y-10984D01*
X12995Y-10984D01*
X13174Y-10910D01*
X13310Y-10774D01*
X13384Y-10596D01*
X13384Y-10404D01*
X13384Y-11404D01*
X13310Y-11225D01*
X13174Y-11089D01*
X12996Y-11015D01*
X12804Y-11015D01*
X12625Y-11089D01*
X12489Y-11225D01*
X12415Y-11403D01*
X12415Y-11595D01*
X12489Y-11774D01*
X12625Y-11910D01*
X12803Y-11984D01*
X12995Y-11984D01*
X13174Y-11910D01*
X13310Y-11774D01*
X13384Y-11596D01*
X13384Y-11404D01*
X13384Y-13851D01*
X12741Y-13208D01*
X12676Y-13165D01*
X12600Y-13150D01*
X12384Y-13150D01*
X12384Y-11404D01*
X12384Y-10404D01*
X12310Y-10225D01*
X12174Y-10089D01*
X11996Y-10015D01*
X11804Y-10015D01*
X11625Y-10089D01*
X11489Y-10225D01*
X11415Y-10403D01*
X11415Y-10595D01*
X11489Y-10774D01*
X11625Y-10910D01*
X11803Y-10984D01*
X11995Y-10984D01*
X12174Y-10910D01*
X12310Y-10774D01*
X12384Y-10596D01*
X12384Y-10404D01*
X12384Y-11404D01*
X12310Y-11225D01*
X12174Y-11089D01*
X11996Y-11015D01*
X11804Y-11015D01*
X11625Y-11089D01*
X11489Y-11225D01*
X11415Y-11403D01*
X11415Y-11595D01*
X11489Y-11774D01*
X11625Y-11910D01*
X11803Y-11984D01*
X11995Y-11984D01*
X12174Y-11910D01*
X12310Y-11774D01*
X12384Y-11596D01*
X12384Y-11404D01*
X12384Y-13150D01*
X11384Y-13150D01*
X11384Y-11404D01*
X11384Y-10404D01*
X11310Y-10225D01*
X11174Y-10089D01*
X10996Y-10015D01*
X10804Y-10015D01*
X10625Y-10089D01*
X10489Y-10225D01*
X10456Y-10304D01*
X10409Y-10191D01*
X10310Y-10159D01*
X9970Y-10500D01*
X10310Y-10840D01*
X10409Y-10808D01*
X10453Y-10688D01*
X10489Y-10774D01*
X10625Y-10910D01*
X10803Y-10984D01*
X10995Y-10984D01*
X11174Y-10910D01*
X11310Y-10774D01*
X11384Y-10596D01*
X11384Y-10404D01*
X11384Y-11404D01*
X11310Y-11225D01*
X11174Y-11089D01*
X10996Y-11015D01*
X10804Y-11015D01*
X10625Y-11089D01*
X10489Y-11225D01*
X10415Y-11403D01*
X10415Y-11595D01*
X10489Y-11774D01*
X10625Y-11910D01*
X10803Y-11984D01*
X10995Y-11984D01*
X11174Y-11910D01*
X11310Y-11774D01*
X11384Y-11596D01*
X11384Y-11404D01*
X11384Y-13150D01*
X11082Y-13150D01*
X9917Y-11984D01*
X9995Y-11984D01*
X10174Y-11910D01*
X10310Y-11774D01*
X10384Y-11596D01*
X10384Y-11404D01*
X10310Y-11225D01*
X10174Y-11089D01*
X10095Y-11056D01*
X10208Y-11009D01*
X10240Y-10910D01*
X9900Y-10570D01*
X9894Y-10576D01*
X9823Y-10505D01*
X9829Y-10500D01*
X9823Y-10494D01*
X9894Y-10423D01*
X9900Y-10429D01*
X10240Y-10089D01*
X10208Y-9990D01*
X9990Y-9910D01*
X9761Y-9921D01*
X9982Y-9700D01*
X12458Y-9700D01*
X12489Y-9774D01*
X12625Y-9910D01*
X12803Y-9984D01*
X12995Y-9984D01*
X13174Y-9910D01*
X13310Y-9774D01*
X13343Y-9695D01*
X13390Y-9808D01*
X13489Y-9840D01*
X13829Y-9500D01*
X13489Y-9159D01*
X13390Y-9191D01*
X13346Y-9311D01*
X13310Y-9225D01*
X13174Y-9089D01*
X12996Y-9015D01*
X12804Y-9015D01*
X12625Y-9089D01*
X12489Y-9225D01*
X12458Y-9300D01*
X9900Y-9300D01*
X9823Y-9315D01*
X9801Y-9329D01*
X9758Y-9358D01*
X9070Y-10046D01*
X8996Y-10015D01*
X8804Y-10015D01*
X8729Y-10046D01*
X8600Y-9917D01*
X8600Y-9341D01*
X8638Y-9357D01*
X8760Y-9357D01*
X8873Y-9310D01*
X8960Y-9224D01*
X9007Y-9111D01*
X9007Y-9025D01*
X9332Y-8700D01*
X12458Y-8700D01*
X12489Y-8774D01*
X12625Y-8910D01*
X12803Y-8984D01*
X12995Y-8984D01*
X13174Y-8910D01*
X13310Y-8774D01*
X13384Y-8596D01*
X13384Y-8404D01*
X13310Y-8225D01*
X13285Y-8200D01*
X13514Y-8200D01*
X13489Y-8225D01*
X13415Y-8403D01*
X13415Y-8595D01*
X13489Y-8774D01*
X13625Y-8910D01*
X13704Y-8943D01*
X13591Y-8990D01*
X13559Y-9089D01*
X13900Y-9429D01*
X14240Y-9089D01*
X14208Y-8990D01*
X14088Y-8946D01*
X14174Y-8910D01*
X14310Y-8774D01*
X14384Y-8596D01*
X14384Y-8404D01*
X14310Y-8225D01*
X14285Y-8200D01*
X15609Y-8200D01*
G54D10*
G36*
X17376Y-8455D02*
X17305Y-8526D01*
X17300Y-8520D01*
X17063Y-8757D01*
X17023Y-8765D01*
X16958Y-8808D01*
X16400Y-9367D01*
X16400Y-8682D01*
X16711Y-8371D01*
X16721Y-8592D01*
X16790Y-8758D01*
X16889Y-8790D01*
X17229Y-8450D01*
X17223Y-8444D01*
X17294Y-8373D01*
X17300Y-8379D01*
X17305Y-8373D01*
X17376Y-8444D01*
X17370Y-8450D01*
X17376Y-8455D01*
X17376Y-8455D01*
G37*
G54D28*
X17376Y-8455D02*
X17305Y-8526D01*
X17300Y-8520D01*
X17063Y-8757D01*
X17023Y-8765D01*
X16958Y-8808D01*
X16400Y-9367D01*
X16400Y-8682D01*
X16711Y-8371D01*
X16721Y-8592D01*
X16790Y-8758D01*
X16889Y-8790D01*
X17229Y-8450D01*
X17223Y-8444D01*
X17294Y-8373D01*
X17300Y-8379D01*
X17305Y-8373D01*
X17376Y-8444D01*
X17370Y-8450D01*
X17376Y-8455D01*
G54D10*
G36*
X22357Y-3400D02*
X22350Y-3400D01*
X22350Y-3407D01*
X22250Y-3407D01*
X22250Y-3400D01*
X21812Y-3400D01*
X21750Y-3462D01*
X21750Y-3733D01*
X21750Y-3800D01*
X21182Y-3800D01*
X21750Y-3232D01*
X21750Y-3237D01*
X21812Y-3300D01*
X22250Y-3300D01*
X22250Y-3292D01*
X22350Y-3292D01*
X22350Y-3300D01*
X22357Y-3300D01*
X22357Y-3400D01*
X22357Y-3400D01*
G37*
G54D28*
X22357Y-3400D02*
X22350Y-3400D01*
X22350Y-3407D01*
X22250Y-3407D01*
X22250Y-3400D01*
X21812Y-3400D01*
X21750Y-3462D01*
X21750Y-3733D01*
X21750Y-3800D01*
X21182Y-3800D01*
X21750Y-3232D01*
X21750Y-3237D01*
X21812Y-3300D01*
X22250Y-3300D01*
X22250Y-3292D01*
X22350Y-3292D01*
X22350Y-3300D01*
X22357Y-3300D01*
X22357Y-3400D01*
G54D10*
G36*
X28430Y-16930D02*
X26851Y-16930D01*
X26851Y-15784D01*
X26851Y-15511D01*
X26793Y-15303D01*
X26750Y-15248D01*
X26750Y-14875D01*
X26750Y-14815D01*
X26750Y-14028D01*
X26727Y-13973D01*
X26684Y-13931D01*
X26629Y-13908D01*
X26570Y-13908D01*
X25970Y-13908D01*
X25915Y-13931D01*
X25872Y-13973D01*
X25850Y-14028D01*
X25850Y-14088D01*
X25850Y-14875D01*
X25872Y-14930D01*
X25915Y-14972D01*
X25970Y-14995D01*
X26029Y-14995D01*
X26629Y-14995D01*
X26684Y-14972D01*
X26727Y-14930D01*
X26750Y-14875D01*
X26750Y-15248D01*
X26659Y-15133D01*
X26471Y-15027D01*
X26435Y-15021D01*
X26350Y-15069D01*
X26350Y-15598D01*
X26789Y-15598D01*
X26851Y-15511D01*
X26851Y-15784D01*
X26789Y-15698D01*
X26350Y-15698D01*
X26350Y-16226D01*
X26435Y-16274D01*
X26471Y-16268D01*
X26659Y-16162D01*
X26793Y-15992D01*
X26851Y-15784D01*
X26851Y-16930D01*
X26250Y-16930D01*
X26250Y-16226D01*
X26250Y-15698D01*
X26250Y-15598D01*
X26250Y-15069D01*
X26164Y-15021D01*
X26128Y-15027D01*
X25940Y-15133D01*
X25806Y-15303D01*
X25750Y-15504D01*
X25750Y-14557D01*
X25750Y-14348D01*
X25715Y-14176D01*
X25618Y-14030D01*
X25545Y-13981D01*
X25545Y-10530D01*
X25545Y-10337D01*
X25482Y-10275D01*
X25050Y-10275D01*
X25050Y-10668D01*
X25112Y-10731D01*
X25245Y-10731D01*
X25344Y-10731D01*
X25436Y-10692D01*
X25506Y-10622D01*
X25545Y-10530D01*
X25545Y-13981D01*
X25472Y-13933D01*
X25300Y-13898D01*
X25185Y-13921D01*
X25199Y-13850D01*
X25200Y-13850D01*
X25200Y-11600D01*
X25184Y-11523D01*
X25184Y-11523D01*
X25170Y-11501D01*
X25141Y-11458D01*
X25141Y-11458D01*
X24950Y-11267D01*
X24950Y-10668D01*
X24950Y-10275D01*
X24517Y-10275D01*
X24455Y-10337D01*
X24455Y-10530D01*
X24493Y-10622D01*
X24563Y-10692D01*
X24655Y-10731D01*
X24754Y-10731D01*
X24887Y-10731D01*
X24950Y-10668D01*
X24950Y-11267D01*
X24200Y-10517D01*
X24200Y-9720D01*
X24288Y-9757D01*
X24410Y-9757D01*
X24523Y-9710D01*
X24555Y-9679D01*
X24555Y-9760D01*
X24556Y-9764D01*
X24493Y-9827D01*
X24455Y-9919D01*
X24455Y-10112D01*
X24517Y-10175D01*
X24950Y-10175D01*
X24950Y-10167D01*
X25050Y-10167D01*
X25050Y-10175D01*
X25482Y-10175D01*
X25545Y-10112D01*
X25545Y-9919D01*
X25506Y-9827D01*
X25443Y-9764D01*
X25445Y-9760D01*
X25445Y-9701D01*
X25445Y-9189D01*
X25422Y-9134D01*
X25379Y-9091D01*
X25324Y-9069D01*
X25265Y-9069D01*
X25200Y-9069D01*
X25200Y-7850D01*
X25184Y-7773D01*
X25184Y-7773D01*
X25141Y-7708D01*
X22582Y-5150D01*
X23350Y-5150D01*
X23426Y-5134D01*
X23491Y-5091D01*
X24441Y-4141D01*
X24484Y-4076D01*
X24484Y-4076D01*
X24487Y-4063D01*
X24499Y-4000D01*
X24500Y-4000D01*
X24500Y-3891D01*
X24618Y-3812D01*
X24715Y-3666D01*
X24750Y-3494D01*
X24750Y-3205D01*
X24715Y-3033D01*
X24618Y-2887D01*
X24500Y-2808D01*
X24500Y-2591D01*
X24618Y-2512D01*
X24715Y-2366D01*
X24750Y-2194D01*
X24750Y-1905D01*
X24715Y-1733D01*
X24618Y-1587D01*
X24472Y-1489D01*
X24300Y-1455D01*
X24127Y-1489D01*
X23981Y-1587D01*
X23884Y-1733D01*
X23850Y-1905D01*
X23850Y-2194D01*
X23884Y-2366D01*
X23981Y-2512D01*
X24100Y-2591D01*
X24100Y-2808D01*
X23981Y-2887D01*
X23884Y-3033D01*
X23850Y-3205D01*
X23850Y-3494D01*
X23884Y-3666D01*
X23981Y-3812D01*
X24100Y-3891D01*
X24100Y-3917D01*
X23750Y-4267D01*
X23750Y-3494D01*
X23750Y-3205D01*
X23715Y-3033D01*
X23618Y-2887D01*
X23472Y-2789D01*
X23406Y-2776D01*
X23441Y-2741D01*
X23484Y-2676D01*
X23484Y-2676D01*
X23487Y-2663D01*
X23499Y-2600D01*
X23500Y-2600D01*
X23500Y-2591D01*
X23618Y-2512D01*
X23715Y-2366D01*
X23750Y-2194D01*
X23750Y-1905D01*
X23715Y-1733D01*
X23618Y-1587D01*
X23472Y-1489D01*
X23300Y-1455D01*
X23127Y-1489D01*
X22981Y-1587D01*
X22884Y-1733D01*
X22850Y-1905D01*
X22850Y-1666D01*
X22850Y-1567D01*
X22811Y-1475D01*
X22741Y-1405D01*
X22649Y-1367D01*
X22412Y-1367D01*
X22350Y-1429D01*
X22350Y-2000D01*
X22357Y-2000D01*
X22357Y-2100D01*
X22350Y-2100D01*
X22350Y-2107D01*
X22250Y-2107D01*
X22250Y-2100D01*
X22250Y-2000D01*
X22250Y-1429D01*
X22187Y-1367D01*
X21950Y-1367D01*
X21858Y-1405D01*
X21788Y-1475D01*
X21750Y-1567D01*
X21750Y-1666D01*
X21750Y-1937D01*
X21812Y-2000D01*
X22250Y-2000D01*
X22250Y-2100D01*
X21812Y-2100D01*
X21750Y-2162D01*
X21750Y-2433D01*
X21750Y-2532D01*
X21788Y-2624D01*
X21790Y-2626D01*
X20817Y-3600D01*
X20445Y-3600D01*
X20445Y-3330D01*
X20445Y-3137D01*
X20382Y-3075D01*
X19950Y-3075D01*
X19950Y-3468D01*
X20012Y-3531D01*
X20145Y-3531D01*
X20244Y-3531D01*
X20336Y-3492D01*
X20406Y-3422D01*
X20445Y-3330D01*
X20445Y-3600D01*
X19850Y-3600D01*
X19850Y-3468D01*
X19850Y-3075D01*
X19417Y-3075D01*
X19400Y-3092D01*
X19382Y-3075D01*
X18950Y-3075D01*
X18950Y-3468D01*
X19012Y-3531D01*
X19145Y-3531D01*
X19244Y-3531D01*
X19336Y-3492D01*
X19400Y-3429D01*
X19463Y-3492D01*
X19555Y-3531D01*
X19654Y-3531D01*
X19787Y-3531D01*
X19850Y-3468D01*
X19850Y-3600D01*
X18850Y-3600D01*
X18850Y-3468D01*
X18850Y-3075D01*
X18417Y-3075D01*
X18355Y-3137D01*
X18355Y-3330D01*
X18393Y-3422D01*
X18463Y-3492D01*
X18555Y-3531D01*
X18654Y-3531D01*
X18787Y-3531D01*
X18850Y-3468D01*
X18850Y-3600D01*
X14382Y-3600D01*
X15641Y-2341D01*
X15641Y-2341D01*
X15684Y-2276D01*
X15684Y-2276D01*
X15687Y-2263D01*
X15699Y-2200D01*
X15700Y-2200D01*
X15700Y-1750D01*
X18350Y-1750D01*
X18426Y-1734D01*
X18491Y-1691D01*
X18684Y-1498D01*
X18700Y-1505D01*
X18700Y-1869D01*
X18575Y-1869D01*
X18520Y-1891D01*
X18477Y-1934D01*
X18455Y-1989D01*
X18455Y-2048D01*
X18455Y-2560D01*
X18456Y-2564D01*
X18393Y-2627D01*
X18355Y-2719D01*
X18355Y-2912D01*
X18417Y-2975D01*
X18850Y-2975D01*
X18850Y-2967D01*
X18950Y-2967D01*
X18950Y-2975D01*
X19382Y-2975D01*
X19400Y-2957D01*
X19417Y-2975D01*
X19850Y-2975D01*
X19850Y-2967D01*
X19950Y-2967D01*
X19950Y-2975D01*
X20382Y-2975D01*
X20445Y-2912D01*
X20445Y-2719D01*
X20406Y-2627D01*
X20343Y-2564D01*
X20345Y-2560D01*
X20345Y-2501D01*
X20345Y-1989D01*
X20322Y-1934D01*
X20279Y-1891D01*
X20224Y-1869D01*
X20165Y-1869D01*
X20100Y-1869D01*
X20100Y-1505D01*
X20207Y-1461D01*
X20360Y-1308D01*
X20443Y-1108D01*
X20443Y-892D01*
X20361Y-692D01*
X20208Y-539D01*
X20008Y-456D01*
X19792Y-456D01*
X19592Y-538D01*
X19439Y-691D01*
X19400Y-786D01*
X19361Y-692D01*
X19208Y-539D01*
X19008Y-456D01*
X18792Y-456D01*
X18592Y-538D01*
X18439Y-691D01*
X18356Y-891D01*
X18356Y-1107D01*
X18401Y-1215D01*
X18267Y-1350D01*
X17933Y-1350D01*
X17933Y-692D01*
X17850Y-492D01*
X17698Y-339D01*
X17498Y-256D01*
X17282Y-256D01*
X17082Y-338D01*
X16929Y-491D01*
X16846Y-691D01*
X16845Y-907D01*
X16928Y-1107D01*
X17081Y-1260D01*
X17281Y-1343D01*
X17497Y-1343D01*
X17697Y-1261D01*
X17850Y-1108D01*
X17933Y-908D01*
X17933Y-692D01*
X17933Y-1350D01*
X15700Y-1350D01*
X15700Y-1199D01*
X15751Y-1177D01*
X15877Y-1052D01*
X15893Y-1013D01*
X15909Y-1051D01*
X16034Y-1177D01*
X16198Y-1245D01*
X16375Y-1245D01*
X16539Y-1177D01*
X16664Y-1052D01*
X16732Y-888D01*
X16732Y-711D01*
X16665Y-548D01*
X16539Y-422D01*
X16376Y-354D01*
X16199Y-354D01*
X16035Y-422D01*
X15910Y-547D01*
X15893Y-586D01*
X15877Y-548D01*
X15752Y-422D01*
X15588Y-354D01*
X15411Y-354D01*
X15248Y-422D01*
X15162Y-507D01*
X15095Y-488D01*
X15024Y-558D01*
X15024Y-417D01*
X14997Y-322D01*
X14793Y-249D01*
X14576Y-260D01*
X14427Y-322D01*
X14400Y-417D01*
X14712Y-729D01*
X15024Y-417D01*
X15024Y-558D01*
X14783Y-800D01*
X15095Y-1111D01*
X15162Y-1092D01*
X15247Y-1177D01*
X15300Y-1199D01*
X15300Y-1550D01*
X15300Y-2117D01*
X15024Y-2392D01*
X15024Y-1182D01*
X14712Y-870D01*
X14641Y-941D01*
X14641Y-800D01*
X14330Y-488D01*
X14235Y-514D01*
X14162Y-719D01*
X14173Y-936D01*
X14235Y-1085D01*
X14330Y-1111D01*
X14641Y-800D01*
X14641Y-941D01*
X14400Y-1182D01*
X14427Y-1277D01*
X14631Y-1350D01*
X14848Y-1339D01*
X14997Y-1277D01*
X15024Y-1182D01*
X15024Y-2392D01*
X14154Y-3263D01*
X14154Y-692D01*
X14071Y-492D01*
X13918Y-339D01*
X13718Y-256D01*
X13502Y-256D01*
X13302Y-338D01*
X13149Y-491D01*
X13066Y-691D01*
X13066Y-907D01*
X13149Y-1107D01*
X13301Y-1260D01*
X13501Y-1343D01*
X13717Y-1343D01*
X13917Y-1261D01*
X14070Y-1108D01*
X14153Y-908D01*
X14154Y-692D01*
X14154Y-3263D01*
X14017Y-3400D01*
X10800Y-3400D01*
X10723Y-3415D01*
X10658Y-3458D01*
X10070Y-4046D01*
X9996Y-4015D01*
X9804Y-4015D01*
X9625Y-4089D01*
X9489Y-4225D01*
X9415Y-4403D01*
X9415Y-4595D01*
X9489Y-4774D01*
X9625Y-4910D01*
X9803Y-4984D01*
X9995Y-4984D01*
X10174Y-4910D01*
X10310Y-4774D01*
X10384Y-4596D01*
X10384Y-4404D01*
X10353Y-4329D01*
X10882Y-3800D01*
X11317Y-3800D01*
X11070Y-4046D01*
X10996Y-4015D01*
X10804Y-4015D01*
X10625Y-4089D01*
X10489Y-4225D01*
X10415Y-4403D01*
X10415Y-4595D01*
X10489Y-4774D01*
X10625Y-4910D01*
X10803Y-4984D01*
X10995Y-4984D01*
X11174Y-4910D01*
X11310Y-4774D01*
X11384Y-4596D01*
X11384Y-4404D01*
X11353Y-4329D01*
X11682Y-4000D01*
X12117Y-4000D01*
X12070Y-4046D01*
X11996Y-4015D01*
X11804Y-4015D01*
X11625Y-4089D01*
X11489Y-4225D01*
X11415Y-4403D01*
X11415Y-4595D01*
X11489Y-4774D01*
X11625Y-4910D01*
X11803Y-4984D01*
X11995Y-4984D01*
X12174Y-4910D01*
X12310Y-4774D01*
X12384Y-4596D01*
X12384Y-4404D01*
X12353Y-4329D01*
X12482Y-4200D01*
X12514Y-4200D01*
X12489Y-4225D01*
X12415Y-4403D01*
X12415Y-4595D01*
X12489Y-4774D01*
X12625Y-4910D01*
X12803Y-4984D01*
X12995Y-4984D01*
X13174Y-4910D01*
X13310Y-4774D01*
X13384Y-4596D01*
X13384Y-4404D01*
X13310Y-4225D01*
X13285Y-4200D01*
X23100Y-4200D01*
X23176Y-4184D01*
X23241Y-4141D01*
X23441Y-3941D01*
X23441Y-3941D01*
X23460Y-3912D01*
X23472Y-3910D01*
X23618Y-3812D01*
X23715Y-3666D01*
X23750Y-3494D01*
X23750Y-4267D01*
X23267Y-4750D01*
X22100Y-4750D01*
X13450Y-4750D01*
X13386Y-4762D01*
X13373Y-4765D01*
X13308Y-4808D01*
X13070Y-5046D01*
X12996Y-5015D01*
X12804Y-5015D01*
X12625Y-5089D01*
X12489Y-5225D01*
X12415Y-5403D01*
X12415Y-5595D01*
X12446Y-5670D01*
X12317Y-5800D01*
X12285Y-5800D01*
X12310Y-5774D01*
X12384Y-5596D01*
X12384Y-5404D01*
X12310Y-5225D01*
X12174Y-5089D01*
X11996Y-5015D01*
X11804Y-5015D01*
X11625Y-5089D01*
X11489Y-5225D01*
X11415Y-5403D01*
X11415Y-5595D01*
X11489Y-5774D01*
X11514Y-5800D01*
X11285Y-5800D01*
X11310Y-5774D01*
X11384Y-5596D01*
X11384Y-5404D01*
X11310Y-5225D01*
X11174Y-5089D01*
X10996Y-5015D01*
X10804Y-5015D01*
X10625Y-5089D01*
X10489Y-5225D01*
X10415Y-5403D01*
X10415Y-5595D01*
X10489Y-5774D01*
X10514Y-5800D01*
X10285Y-5800D01*
X10310Y-5774D01*
X10384Y-5596D01*
X10384Y-5404D01*
X10310Y-5225D01*
X10174Y-5089D01*
X9996Y-5015D01*
X9804Y-5015D01*
X9625Y-5089D01*
X9489Y-5225D01*
X9415Y-5403D01*
X9415Y-5595D01*
X9489Y-5774D01*
X9514Y-5800D01*
X9285Y-5800D01*
X9310Y-5774D01*
X9384Y-5596D01*
X9384Y-5404D01*
X9384Y-4404D01*
X9310Y-4225D01*
X9174Y-4089D01*
X8996Y-4015D01*
X8804Y-4015D01*
X8625Y-4089D01*
X8489Y-4225D01*
X8415Y-4403D01*
X8415Y-4595D01*
X8489Y-4774D01*
X8625Y-4910D01*
X8803Y-4984D01*
X8995Y-4984D01*
X9174Y-4910D01*
X9310Y-4774D01*
X9384Y-4596D01*
X9384Y-4404D01*
X9384Y-5404D01*
X9310Y-5225D01*
X9174Y-5089D01*
X8996Y-5015D01*
X8804Y-5015D01*
X8625Y-5089D01*
X8489Y-5225D01*
X8415Y-5403D01*
X8415Y-5595D01*
X8489Y-5774D01*
X8625Y-5910D01*
X8647Y-5919D01*
X8384Y-6182D01*
X8384Y-5404D01*
X8384Y-4404D01*
X8310Y-4225D01*
X8174Y-4089D01*
X7996Y-4015D01*
X7804Y-4015D01*
X7625Y-4089D01*
X7489Y-4225D01*
X7415Y-4403D01*
X7415Y-4595D01*
X7489Y-4774D01*
X7625Y-4910D01*
X7803Y-4984D01*
X7995Y-4984D01*
X8174Y-4910D01*
X8310Y-4774D01*
X8384Y-4596D01*
X8384Y-4404D01*
X8384Y-5404D01*
X8310Y-5225D01*
X8174Y-5089D01*
X7996Y-5015D01*
X7804Y-5015D01*
X7625Y-5089D01*
X7489Y-5225D01*
X7415Y-5403D01*
X7415Y-5595D01*
X7489Y-5774D01*
X7625Y-5910D01*
X7704Y-5943D01*
X7591Y-5990D01*
X7559Y-6089D01*
X7900Y-6429D01*
X8240Y-6089D01*
X8208Y-5990D01*
X8088Y-5946D01*
X8174Y-5910D01*
X8310Y-5774D01*
X8384Y-5596D01*
X8384Y-5404D01*
X8384Y-6182D01*
X8384Y-6183D01*
X8310Y-6159D01*
X7970Y-6500D01*
X7976Y-6505D01*
X7905Y-6576D01*
X7900Y-6570D01*
X7559Y-6910D01*
X7591Y-7009D01*
X7711Y-7053D01*
X7625Y-7089D01*
X7489Y-7225D01*
X7415Y-7403D01*
X7415Y-7595D01*
X7446Y-7670D01*
X7317Y-7800D01*
X7285Y-7800D01*
X7310Y-7774D01*
X7384Y-7596D01*
X7384Y-7404D01*
X7310Y-7225D01*
X7174Y-7089D01*
X6996Y-7015D01*
X6804Y-7015D01*
X6625Y-7089D01*
X6600Y-7114D01*
X6600Y-7082D01*
X6729Y-6953D01*
X6803Y-6984D01*
X6995Y-6984D01*
X7174Y-6910D01*
X7310Y-6774D01*
X7343Y-6695D01*
X7390Y-6808D01*
X7489Y-6840D01*
X7829Y-6500D01*
X7489Y-6159D01*
X7390Y-6191D01*
X7384Y-6206D01*
X7384Y-5404D01*
X7310Y-5225D01*
X7174Y-5089D01*
X6996Y-5015D01*
X6804Y-5015D01*
X6625Y-5089D01*
X6489Y-5225D01*
X6415Y-5403D01*
X6415Y-5595D01*
X6489Y-5774D01*
X6625Y-5910D01*
X6803Y-5984D01*
X6995Y-5984D01*
X7174Y-5910D01*
X7310Y-5774D01*
X7384Y-5596D01*
X7384Y-5404D01*
X7384Y-6206D01*
X7346Y-6311D01*
X7310Y-6225D01*
X7174Y-6089D01*
X6996Y-6015D01*
X6804Y-6015D01*
X6625Y-6089D01*
X6489Y-6225D01*
X6415Y-6403D01*
X6415Y-6595D01*
X6446Y-6670D01*
X6258Y-6858D01*
X6215Y-6923D01*
X6200Y-7000D01*
X6200Y-7917D01*
X5508Y-8608D01*
X5465Y-8673D01*
X5455Y-8722D01*
X5091Y-8358D01*
X5071Y-8345D01*
X5112Y-8318D01*
X5210Y-8172D01*
X5244Y-8000D01*
X5244Y-7000D01*
X5244Y-6000D01*
X5210Y-5827D01*
X5112Y-5681D01*
X4966Y-5584D01*
X4794Y-5550D01*
X4505Y-5550D01*
X4352Y-5580D01*
X4486Y-5446D01*
X4505Y-5450D01*
X4794Y-5450D01*
X4966Y-5415D01*
X5112Y-5318D01*
X5210Y-5172D01*
X5244Y-5000D01*
X5210Y-4827D01*
X5112Y-4681D01*
X4966Y-4584D01*
X4794Y-4550D01*
X4505Y-4550D01*
X4333Y-4584D01*
X4187Y-4681D01*
X4089Y-4827D01*
X4055Y-5000D01*
X4089Y-5172D01*
X4131Y-5235D01*
X3517Y-5850D01*
X3099Y-5850D01*
X3020Y-5731D01*
X2874Y-5634D01*
X2702Y-5600D01*
X2493Y-5600D01*
X2321Y-5634D01*
X2175Y-5731D01*
X2078Y-5877D01*
X2043Y-6050D01*
X2078Y-6222D01*
X2175Y-6368D01*
X2321Y-6465D01*
X2493Y-6500D01*
X2702Y-6500D01*
X2874Y-6465D01*
X3020Y-6368D01*
X3099Y-6250D01*
X3600Y-6250D01*
X3676Y-6234D01*
X3741Y-6191D01*
X4086Y-5846D01*
X4055Y-6000D01*
X4089Y-6172D01*
X4187Y-6318D01*
X4333Y-6415D01*
X4505Y-6450D01*
X4794Y-6450D01*
X4966Y-6415D01*
X5112Y-6318D01*
X5210Y-6172D01*
X5244Y-6000D01*
X5244Y-7000D01*
X5210Y-6827D01*
X5112Y-6681D01*
X4966Y-6584D01*
X4794Y-6550D01*
X4505Y-6550D01*
X4333Y-6584D01*
X4187Y-6681D01*
X4089Y-6827D01*
X4055Y-7000D01*
X4089Y-7172D01*
X4187Y-7318D01*
X4333Y-7415D01*
X4505Y-7450D01*
X4794Y-7450D01*
X4966Y-7415D01*
X5112Y-7318D01*
X5210Y-7172D01*
X5244Y-7000D01*
X5244Y-8000D01*
X5210Y-7827D01*
X5112Y-7681D01*
X4966Y-7584D01*
X4794Y-7550D01*
X4505Y-7550D01*
X4333Y-7584D01*
X4187Y-7681D01*
X4108Y-7800D01*
X3532Y-7800D01*
X3133Y-7400D01*
X3141Y-7379D01*
X3141Y-7320D01*
X3141Y-6720D01*
X3118Y-6665D01*
X3076Y-6622D01*
X3021Y-6600D01*
X2961Y-6600D01*
X2174Y-6600D01*
X2119Y-6622D01*
X2077Y-6665D01*
X2054Y-6720D01*
X2054Y-6779D01*
X2054Y-7379D01*
X2077Y-7434D01*
X2119Y-7477D01*
X2174Y-7500D01*
X2234Y-7500D01*
X2667Y-7500D01*
X3308Y-8141D01*
X3373Y-8184D01*
X3373Y-8184D01*
X3386Y-8187D01*
X3450Y-8200D01*
X4108Y-8200D01*
X4175Y-8300D01*
X3167Y-8300D01*
X3103Y-8312D01*
X3090Y-8315D01*
X3025Y-8358D01*
X3014Y-8370D01*
X2802Y-8370D01*
X2747Y-8392D01*
X2704Y-8435D01*
X2682Y-8490D01*
X2682Y-8549D01*
X2682Y-8943D01*
X2704Y-8998D01*
X2747Y-9041D01*
X2802Y-9064D01*
X2861Y-9064D01*
X3097Y-9064D01*
X3152Y-9041D01*
X3195Y-8998D01*
X3218Y-8943D01*
X3218Y-8884D01*
X3218Y-8731D01*
X3249Y-8700D01*
X4175Y-8700D01*
X4089Y-8827D01*
X4055Y-9000D01*
X4089Y-9172D01*
X4187Y-9318D01*
X4333Y-9415D01*
X4505Y-9450D01*
X4266Y-9450D01*
X4167Y-9450D01*
X4075Y-9488D01*
X4005Y-9558D01*
X3967Y-9650D01*
X3967Y-9887D01*
X4029Y-9950D01*
X4600Y-9950D01*
X4600Y-9512D01*
X4537Y-9450D01*
X4762Y-9450D01*
X4700Y-9512D01*
X4700Y-9950D01*
X4707Y-9950D01*
X4707Y-10050D01*
X4700Y-10050D01*
X4700Y-10057D01*
X4600Y-10057D01*
X4600Y-10050D01*
X4029Y-10050D01*
X3967Y-10112D01*
X3967Y-10250D01*
X3750Y-10250D01*
X3673Y-10265D01*
X3608Y-10308D01*
X2799Y-11117D01*
X2756Y-11182D01*
X2741Y-11259D01*
X2741Y-11635D01*
X2478Y-11635D01*
X2423Y-11657D01*
X2413Y-11667D01*
X2403Y-11643D01*
X2333Y-11573D01*
X2241Y-11535D01*
X1871Y-11535D01*
X1809Y-11597D01*
X1809Y-12050D01*
X1816Y-12050D01*
X1816Y-12150D01*
X1809Y-12150D01*
X1809Y-12602D01*
X1871Y-12665D01*
X2241Y-12665D01*
X2333Y-12626D01*
X2403Y-12556D01*
X2413Y-12532D01*
X2423Y-12542D01*
X2478Y-12565D01*
X2537Y-12565D01*
X2741Y-12565D01*
X2741Y-13191D01*
X2756Y-13267D01*
X2799Y-13332D01*
X3382Y-13915D01*
X3300Y-13898D01*
X3127Y-13933D01*
X2981Y-14030D01*
X2884Y-14176D01*
X2851Y-14338D01*
X2850Y-14348D01*
X2850Y-14402D01*
X2789Y-14402D01*
X2851Y-14316D01*
X2793Y-14108D01*
X2659Y-13938D01*
X2471Y-13832D01*
X2435Y-13826D01*
X2350Y-13874D01*
X2350Y-14403D01*
X2357Y-14403D01*
X2357Y-14503D01*
X2350Y-14503D01*
X2350Y-14510D01*
X2250Y-14510D01*
X2250Y-14503D01*
X2242Y-14503D01*
X2242Y-14403D01*
X2250Y-14403D01*
X2250Y-13874D01*
X2164Y-13826D01*
X2128Y-13832D01*
X1940Y-13938D01*
X1806Y-14108D01*
X1748Y-14316D01*
X1810Y-14402D01*
X1785Y-14402D01*
X1350Y-13967D01*
X1350Y-12665D01*
X1646Y-12665D01*
X1709Y-12602D01*
X1709Y-12150D01*
X1701Y-12150D01*
X1701Y-12050D01*
X1709Y-12050D01*
X1709Y-11597D01*
X1646Y-11535D01*
X1350Y-11535D01*
X1350Y-10731D01*
X1624Y-10731D01*
X1679Y-10708D01*
X1722Y-10665D01*
X1745Y-10610D01*
X1745Y-10551D01*
X1745Y-10039D01*
X1722Y-9984D01*
X1688Y-9950D01*
X1722Y-9915D01*
X1745Y-9860D01*
X1745Y-9801D01*
X1745Y-9775D01*
X1782Y-9775D01*
X1782Y-9809D01*
X1804Y-9864D01*
X1847Y-9907D01*
X1902Y-9930D01*
X1961Y-9930D01*
X2197Y-9930D01*
X2252Y-9907D01*
X2295Y-9864D01*
X2318Y-9809D01*
X2318Y-9783D01*
X2682Y-9783D01*
X2682Y-9809D01*
X2704Y-9864D01*
X2747Y-9907D01*
X2802Y-9930D01*
X2861Y-9930D01*
X3097Y-9930D01*
X3152Y-9907D01*
X3195Y-9864D01*
X3218Y-9809D01*
X3218Y-9750D01*
X3218Y-9356D01*
X3195Y-9301D01*
X3152Y-9258D01*
X3097Y-9236D01*
X3038Y-9236D01*
X2802Y-9236D01*
X2747Y-9258D01*
X2704Y-9301D01*
X2682Y-9356D01*
X2682Y-9383D01*
X2357Y-9383D01*
X2357Y-8039D01*
X2310Y-7926D01*
X2224Y-7839D01*
X2111Y-7792D01*
X1989Y-7792D01*
X1876Y-7839D01*
X1789Y-7925D01*
X1742Y-8038D01*
X1742Y-8160D01*
X1789Y-8273D01*
X1850Y-8334D01*
X1850Y-8391D01*
X1847Y-8392D01*
X1804Y-8435D01*
X1782Y-8490D01*
X1782Y-8549D01*
X1782Y-8943D01*
X1804Y-8998D01*
X1847Y-9041D01*
X1902Y-9064D01*
X1961Y-9064D01*
X2197Y-9064D01*
X2252Y-9041D01*
X2295Y-8998D01*
X2318Y-8943D01*
X2318Y-8884D01*
X2318Y-8490D01*
X2295Y-8435D01*
X2252Y-8392D01*
X2250Y-8391D01*
X2250Y-8334D01*
X2310Y-8274D01*
X2357Y-8161D01*
X2357Y-8039D01*
X2357Y-9383D01*
X2318Y-9383D01*
X2318Y-9356D01*
X2295Y-9301D01*
X2252Y-9258D01*
X2197Y-9236D01*
X2138Y-9236D01*
X1902Y-9236D01*
X1847Y-9258D01*
X1804Y-9301D01*
X1782Y-9356D01*
X1782Y-9375D01*
X1745Y-9375D01*
X1745Y-9289D01*
X1722Y-9234D01*
X1679Y-9191D01*
X1624Y-9169D01*
X1565Y-9169D01*
X1500Y-9169D01*
X1500Y-7500D01*
X1506Y-7500D01*
X1678Y-7465D01*
X1824Y-7368D01*
X1921Y-7222D01*
X1956Y-7050D01*
X1921Y-6877D01*
X1824Y-6731D01*
X1678Y-6634D01*
X1506Y-6600D01*
X1297Y-6600D01*
X1216Y-6616D01*
X1332Y-6500D01*
X1506Y-6500D01*
X1678Y-6465D01*
X1824Y-6368D01*
X1921Y-6222D01*
X1956Y-6050D01*
X1921Y-5877D01*
X1824Y-5731D01*
X1678Y-5634D01*
X1506Y-5600D01*
X1297Y-5600D01*
X1125Y-5634D01*
X979Y-5731D01*
X882Y-5877D01*
X847Y-6050D01*
X882Y-6222D01*
X947Y-6319D01*
X708Y-6558D01*
X665Y-6623D01*
X650Y-6700D01*
X650Y-14950D01*
X665Y-15026D01*
X708Y-15091D01*
X1958Y-16341D01*
X2023Y-16384D01*
X2100Y-16400D01*
X13750Y-16400D01*
X13826Y-16384D01*
X13891Y-16341D01*
X14090Y-16142D01*
X14127Y-16167D01*
X14300Y-16202D01*
X14472Y-16167D01*
X14618Y-16070D01*
X14715Y-15924D01*
X14750Y-15752D01*
X14750Y-15543D01*
X14715Y-15371D01*
X14618Y-15225D01*
X14472Y-15128D01*
X14300Y-15093D01*
X14155Y-15122D01*
X14000Y-14967D01*
X14000Y-14887D01*
X14127Y-14972D01*
X14300Y-15007D01*
X14472Y-14972D01*
X14600Y-14887D01*
X14600Y-15050D01*
X14615Y-15126D01*
X14658Y-15191D01*
X14876Y-15409D01*
X14850Y-15543D01*
X14850Y-15752D01*
X14884Y-15924D01*
X14981Y-16070D01*
X15127Y-16167D01*
X15300Y-16202D01*
X15472Y-16167D01*
X15618Y-16070D01*
X15715Y-15924D01*
X15750Y-15752D01*
X15750Y-15543D01*
X15715Y-15371D01*
X15618Y-15225D01*
X15472Y-15128D01*
X15300Y-15093D01*
X15155Y-15122D01*
X15000Y-14967D01*
X15000Y-14887D01*
X15127Y-14972D01*
X15300Y-15007D01*
X15472Y-14972D01*
X15600Y-14887D01*
X15600Y-15050D01*
X15615Y-15126D01*
X15658Y-15191D01*
X15876Y-15409D01*
X15850Y-15543D01*
X15850Y-15752D01*
X15884Y-15924D01*
X15981Y-16070D01*
X16127Y-16167D01*
X16300Y-16202D01*
X16472Y-16167D01*
X16618Y-16070D01*
X16715Y-15924D01*
X16750Y-15752D01*
X16750Y-15543D01*
X16715Y-15371D01*
X16618Y-15225D01*
X16472Y-15128D01*
X16300Y-15093D01*
X16155Y-15122D01*
X16000Y-14967D01*
X16000Y-14887D01*
X16127Y-14972D01*
X16300Y-15007D01*
X16472Y-14972D01*
X16600Y-14887D01*
X16600Y-15050D01*
X16615Y-15126D01*
X16658Y-15191D01*
X16876Y-15409D01*
X16850Y-15543D01*
X16850Y-15752D01*
X16884Y-15924D01*
X16981Y-16070D01*
X17127Y-16167D01*
X17300Y-16202D01*
X17394Y-16183D01*
X17392Y-16188D01*
X17392Y-16310D01*
X17439Y-16423D01*
X17525Y-16510D01*
X17638Y-16557D01*
X17760Y-16557D01*
X17873Y-16510D01*
X17960Y-16424D01*
X18007Y-16311D01*
X18007Y-16189D01*
X17997Y-16164D01*
X17999Y-16150D01*
X18000Y-16150D01*
X18000Y-16082D01*
X18127Y-16167D01*
X18300Y-16202D01*
X18472Y-16167D01*
X18618Y-16070D01*
X18715Y-15924D01*
X18750Y-15752D01*
X18750Y-15543D01*
X18715Y-15371D01*
X18618Y-15225D01*
X18472Y-15128D01*
X18300Y-15093D01*
X18127Y-15128D01*
X18000Y-15213D01*
X18000Y-14887D01*
X18127Y-14972D01*
X18300Y-15007D01*
X18472Y-14972D01*
X18618Y-14875D01*
X18715Y-14729D01*
X18750Y-14557D01*
X18750Y-14348D01*
X18715Y-14176D01*
X18618Y-14030D01*
X18500Y-13951D01*
X18500Y-13800D01*
X18484Y-13723D01*
X18441Y-13658D01*
X18150Y-13367D01*
X18150Y-12582D01*
X18941Y-11791D01*
X18947Y-11782D01*
X19025Y-11860D01*
X19100Y-11891D01*
X19100Y-12100D01*
X19115Y-12176D01*
X19158Y-12241D01*
X19458Y-12541D01*
X19523Y-12584D01*
X19600Y-12600D01*
X20979Y-12600D01*
X20989Y-12623D01*
X21075Y-12710D01*
X21188Y-12757D01*
X21310Y-12757D01*
X21423Y-12710D01*
X21510Y-12624D01*
X21534Y-12567D01*
X21842Y-12875D01*
X20645Y-14071D01*
X20618Y-14030D01*
X20472Y-13933D01*
X20300Y-13898D01*
X20127Y-13933D01*
X19981Y-14030D01*
X19884Y-14176D01*
X19850Y-14348D01*
X19850Y-14557D01*
X19884Y-14729D01*
X19981Y-14875D01*
X20127Y-14972D01*
X20300Y-15007D01*
X20472Y-14972D01*
X20618Y-14875D01*
X20715Y-14729D01*
X20750Y-14557D01*
X20750Y-14532D01*
X20850Y-14432D01*
X20850Y-14557D01*
X20884Y-14729D01*
X20981Y-14875D01*
X21127Y-14972D01*
X21300Y-15007D01*
X21472Y-14972D01*
X21600Y-14887D01*
X21600Y-14967D01*
X21444Y-15122D01*
X21300Y-15093D01*
X21127Y-15128D01*
X20981Y-15225D01*
X20884Y-15371D01*
X20850Y-15543D01*
X20850Y-15752D01*
X20884Y-15924D01*
X20981Y-16070D01*
X21127Y-16167D01*
X21300Y-16202D01*
X21472Y-16167D01*
X21618Y-16070D01*
X21715Y-15924D01*
X21750Y-15752D01*
X21750Y-15543D01*
X21723Y-15409D01*
X21941Y-15191D01*
X21984Y-15126D01*
X21984Y-15126D01*
X21987Y-15113D01*
X21999Y-15050D01*
X22000Y-15050D01*
X22000Y-14887D01*
X22127Y-14972D01*
X22300Y-15007D01*
X22472Y-14972D01*
X22618Y-14875D01*
X22715Y-14729D01*
X22750Y-14557D01*
X22750Y-14348D01*
X22715Y-14176D01*
X22618Y-14030D01*
X22472Y-13933D01*
X22300Y-13898D01*
X22127Y-13933D01*
X22000Y-14018D01*
X22000Y-13882D01*
X22332Y-13550D01*
X24150Y-13550D01*
X24226Y-13534D01*
X24291Y-13491D01*
X24575Y-13207D01*
X24660Y-13207D01*
X24773Y-13160D01*
X24800Y-13134D01*
X24800Y-13767D01*
X24658Y-13908D01*
X24615Y-13973D01*
X24605Y-14022D01*
X24472Y-13933D01*
X24300Y-13898D01*
X24127Y-13933D01*
X23981Y-14030D01*
X23884Y-14176D01*
X23850Y-14348D01*
X23850Y-14557D01*
X23857Y-14592D01*
X23742Y-14592D01*
X23750Y-14557D01*
X23750Y-14348D01*
X23715Y-14176D01*
X23618Y-14030D01*
X23472Y-13933D01*
X23300Y-13898D01*
X23127Y-13933D01*
X22981Y-14030D01*
X22884Y-14176D01*
X22850Y-14348D01*
X22850Y-14557D01*
X22884Y-14729D01*
X22964Y-14850D01*
X22800Y-14850D01*
X22736Y-14862D01*
X22723Y-14865D01*
X22658Y-14908D01*
X22444Y-15122D01*
X22300Y-15093D01*
X22127Y-15128D01*
X21981Y-15225D01*
X21884Y-15371D01*
X21850Y-15543D01*
X21850Y-15752D01*
X21884Y-15924D01*
X21981Y-16070D01*
X22127Y-16167D01*
X22300Y-16202D01*
X22472Y-16167D01*
X22618Y-16070D01*
X22715Y-15924D01*
X22750Y-15752D01*
X22750Y-15543D01*
X22723Y-15409D01*
X22882Y-15250D01*
X22965Y-15250D01*
X22884Y-15371D01*
X22850Y-15543D01*
X22850Y-15752D01*
X22884Y-15924D01*
X22981Y-16070D01*
X23127Y-16167D01*
X23300Y-16202D01*
X23472Y-16167D01*
X23618Y-16070D01*
X23715Y-15924D01*
X23750Y-15752D01*
X23750Y-15543D01*
X23715Y-15371D01*
X23634Y-15250D01*
X23650Y-15250D01*
X23726Y-15234D01*
X23767Y-15207D01*
X23860Y-15207D01*
X23973Y-15160D01*
X24060Y-15074D01*
X24107Y-14961D01*
X24107Y-14959D01*
X24127Y-14972D01*
X24224Y-14992D01*
X24158Y-15058D01*
X24115Y-15123D01*
X24112Y-15138D01*
X23981Y-15225D01*
X23884Y-15371D01*
X23850Y-15543D01*
X23850Y-15752D01*
X23884Y-15924D01*
X23981Y-16070D01*
X24127Y-16167D01*
X24300Y-16202D01*
X24472Y-16167D01*
X24618Y-16070D01*
X24715Y-15924D01*
X24750Y-15752D01*
X24750Y-15543D01*
X24715Y-15371D01*
X24618Y-15225D01*
X24581Y-15201D01*
X24941Y-14841D01*
X24950Y-14828D01*
X24981Y-14875D01*
X25127Y-14972D01*
X25300Y-15007D01*
X25472Y-14972D01*
X25618Y-14875D01*
X25715Y-14729D01*
X25750Y-14557D01*
X25750Y-15504D01*
X25748Y-15511D01*
X25810Y-15598D01*
X26250Y-15598D01*
X26250Y-15698D01*
X25810Y-15698D01*
X25750Y-15782D01*
X25750Y-15752D01*
X25750Y-15543D01*
X25715Y-15371D01*
X25618Y-15225D01*
X25472Y-15128D01*
X25300Y-15093D01*
X25127Y-15128D01*
X24981Y-15225D01*
X24884Y-15371D01*
X24850Y-15543D01*
X24850Y-15752D01*
X24884Y-15924D01*
X24981Y-16070D01*
X25127Y-16167D01*
X25300Y-16202D01*
X25472Y-16167D01*
X25618Y-16070D01*
X25715Y-15924D01*
X25750Y-15752D01*
X25750Y-15782D01*
X25748Y-15784D01*
X25806Y-15992D01*
X25940Y-16162D01*
X26128Y-16268D01*
X26164Y-16274D01*
X26250Y-16226D01*
X26250Y-16930D01*
X20750Y-16930D01*
X20750Y-15752D01*
X20750Y-15543D01*
X20715Y-15371D01*
X20618Y-15225D01*
X20472Y-15128D01*
X20300Y-15093D01*
X20127Y-15128D01*
X19981Y-15225D01*
X19884Y-15371D01*
X19850Y-15543D01*
X19850Y-15752D01*
X19884Y-15924D01*
X19981Y-16070D01*
X20127Y-16167D01*
X20300Y-16202D01*
X20472Y-16167D01*
X20618Y-16070D01*
X20715Y-15924D01*
X20750Y-15752D01*
X20750Y-16930D01*
X19750Y-16930D01*
X19750Y-15752D01*
X19750Y-15543D01*
X19750Y-14557D01*
X19750Y-14348D01*
X19715Y-14176D01*
X19618Y-14030D01*
X19472Y-13933D01*
X19300Y-13898D01*
X19127Y-13933D01*
X18981Y-14030D01*
X18884Y-14176D01*
X18850Y-14348D01*
X18850Y-14557D01*
X18884Y-14729D01*
X18981Y-14875D01*
X19127Y-14972D01*
X19300Y-15007D01*
X19472Y-14972D01*
X19618Y-14875D01*
X19715Y-14729D01*
X19750Y-14557D01*
X19750Y-15543D01*
X19715Y-15371D01*
X19618Y-15225D01*
X19472Y-15128D01*
X19300Y-15093D01*
X19127Y-15128D01*
X18981Y-15225D01*
X18884Y-15371D01*
X18850Y-15543D01*
X18850Y-15752D01*
X18884Y-15924D01*
X18981Y-16070D01*
X19127Y-16167D01*
X19300Y-16202D01*
X19472Y-16167D01*
X19618Y-16070D01*
X19715Y-15924D01*
X19750Y-15752D01*
X19750Y-16930D01*
X169Y-16930D01*
X169Y-169D01*
X28430Y-169D01*
X28430Y-16930D01*
X28430Y-16930D01*
G37*
G54D28*
X28430Y-16930D02*
X26851Y-16930D01*
X26851Y-15784D01*
X26851Y-15511D01*
X26793Y-15303D01*
X26750Y-15248D01*
X26750Y-14875D01*
X26750Y-14815D01*
X26750Y-14028D01*
X26727Y-13973D01*
X26684Y-13931D01*
X26629Y-13908D01*
X26570Y-13908D01*
X25970Y-13908D01*
X25915Y-13931D01*
X25872Y-13973D01*
X25850Y-14028D01*
X25850Y-14088D01*
X25850Y-14875D01*
X25872Y-14930D01*
X25915Y-14972D01*
X25970Y-14995D01*
X26029Y-14995D01*
X26629Y-14995D01*
X26684Y-14972D01*
X26727Y-14930D01*
X26750Y-14875D01*
X26750Y-15248D01*
X26659Y-15133D01*
X26471Y-15027D01*
X26435Y-15021D01*
X26350Y-15069D01*
X26350Y-15598D01*
X26789Y-15598D01*
X26851Y-15511D01*
X26851Y-15784D01*
X26789Y-15698D01*
X26350Y-15698D01*
X26350Y-16226D01*
X26435Y-16274D01*
X26471Y-16268D01*
X26659Y-16162D01*
X26793Y-15992D01*
X26851Y-15784D01*
X26851Y-16930D01*
X26250Y-16930D01*
X26250Y-16226D01*
X26250Y-15698D01*
X26250Y-15598D01*
X26250Y-15069D01*
X26164Y-15021D01*
X26128Y-15027D01*
X25940Y-15133D01*
X25806Y-15303D01*
X25750Y-15504D01*
X25750Y-14557D01*
X25750Y-14348D01*
X25715Y-14176D01*
X25618Y-14030D01*
X25545Y-13981D01*
X25545Y-10530D01*
X25545Y-10337D01*
X25482Y-10275D01*
X25050Y-10275D01*
X25050Y-10668D01*
X25112Y-10731D01*
X25245Y-10731D01*
X25344Y-10731D01*
X25436Y-10692D01*
X25506Y-10622D01*
X25545Y-10530D01*
X25545Y-13981D01*
X25472Y-13933D01*
X25300Y-13898D01*
X25185Y-13921D01*
X25199Y-13850D01*
X25200Y-13850D01*
X25200Y-11600D01*
X25184Y-11523D01*
X25184Y-11523D01*
X25170Y-11501D01*
X25141Y-11458D01*
X25141Y-11458D01*
X24950Y-11267D01*
X24950Y-10668D01*
X24950Y-10275D01*
X24517Y-10275D01*
X24455Y-10337D01*
X24455Y-10530D01*
X24493Y-10622D01*
X24563Y-10692D01*
X24655Y-10731D01*
X24754Y-10731D01*
X24887Y-10731D01*
X24950Y-10668D01*
X24950Y-11267D01*
X24200Y-10517D01*
X24200Y-9720D01*
X24288Y-9757D01*
X24410Y-9757D01*
X24523Y-9710D01*
X24555Y-9679D01*
X24555Y-9760D01*
X24556Y-9764D01*
X24493Y-9827D01*
X24455Y-9919D01*
X24455Y-10112D01*
X24517Y-10175D01*
X24950Y-10175D01*
X24950Y-10167D01*
X25050Y-10167D01*
X25050Y-10175D01*
X25482Y-10175D01*
X25545Y-10112D01*
X25545Y-9919D01*
X25506Y-9827D01*
X25443Y-9764D01*
X25445Y-9760D01*
X25445Y-9701D01*
X25445Y-9189D01*
X25422Y-9134D01*
X25379Y-9091D01*
X25324Y-9069D01*
X25265Y-9069D01*
X25200Y-9069D01*
X25200Y-7850D01*
X25184Y-7773D01*
X25184Y-7773D01*
X25141Y-7708D01*
X22582Y-5150D01*
X23350Y-5150D01*
X23426Y-5134D01*
X23491Y-5091D01*
X24441Y-4141D01*
X24484Y-4076D01*
X24484Y-4076D01*
X24487Y-4063D01*
X24499Y-4000D01*
X24500Y-4000D01*
X24500Y-3891D01*
X24618Y-3812D01*
X24715Y-3666D01*
X24750Y-3494D01*
X24750Y-3205D01*
X24715Y-3033D01*
X24618Y-2887D01*
X24500Y-2808D01*
X24500Y-2591D01*
X24618Y-2512D01*
X24715Y-2366D01*
X24750Y-2194D01*
X24750Y-1905D01*
X24715Y-1733D01*
X24618Y-1587D01*
X24472Y-1489D01*
X24300Y-1455D01*
X24127Y-1489D01*
X23981Y-1587D01*
X23884Y-1733D01*
X23850Y-1905D01*
X23850Y-2194D01*
X23884Y-2366D01*
X23981Y-2512D01*
X24100Y-2591D01*
X24100Y-2808D01*
X23981Y-2887D01*
X23884Y-3033D01*
X23850Y-3205D01*
X23850Y-3494D01*
X23884Y-3666D01*
X23981Y-3812D01*
X24100Y-3891D01*
X24100Y-3917D01*
X23750Y-4267D01*
X23750Y-3494D01*
X23750Y-3205D01*
X23715Y-3033D01*
X23618Y-2887D01*
X23472Y-2789D01*
X23406Y-2776D01*
X23441Y-2741D01*
X23484Y-2676D01*
X23484Y-2676D01*
X23487Y-2663D01*
X23499Y-2600D01*
X23500Y-2600D01*
X23500Y-2591D01*
X23618Y-2512D01*
X23715Y-2366D01*
X23750Y-2194D01*
X23750Y-1905D01*
X23715Y-1733D01*
X23618Y-1587D01*
X23472Y-1489D01*
X23300Y-1455D01*
X23127Y-1489D01*
X22981Y-1587D01*
X22884Y-1733D01*
X22850Y-1905D01*
X22850Y-1666D01*
X22850Y-1567D01*
X22811Y-1475D01*
X22741Y-1405D01*
X22649Y-1367D01*
X22412Y-1367D01*
X22350Y-1429D01*
X22350Y-2000D01*
X22357Y-2000D01*
X22357Y-2100D01*
X22350Y-2100D01*
X22350Y-2107D01*
X22250Y-2107D01*
X22250Y-2100D01*
X22250Y-2000D01*
X22250Y-1429D01*
X22187Y-1367D01*
X21950Y-1367D01*
X21858Y-1405D01*
X21788Y-1475D01*
X21750Y-1567D01*
X21750Y-1666D01*
X21750Y-1937D01*
X21812Y-2000D01*
X22250Y-2000D01*
X22250Y-2100D01*
X21812Y-2100D01*
X21750Y-2162D01*
X21750Y-2433D01*
X21750Y-2532D01*
X21788Y-2624D01*
X21790Y-2626D01*
X20817Y-3600D01*
X20445Y-3600D01*
X20445Y-3330D01*
X20445Y-3137D01*
X20382Y-3075D01*
X19950Y-3075D01*
X19950Y-3468D01*
X20012Y-3531D01*
X20145Y-3531D01*
X20244Y-3531D01*
X20336Y-3492D01*
X20406Y-3422D01*
X20445Y-3330D01*
X20445Y-3600D01*
X19850Y-3600D01*
X19850Y-3468D01*
X19850Y-3075D01*
X19417Y-3075D01*
X19400Y-3092D01*
X19382Y-3075D01*
X18950Y-3075D01*
X18950Y-3468D01*
X19012Y-3531D01*
X19145Y-3531D01*
X19244Y-3531D01*
X19336Y-3492D01*
X19400Y-3429D01*
X19463Y-3492D01*
X19555Y-3531D01*
X19654Y-3531D01*
X19787Y-3531D01*
X19850Y-3468D01*
X19850Y-3600D01*
X18850Y-3600D01*
X18850Y-3468D01*
X18850Y-3075D01*
X18417Y-3075D01*
X18355Y-3137D01*
X18355Y-3330D01*
X18393Y-3422D01*
X18463Y-3492D01*
X18555Y-3531D01*
X18654Y-3531D01*
X18787Y-3531D01*
X18850Y-3468D01*
X18850Y-3600D01*
X14382Y-3600D01*
X15641Y-2341D01*
X15641Y-2341D01*
X15684Y-2276D01*
X15684Y-2276D01*
X15687Y-2263D01*
X15699Y-2200D01*
X15700Y-2200D01*
X15700Y-1750D01*
X18350Y-1750D01*
X18426Y-1734D01*
X18491Y-1691D01*
X18684Y-1498D01*
X18700Y-1505D01*
X18700Y-1869D01*
X18575Y-1869D01*
X18520Y-1891D01*
X18477Y-1934D01*
X18455Y-1989D01*
X18455Y-2048D01*
X18455Y-2560D01*
X18456Y-2564D01*
X18393Y-2627D01*
X18355Y-2719D01*
X18355Y-2912D01*
X18417Y-2975D01*
X18850Y-2975D01*
X18850Y-2967D01*
X18950Y-2967D01*
X18950Y-2975D01*
X19382Y-2975D01*
X19400Y-2957D01*
X19417Y-2975D01*
X19850Y-2975D01*
X19850Y-2967D01*
X19950Y-2967D01*
X19950Y-2975D01*
X20382Y-2975D01*
X20445Y-2912D01*
X20445Y-2719D01*
X20406Y-2627D01*
X20343Y-2564D01*
X20345Y-2560D01*
X20345Y-2501D01*
X20345Y-1989D01*
X20322Y-1934D01*
X20279Y-1891D01*
X20224Y-1869D01*
X20165Y-1869D01*
X20100Y-1869D01*
X20100Y-1505D01*
X20207Y-1461D01*
X20360Y-1308D01*
X20443Y-1108D01*
X20443Y-892D01*
X20361Y-692D01*
X20208Y-539D01*
X20008Y-456D01*
X19792Y-456D01*
X19592Y-538D01*
X19439Y-691D01*
X19400Y-786D01*
X19361Y-692D01*
X19208Y-539D01*
X19008Y-456D01*
X18792Y-456D01*
X18592Y-538D01*
X18439Y-691D01*
X18356Y-891D01*
X18356Y-1107D01*
X18401Y-1215D01*
X18267Y-1350D01*
X17933Y-1350D01*
X17933Y-692D01*
X17850Y-492D01*
X17698Y-339D01*
X17498Y-256D01*
X17282Y-256D01*
X17082Y-338D01*
X16929Y-491D01*
X16846Y-691D01*
X16845Y-907D01*
X16928Y-1107D01*
X17081Y-1260D01*
X17281Y-1343D01*
X17497Y-1343D01*
X17697Y-1261D01*
X17850Y-1108D01*
X17933Y-908D01*
X17933Y-692D01*
X17933Y-1350D01*
X15700Y-1350D01*
X15700Y-1199D01*
X15751Y-1177D01*
X15877Y-1052D01*
X15893Y-1013D01*
X15909Y-1051D01*
X16034Y-1177D01*
X16198Y-1245D01*
X16375Y-1245D01*
X16539Y-1177D01*
X16664Y-1052D01*
X16732Y-888D01*
X16732Y-711D01*
X16665Y-548D01*
X16539Y-422D01*
X16376Y-354D01*
X16199Y-354D01*
X16035Y-422D01*
X15910Y-547D01*
X15893Y-586D01*
X15877Y-548D01*
X15752Y-422D01*
X15588Y-354D01*
X15411Y-354D01*
X15248Y-422D01*
X15162Y-507D01*
X15095Y-488D01*
X15024Y-558D01*
X15024Y-417D01*
X14997Y-322D01*
X14793Y-249D01*
X14576Y-260D01*
X14427Y-322D01*
X14400Y-417D01*
X14712Y-729D01*
X15024Y-417D01*
X15024Y-558D01*
X14783Y-800D01*
X15095Y-1111D01*
X15162Y-1092D01*
X15247Y-1177D01*
X15300Y-1199D01*
X15300Y-1550D01*
X15300Y-2117D01*
X15024Y-2392D01*
X15024Y-1182D01*
X14712Y-870D01*
X14641Y-941D01*
X14641Y-800D01*
X14330Y-488D01*
X14235Y-514D01*
X14162Y-719D01*
X14173Y-936D01*
X14235Y-1085D01*
X14330Y-1111D01*
X14641Y-800D01*
X14641Y-941D01*
X14400Y-1182D01*
X14427Y-1277D01*
X14631Y-1350D01*
X14848Y-1339D01*
X14997Y-1277D01*
X15024Y-1182D01*
X15024Y-2392D01*
X14154Y-3263D01*
X14154Y-692D01*
X14071Y-492D01*
X13918Y-339D01*
X13718Y-256D01*
X13502Y-256D01*
X13302Y-338D01*
X13149Y-491D01*
X13066Y-691D01*
X13066Y-907D01*
X13149Y-1107D01*
X13301Y-1260D01*
X13501Y-1343D01*
X13717Y-1343D01*
X13917Y-1261D01*
X14070Y-1108D01*
X14153Y-908D01*
X14154Y-692D01*
X14154Y-3263D01*
X14017Y-3400D01*
X10800Y-3400D01*
X10723Y-3415D01*
X10658Y-3458D01*
X10070Y-4046D01*
X9996Y-4015D01*
X9804Y-4015D01*
X9625Y-4089D01*
X9489Y-4225D01*
X9415Y-4403D01*
X9415Y-4595D01*
X9489Y-4774D01*
X9625Y-4910D01*
X9803Y-4984D01*
X9995Y-4984D01*
X10174Y-4910D01*
X10310Y-4774D01*
X10384Y-4596D01*
X10384Y-4404D01*
X10353Y-4329D01*
X10882Y-3800D01*
X11317Y-3800D01*
X11070Y-4046D01*
X10996Y-4015D01*
X10804Y-4015D01*
X10625Y-4089D01*
X10489Y-4225D01*
X10415Y-4403D01*
X10415Y-4595D01*
X10489Y-4774D01*
X10625Y-4910D01*
X10803Y-4984D01*
X10995Y-4984D01*
X11174Y-4910D01*
X11310Y-4774D01*
X11384Y-4596D01*
X11384Y-4404D01*
X11353Y-4329D01*
X11682Y-4000D01*
X12117Y-4000D01*
X12070Y-4046D01*
X11996Y-4015D01*
X11804Y-4015D01*
X11625Y-4089D01*
X11489Y-4225D01*
X11415Y-4403D01*
X11415Y-4595D01*
X11489Y-4774D01*
X11625Y-4910D01*
X11803Y-4984D01*
X11995Y-4984D01*
X12174Y-4910D01*
X12310Y-4774D01*
X12384Y-4596D01*
X12384Y-4404D01*
X12353Y-4329D01*
X12482Y-4200D01*
X12514Y-4200D01*
X12489Y-4225D01*
X12415Y-4403D01*
X12415Y-4595D01*
X12489Y-4774D01*
X12625Y-4910D01*
X12803Y-4984D01*
X12995Y-4984D01*
X13174Y-4910D01*
X13310Y-4774D01*
X13384Y-4596D01*
X13384Y-4404D01*
X13310Y-4225D01*
X13285Y-4200D01*
X23100Y-4200D01*
X23176Y-4184D01*
X23241Y-4141D01*
X23441Y-3941D01*
X23441Y-3941D01*
X23460Y-3912D01*
X23472Y-3910D01*
X23618Y-3812D01*
X23715Y-3666D01*
X23750Y-3494D01*
X23750Y-4267D01*
X23267Y-4750D01*
X22100Y-4750D01*
X13450Y-4750D01*
X13386Y-4762D01*
X13373Y-4765D01*
X13308Y-4808D01*
X13070Y-5046D01*
X12996Y-5015D01*
X12804Y-5015D01*
X12625Y-5089D01*
X12489Y-5225D01*
X12415Y-5403D01*
X12415Y-5595D01*
X12446Y-5670D01*
X12317Y-5800D01*
X12285Y-5800D01*
X12310Y-5774D01*
X12384Y-5596D01*
X12384Y-5404D01*
X12310Y-5225D01*
X12174Y-5089D01*
X11996Y-5015D01*
X11804Y-5015D01*
X11625Y-5089D01*
X11489Y-5225D01*
X11415Y-5403D01*
X11415Y-5595D01*
X11489Y-5774D01*
X11514Y-5800D01*
X11285Y-5800D01*
X11310Y-5774D01*
X11384Y-5596D01*
X11384Y-5404D01*
X11310Y-5225D01*
X11174Y-5089D01*
X10996Y-5015D01*
X10804Y-5015D01*
X10625Y-5089D01*
X10489Y-5225D01*
X10415Y-5403D01*
X10415Y-5595D01*
X10489Y-5774D01*
X10514Y-5800D01*
X10285Y-5800D01*
X10310Y-5774D01*
X10384Y-5596D01*
X10384Y-5404D01*
X10310Y-5225D01*
X10174Y-5089D01*
X9996Y-5015D01*
X9804Y-5015D01*
X9625Y-5089D01*
X9489Y-5225D01*
X9415Y-5403D01*
X9415Y-5595D01*
X9489Y-5774D01*
X9514Y-5800D01*
X9285Y-5800D01*
X9310Y-5774D01*
X9384Y-5596D01*
X9384Y-5404D01*
X9384Y-4404D01*
X9310Y-4225D01*
X9174Y-4089D01*
X8996Y-4015D01*
X8804Y-4015D01*
X8625Y-4089D01*
X8489Y-4225D01*
X8415Y-4403D01*
X8415Y-4595D01*
X8489Y-4774D01*
X8625Y-4910D01*
X8803Y-4984D01*
X8995Y-4984D01*
X9174Y-4910D01*
X9310Y-4774D01*
X9384Y-4596D01*
X9384Y-4404D01*
X9384Y-5404D01*
X9310Y-5225D01*
X9174Y-5089D01*
X8996Y-5015D01*
X8804Y-5015D01*
X8625Y-5089D01*
X8489Y-5225D01*
X8415Y-5403D01*
X8415Y-5595D01*
X8489Y-5774D01*
X8625Y-5910D01*
X8647Y-5919D01*
X8384Y-6182D01*
X8384Y-5404D01*
X8384Y-4404D01*
X8310Y-4225D01*
X8174Y-4089D01*
X7996Y-4015D01*
X7804Y-4015D01*
X7625Y-4089D01*
X7489Y-4225D01*
X7415Y-4403D01*
X7415Y-4595D01*
X7489Y-4774D01*
X7625Y-4910D01*
X7803Y-4984D01*
X7995Y-4984D01*
X8174Y-4910D01*
X8310Y-4774D01*
X8384Y-4596D01*
X8384Y-4404D01*
X8384Y-5404D01*
X8310Y-5225D01*
X8174Y-5089D01*
X7996Y-5015D01*
X7804Y-5015D01*
X7625Y-5089D01*
X7489Y-5225D01*
X7415Y-5403D01*
X7415Y-5595D01*
X7489Y-5774D01*
X7625Y-5910D01*
X7704Y-5943D01*
X7591Y-5990D01*
X7559Y-6089D01*
X7900Y-6429D01*
X8240Y-6089D01*
X8208Y-5990D01*
X8088Y-5946D01*
X8174Y-5910D01*
X8310Y-5774D01*
X8384Y-5596D01*
X8384Y-5404D01*
X8384Y-6182D01*
X8384Y-6183D01*
X8310Y-6159D01*
X7970Y-6500D01*
X7976Y-6505D01*
X7905Y-6576D01*
X7900Y-6570D01*
X7559Y-6910D01*
X7591Y-7009D01*
X7711Y-7053D01*
X7625Y-7089D01*
X7489Y-7225D01*
X7415Y-7403D01*
X7415Y-7595D01*
X7446Y-7670D01*
X7317Y-7800D01*
X7285Y-7800D01*
X7310Y-7774D01*
X7384Y-7596D01*
X7384Y-7404D01*
X7310Y-7225D01*
X7174Y-7089D01*
X6996Y-7015D01*
X6804Y-7015D01*
X6625Y-7089D01*
X6600Y-7114D01*
X6600Y-7082D01*
X6729Y-6953D01*
X6803Y-6984D01*
X6995Y-6984D01*
X7174Y-6910D01*
X7310Y-6774D01*
X7343Y-6695D01*
X7390Y-6808D01*
X7489Y-6840D01*
X7829Y-6500D01*
X7489Y-6159D01*
X7390Y-6191D01*
X7384Y-6206D01*
X7384Y-5404D01*
X7310Y-5225D01*
X7174Y-5089D01*
X6996Y-5015D01*
X6804Y-5015D01*
X6625Y-5089D01*
X6489Y-5225D01*
X6415Y-5403D01*
X6415Y-5595D01*
X6489Y-5774D01*
X6625Y-5910D01*
X6803Y-5984D01*
X6995Y-5984D01*
X7174Y-5910D01*
X7310Y-5774D01*
X7384Y-5596D01*
X7384Y-5404D01*
X7384Y-6206D01*
X7346Y-6311D01*
X7310Y-6225D01*
X7174Y-6089D01*
X6996Y-6015D01*
X6804Y-6015D01*
X6625Y-6089D01*
X6489Y-6225D01*
X6415Y-6403D01*
X6415Y-6595D01*
X6446Y-6670D01*
X6258Y-6858D01*
X6215Y-6923D01*
X6200Y-7000D01*
X6200Y-7917D01*
X5508Y-8608D01*
X5465Y-8673D01*
X5455Y-8722D01*
X5091Y-8358D01*
X5071Y-8345D01*
X5112Y-8318D01*
X5210Y-8172D01*
X5244Y-8000D01*
X5244Y-7000D01*
X5244Y-6000D01*
X5210Y-5827D01*
X5112Y-5681D01*
X4966Y-5584D01*
X4794Y-5550D01*
X4505Y-5550D01*
X4352Y-5580D01*
X4486Y-5446D01*
X4505Y-5450D01*
X4794Y-5450D01*
X4966Y-5415D01*
X5112Y-5318D01*
X5210Y-5172D01*
X5244Y-5000D01*
X5210Y-4827D01*
X5112Y-4681D01*
X4966Y-4584D01*
X4794Y-4550D01*
X4505Y-4550D01*
X4333Y-4584D01*
X4187Y-4681D01*
X4089Y-4827D01*
X4055Y-5000D01*
X4089Y-5172D01*
X4131Y-5235D01*
X3517Y-5850D01*
X3099Y-5850D01*
X3020Y-5731D01*
X2874Y-5634D01*
X2702Y-5600D01*
X2493Y-5600D01*
X2321Y-5634D01*
X2175Y-5731D01*
X2078Y-5877D01*
X2043Y-6050D01*
X2078Y-6222D01*
X2175Y-6368D01*
X2321Y-6465D01*
X2493Y-6500D01*
X2702Y-6500D01*
X2874Y-6465D01*
X3020Y-6368D01*
X3099Y-6250D01*
X3600Y-6250D01*
X3676Y-6234D01*
X3741Y-6191D01*
X4086Y-5846D01*
X4055Y-6000D01*
X4089Y-6172D01*
X4187Y-6318D01*
X4333Y-6415D01*
X4505Y-6450D01*
X4794Y-6450D01*
X4966Y-6415D01*
X5112Y-6318D01*
X5210Y-6172D01*
X5244Y-6000D01*
X5244Y-7000D01*
X5210Y-6827D01*
X5112Y-6681D01*
X4966Y-6584D01*
X4794Y-6550D01*
X4505Y-6550D01*
X4333Y-6584D01*
X4187Y-6681D01*
X4089Y-6827D01*
X4055Y-7000D01*
X4089Y-7172D01*
X4187Y-7318D01*
X4333Y-7415D01*
X4505Y-7450D01*
X4794Y-7450D01*
X4966Y-7415D01*
X5112Y-7318D01*
X5210Y-7172D01*
X5244Y-7000D01*
X5244Y-8000D01*
X5210Y-7827D01*
X5112Y-7681D01*
X4966Y-7584D01*
X4794Y-7550D01*
X4505Y-7550D01*
X4333Y-7584D01*
X4187Y-7681D01*
X4108Y-7800D01*
X3532Y-7800D01*
X3133Y-7400D01*
X3141Y-7379D01*
X3141Y-7320D01*
X3141Y-6720D01*
X3118Y-6665D01*
X3076Y-6622D01*
X3021Y-6600D01*
X2961Y-6600D01*
X2174Y-6600D01*
X2119Y-6622D01*
X2077Y-6665D01*
X2054Y-6720D01*
X2054Y-6779D01*
X2054Y-7379D01*
X2077Y-7434D01*
X2119Y-7477D01*
X2174Y-7500D01*
X2234Y-7500D01*
X2667Y-7500D01*
X3308Y-8141D01*
X3373Y-8184D01*
X3373Y-8184D01*
X3386Y-8187D01*
X3450Y-8200D01*
X4108Y-8200D01*
X4175Y-8300D01*
X3167Y-8300D01*
X3103Y-8312D01*
X3090Y-8315D01*
X3025Y-8358D01*
X3014Y-8370D01*
X2802Y-8370D01*
X2747Y-8392D01*
X2704Y-8435D01*
X2682Y-8490D01*
X2682Y-8549D01*
X2682Y-8943D01*
X2704Y-8998D01*
X2747Y-9041D01*
X2802Y-9064D01*
X2861Y-9064D01*
X3097Y-9064D01*
X3152Y-9041D01*
X3195Y-8998D01*
X3218Y-8943D01*
X3218Y-8884D01*
X3218Y-8731D01*
X3249Y-8700D01*
X4175Y-8700D01*
X4089Y-8827D01*
X4055Y-9000D01*
X4089Y-9172D01*
X4187Y-9318D01*
X4333Y-9415D01*
X4505Y-9450D01*
X4266Y-9450D01*
X4167Y-9450D01*
X4075Y-9488D01*
X4005Y-9558D01*
X3967Y-9650D01*
X3967Y-9887D01*
X4029Y-9950D01*
X4600Y-9950D01*
X4600Y-9512D01*
X4537Y-9450D01*
X4762Y-9450D01*
X4700Y-9512D01*
X4700Y-9950D01*
X4707Y-9950D01*
X4707Y-10050D01*
X4700Y-10050D01*
X4700Y-10057D01*
X4600Y-10057D01*
X4600Y-10050D01*
X4029Y-10050D01*
X3967Y-10112D01*
X3967Y-10250D01*
X3750Y-10250D01*
X3673Y-10265D01*
X3608Y-10308D01*
X2799Y-11117D01*
X2756Y-11182D01*
X2741Y-11259D01*
X2741Y-11635D01*
X2478Y-11635D01*
X2423Y-11657D01*
X2413Y-11667D01*
X2403Y-11643D01*
X2333Y-11573D01*
X2241Y-11535D01*
X1871Y-11535D01*
X1809Y-11597D01*
X1809Y-12050D01*
X1816Y-12050D01*
X1816Y-12150D01*
X1809Y-12150D01*
X1809Y-12602D01*
X1871Y-12665D01*
X2241Y-12665D01*
X2333Y-12626D01*
X2403Y-12556D01*
X2413Y-12532D01*
X2423Y-12542D01*
X2478Y-12565D01*
X2537Y-12565D01*
X2741Y-12565D01*
X2741Y-13191D01*
X2756Y-13267D01*
X2799Y-13332D01*
X3382Y-13915D01*
X3300Y-13898D01*
X3127Y-13933D01*
X2981Y-14030D01*
X2884Y-14176D01*
X2851Y-14338D01*
X2850Y-14348D01*
X2850Y-14402D01*
X2789Y-14402D01*
X2851Y-14316D01*
X2793Y-14108D01*
X2659Y-13938D01*
X2471Y-13832D01*
X2435Y-13826D01*
X2350Y-13874D01*
X2350Y-14403D01*
X2357Y-14403D01*
X2357Y-14503D01*
X2350Y-14503D01*
X2350Y-14510D01*
X2250Y-14510D01*
X2250Y-14503D01*
X2242Y-14503D01*
X2242Y-14403D01*
X2250Y-14403D01*
X2250Y-13874D01*
X2164Y-13826D01*
X2128Y-13832D01*
X1940Y-13938D01*
X1806Y-14108D01*
X1748Y-14316D01*
X1810Y-14402D01*
X1785Y-14402D01*
X1350Y-13967D01*
X1350Y-12665D01*
X1646Y-12665D01*
X1709Y-12602D01*
X1709Y-12150D01*
X1701Y-12150D01*
X1701Y-12050D01*
X1709Y-12050D01*
X1709Y-11597D01*
X1646Y-11535D01*
X1350Y-11535D01*
X1350Y-10731D01*
X1624Y-10731D01*
X1679Y-10708D01*
X1722Y-10665D01*
X1745Y-10610D01*
X1745Y-10551D01*
X1745Y-10039D01*
X1722Y-9984D01*
X1688Y-9950D01*
X1722Y-9915D01*
X1745Y-9860D01*
X1745Y-9801D01*
X1745Y-9775D01*
X1782Y-9775D01*
X1782Y-9809D01*
X1804Y-9864D01*
X1847Y-9907D01*
X1902Y-9930D01*
X1961Y-9930D01*
X2197Y-9930D01*
X2252Y-9907D01*
X2295Y-9864D01*
X2318Y-9809D01*
X2318Y-9783D01*
X2682Y-9783D01*
X2682Y-9809D01*
X2704Y-9864D01*
X2747Y-9907D01*
X2802Y-9930D01*
X2861Y-9930D01*
X3097Y-9930D01*
X3152Y-9907D01*
X3195Y-9864D01*
X3218Y-9809D01*
X3218Y-9750D01*
X3218Y-9356D01*
X3195Y-9301D01*
X3152Y-9258D01*
X3097Y-9236D01*
X3038Y-9236D01*
X2802Y-9236D01*
X2747Y-9258D01*
X2704Y-9301D01*
X2682Y-9356D01*
X2682Y-9383D01*
X2357Y-9383D01*
X2357Y-8039D01*
X2310Y-7926D01*
X2224Y-7839D01*
X2111Y-7792D01*
X1989Y-7792D01*
X1876Y-7839D01*
X1789Y-7925D01*
X1742Y-8038D01*
X1742Y-8160D01*
X1789Y-8273D01*
X1850Y-8334D01*
X1850Y-8391D01*
X1847Y-8392D01*
X1804Y-8435D01*
X1782Y-8490D01*
X1782Y-8549D01*
X1782Y-8943D01*
X1804Y-8998D01*
X1847Y-9041D01*
X1902Y-9064D01*
X1961Y-9064D01*
X2197Y-9064D01*
X2252Y-9041D01*
X2295Y-8998D01*
X2318Y-8943D01*
X2318Y-8884D01*
X2318Y-8490D01*
X2295Y-8435D01*
X2252Y-8392D01*
X2250Y-8391D01*
X2250Y-8334D01*
X2310Y-8274D01*
X2357Y-8161D01*
X2357Y-8039D01*
X2357Y-9383D01*
X2318Y-9383D01*
X2318Y-9356D01*
X2295Y-9301D01*
X2252Y-9258D01*
X2197Y-9236D01*
X2138Y-9236D01*
X1902Y-9236D01*
X1847Y-9258D01*
X1804Y-9301D01*
X1782Y-9356D01*
X1782Y-9375D01*
X1745Y-9375D01*
X1745Y-9289D01*
X1722Y-9234D01*
X1679Y-9191D01*
X1624Y-9169D01*
X1565Y-9169D01*
X1500Y-9169D01*
X1500Y-7500D01*
X1506Y-7500D01*
X1678Y-7465D01*
X1824Y-7368D01*
X1921Y-7222D01*
X1956Y-7050D01*
X1921Y-6877D01*
X1824Y-6731D01*
X1678Y-6634D01*
X1506Y-6600D01*
X1297Y-6600D01*
X1216Y-6616D01*
X1332Y-6500D01*
X1506Y-6500D01*
X1678Y-6465D01*
X1824Y-6368D01*
X1921Y-6222D01*
X1956Y-6050D01*
X1921Y-5877D01*
X1824Y-5731D01*
X1678Y-5634D01*
X1506Y-5600D01*
X1297Y-5600D01*
X1125Y-5634D01*
X979Y-5731D01*
X882Y-5877D01*
X847Y-6050D01*
X882Y-6222D01*
X947Y-6319D01*
X708Y-6558D01*
X665Y-6623D01*
X650Y-6700D01*
X650Y-14950D01*
X665Y-15026D01*
X708Y-15091D01*
X1958Y-16341D01*
X2023Y-16384D01*
X2100Y-16400D01*
X13750Y-16400D01*
X13826Y-16384D01*
X13891Y-16341D01*
X14090Y-16142D01*
X14127Y-16167D01*
X14300Y-16202D01*
X14472Y-16167D01*
X14618Y-16070D01*
X14715Y-15924D01*
X14750Y-15752D01*
X14750Y-15543D01*
X14715Y-15371D01*
X14618Y-15225D01*
X14472Y-15128D01*
X14300Y-15093D01*
X14155Y-15122D01*
X14000Y-14967D01*
X14000Y-14887D01*
X14127Y-14972D01*
X14300Y-15007D01*
X14472Y-14972D01*
X14600Y-14887D01*
X14600Y-15050D01*
X14615Y-15126D01*
X14658Y-15191D01*
X14876Y-15409D01*
X14850Y-15543D01*
X14850Y-15752D01*
X14884Y-15924D01*
X14981Y-16070D01*
X15127Y-16167D01*
X15300Y-16202D01*
X15472Y-16167D01*
X15618Y-16070D01*
X15715Y-15924D01*
X15750Y-15752D01*
X15750Y-15543D01*
X15715Y-15371D01*
X15618Y-15225D01*
X15472Y-15128D01*
X15300Y-15093D01*
X15155Y-15122D01*
X15000Y-14967D01*
X15000Y-14887D01*
X15127Y-14972D01*
X15300Y-15007D01*
X15472Y-14972D01*
X15600Y-14887D01*
X15600Y-15050D01*
X15615Y-15126D01*
X15658Y-15191D01*
X15876Y-15409D01*
X15850Y-15543D01*
X15850Y-15752D01*
X15884Y-15924D01*
X15981Y-16070D01*
X16127Y-16167D01*
X16300Y-16202D01*
X16472Y-16167D01*
X16618Y-16070D01*
X16715Y-15924D01*
X16750Y-15752D01*
X16750Y-15543D01*
X16715Y-15371D01*
X16618Y-15225D01*
X16472Y-15128D01*
X16300Y-15093D01*
X16155Y-15122D01*
X16000Y-14967D01*
X16000Y-14887D01*
X16127Y-14972D01*
X16300Y-15007D01*
X16472Y-14972D01*
X16600Y-14887D01*
X16600Y-15050D01*
X16615Y-15126D01*
X16658Y-15191D01*
X16876Y-15409D01*
X16850Y-15543D01*
X16850Y-15752D01*
X16884Y-15924D01*
X16981Y-16070D01*
X17127Y-16167D01*
X17300Y-16202D01*
X17394Y-16183D01*
X17392Y-16188D01*
X17392Y-16310D01*
X17439Y-16423D01*
X17525Y-16510D01*
X17638Y-16557D01*
X17760Y-16557D01*
X17873Y-16510D01*
X17960Y-16424D01*
X18007Y-16311D01*
X18007Y-16189D01*
X17997Y-16164D01*
X17999Y-16150D01*
X18000Y-16150D01*
X18000Y-16082D01*
X18127Y-16167D01*
X18300Y-16202D01*
X18472Y-16167D01*
X18618Y-16070D01*
X18715Y-15924D01*
X18750Y-15752D01*
X18750Y-15543D01*
X18715Y-15371D01*
X18618Y-15225D01*
X18472Y-15128D01*
X18300Y-15093D01*
X18127Y-15128D01*
X18000Y-15213D01*
X18000Y-14887D01*
X18127Y-14972D01*
X18300Y-15007D01*
X18472Y-14972D01*
X18618Y-14875D01*
X18715Y-14729D01*
X18750Y-14557D01*
X18750Y-14348D01*
X18715Y-14176D01*
X18618Y-14030D01*
X18500Y-13951D01*
X18500Y-13800D01*
X18484Y-13723D01*
X18441Y-13658D01*
X18150Y-13367D01*
X18150Y-12582D01*
X18941Y-11791D01*
X18947Y-11782D01*
X19025Y-11860D01*
X19100Y-11891D01*
X19100Y-12100D01*
X19115Y-12176D01*
X19158Y-12241D01*
X19458Y-12541D01*
X19523Y-12584D01*
X19600Y-12600D01*
X20979Y-12600D01*
X20989Y-12623D01*
X21075Y-12710D01*
X21188Y-12757D01*
X21310Y-12757D01*
X21423Y-12710D01*
X21510Y-12624D01*
X21534Y-12567D01*
X21842Y-12875D01*
X20645Y-14071D01*
X20618Y-14030D01*
X20472Y-13933D01*
X20300Y-13898D01*
X20127Y-13933D01*
X19981Y-14030D01*
X19884Y-14176D01*
X19850Y-14348D01*
X19850Y-14557D01*
X19884Y-14729D01*
X19981Y-14875D01*
X20127Y-14972D01*
X20300Y-15007D01*
X20472Y-14972D01*
X20618Y-14875D01*
X20715Y-14729D01*
X20750Y-14557D01*
X20750Y-14532D01*
X20850Y-14432D01*
X20850Y-14557D01*
X20884Y-14729D01*
X20981Y-14875D01*
X21127Y-14972D01*
X21300Y-15007D01*
X21472Y-14972D01*
X21600Y-14887D01*
X21600Y-14967D01*
X21444Y-15122D01*
X21300Y-15093D01*
X21127Y-15128D01*
X20981Y-15225D01*
X20884Y-15371D01*
X20850Y-15543D01*
X20850Y-15752D01*
X20884Y-15924D01*
X20981Y-16070D01*
X21127Y-16167D01*
X21300Y-16202D01*
X21472Y-16167D01*
X21618Y-16070D01*
X21715Y-15924D01*
X21750Y-15752D01*
X21750Y-15543D01*
X21723Y-15409D01*
X21941Y-15191D01*
X21984Y-15126D01*
X21984Y-15126D01*
X21987Y-15113D01*
X21999Y-15050D01*
X22000Y-15050D01*
X22000Y-14887D01*
X22127Y-14972D01*
X22300Y-15007D01*
X22472Y-14972D01*
X22618Y-14875D01*
X22715Y-14729D01*
X22750Y-14557D01*
X22750Y-14348D01*
X22715Y-14176D01*
X22618Y-14030D01*
X22472Y-13933D01*
X22300Y-13898D01*
X22127Y-13933D01*
X22000Y-14018D01*
X22000Y-13882D01*
X22332Y-13550D01*
X24150Y-13550D01*
X24226Y-13534D01*
X24291Y-13491D01*
X24575Y-13207D01*
X24660Y-13207D01*
X24773Y-13160D01*
X24800Y-13134D01*
X24800Y-13767D01*
X24658Y-13908D01*
X24615Y-13973D01*
X24605Y-14022D01*
X24472Y-13933D01*
X24300Y-13898D01*
X24127Y-13933D01*
X23981Y-14030D01*
X23884Y-14176D01*
X23850Y-14348D01*
X23850Y-14557D01*
X23857Y-14592D01*
X23742Y-14592D01*
X23750Y-14557D01*
X23750Y-14348D01*
X23715Y-14176D01*
X23618Y-14030D01*
X23472Y-13933D01*
X23300Y-13898D01*
X23127Y-13933D01*
X22981Y-14030D01*
X22884Y-14176D01*
X22850Y-14348D01*
X22850Y-14557D01*
X22884Y-14729D01*
X22964Y-14850D01*
X22800Y-14850D01*
X22736Y-14862D01*
X22723Y-14865D01*
X22658Y-14908D01*
X22444Y-15122D01*
X22300Y-15093D01*
X22127Y-15128D01*
X21981Y-15225D01*
X21884Y-15371D01*
X21850Y-15543D01*
X21850Y-15752D01*
X21884Y-15924D01*
X21981Y-16070D01*
X22127Y-16167D01*
X22300Y-16202D01*
X22472Y-16167D01*
X22618Y-16070D01*
X22715Y-15924D01*
X22750Y-15752D01*
X22750Y-15543D01*
X22723Y-15409D01*
X22882Y-15250D01*
X22965Y-15250D01*
X22884Y-15371D01*
X22850Y-15543D01*
X22850Y-15752D01*
X22884Y-15924D01*
X22981Y-16070D01*
X23127Y-16167D01*
X23300Y-16202D01*
X23472Y-16167D01*
X23618Y-16070D01*
X23715Y-15924D01*
X23750Y-15752D01*
X23750Y-15543D01*
X23715Y-15371D01*
X23634Y-15250D01*
X23650Y-15250D01*
X23726Y-15234D01*
X23767Y-15207D01*
X23860Y-15207D01*
X23973Y-15160D01*
X24060Y-15074D01*
X24107Y-14961D01*
X24107Y-14959D01*
X24127Y-14972D01*
X24224Y-14992D01*
X24158Y-15058D01*
X24115Y-15123D01*
X24112Y-15138D01*
X23981Y-15225D01*
X23884Y-15371D01*
X23850Y-15543D01*
X23850Y-15752D01*
X23884Y-15924D01*
X23981Y-16070D01*
X24127Y-16167D01*
X24300Y-16202D01*
X24472Y-16167D01*
X24618Y-16070D01*
X24715Y-15924D01*
X24750Y-15752D01*
X24750Y-15543D01*
X24715Y-15371D01*
X24618Y-15225D01*
X24581Y-15201D01*
X24941Y-14841D01*
X24950Y-14828D01*
X24981Y-14875D01*
X25127Y-14972D01*
X25300Y-15007D01*
X25472Y-14972D01*
X25618Y-14875D01*
X25715Y-14729D01*
X25750Y-14557D01*
X25750Y-15504D01*
X25748Y-15511D01*
X25810Y-15598D01*
X26250Y-15598D01*
X26250Y-15698D01*
X25810Y-15698D01*
X25750Y-15782D01*
X25750Y-15752D01*
X25750Y-15543D01*
X25715Y-15371D01*
X25618Y-15225D01*
X25472Y-15128D01*
X25300Y-15093D01*
X25127Y-15128D01*
X24981Y-15225D01*
X24884Y-15371D01*
X24850Y-15543D01*
X24850Y-15752D01*
X24884Y-15924D01*
X24981Y-16070D01*
X25127Y-16167D01*
X25300Y-16202D01*
X25472Y-16167D01*
X25618Y-16070D01*
X25715Y-15924D01*
X25750Y-15752D01*
X25750Y-15782D01*
X25748Y-15784D01*
X25806Y-15992D01*
X25940Y-16162D01*
X26128Y-16268D01*
X26164Y-16274D01*
X26250Y-16226D01*
X26250Y-16930D01*
X20750Y-16930D01*
X20750Y-15752D01*
X20750Y-15543D01*
X20715Y-15371D01*
X20618Y-15225D01*
X20472Y-15128D01*
X20300Y-15093D01*
X20127Y-15128D01*
X19981Y-15225D01*
X19884Y-15371D01*
X19850Y-15543D01*
X19850Y-15752D01*
X19884Y-15924D01*
X19981Y-16070D01*
X20127Y-16167D01*
X20300Y-16202D01*
X20472Y-16167D01*
X20618Y-16070D01*
X20715Y-15924D01*
X20750Y-15752D01*
X20750Y-16930D01*
X19750Y-16930D01*
X19750Y-15752D01*
X19750Y-15543D01*
X19750Y-14557D01*
X19750Y-14348D01*
X19715Y-14176D01*
X19618Y-14030D01*
X19472Y-13933D01*
X19300Y-13898D01*
X19127Y-13933D01*
X18981Y-14030D01*
X18884Y-14176D01*
X18850Y-14348D01*
X18850Y-14557D01*
X18884Y-14729D01*
X18981Y-14875D01*
X19127Y-14972D01*
X19300Y-15007D01*
X19472Y-14972D01*
X19618Y-14875D01*
X19715Y-14729D01*
X19750Y-14557D01*
X19750Y-15543D01*
X19715Y-15371D01*
X19618Y-15225D01*
X19472Y-15128D01*
X19300Y-15093D01*
X19127Y-15128D01*
X18981Y-15225D01*
X18884Y-15371D01*
X18850Y-15543D01*
X18850Y-15752D01*
X18884Y-15924D01*
X18981Y-16070D01*
X19127Y-16167D01*
X19300Y-16202D01*
X19472Y-16167D01*
X19618Y-16070D01*
X19715Y-15924D01*
X19750Y-15752D01*
X19750Y-16930D01*
X169Y-16930D01*
X169Y-169D01*
X28430Y-169D01*
X28430Y-16930D01*
M02*
