G04 (created by PCBNEW (2013-07-20 BZR 4243)-testing) date 22/04/2014 10:38:31 PM*
%MOIN*%
G04 Gerber Fmt 3.4, Leading zero omitted, Abs format*
%FSLAX34Y34*%
G01*
G70*
G90*
G04 APERTURE LIST*
%ADD10C,0.005906*%
%ADD11C,0.011811*%
%ADD12C,0.003937*%
%ADD13C,0.005000*%
%ADD14R,0.059000X0.051200*%
%ADD15R,0.051200X0.059000*%
%ADD16R,0.060000X0.078700*%
%ADD17O,0.060000X0.078700*%
%ADD18C,0.066900*%
%ADD19C,0.078700*%
%ADD20R,0.060000X0.086600*%
%ADD21O,0.060000X0.086600*%
%ADD22R,0.078700X0.060000*%
%ADD23O,0.078700X0.060000*%
%ADD24R,0.086600X0.060000*%
%ADD25O,0.086600X0.060000*%
G04 APERTURE END LIST*
G54D10*
G54D11*
X11786Y-1982D02*
X11758Y-1954D01*
X11702Y-1926D01*
X11561Y-1926D01*
X11505Y-1954D01*
X11477Y-1982D01*
X11449Y-2039D01*
X11449Y-2095D01*
X11477Y-2179D01*
X11814Y-2517D01*
X11449Y-2517D01*
X11083Y-1926D02*
X11027Y-1926D01*
X10971Y-1954D01*
X10943Y-1982D01*
X10915Y-2039D01*
X10886Y-2151D01*
X10886Y-2292D01*
X10915Y-2404D01*
X10943Y-2460D01*
X10971Y-2489D01*
X11027Y-2517D01*
X11083Y-2517D01*
X11140Y-2489D01*
X11168Y-2460D01*
X11196Y-2404D01*
X11224Y-2292D01*
X11224Y-2151D01*
X11196Y-2039D01*
X11168Y-1982D01*
X11140Y-1954D01*
X11083Y-1926D01*
X10324Y-2517D02*
X10661Y-2517D01*
X10493Y-2517D02*
X10493Y-1926D01*
X10549Y-2010D01*
X10605Y-2067D01*
X10661Y-2095D01*
X9818Y-2123D02*
X9818Y-2517D01*
X9958Y-1898D02*
X10099Y-2320D01*
X9733Y-2320D01*
X9059Y-2123D02*
X9059Y-2714D01*
X9059Y-2151D02*
X9002Y-2123D01*
X8890Y-2123D01*
X8834Y-2151D01*
X8805Y-2179D01*
X8777Y-2235D01*
X8777Y-2404D01*
X8805Y-2460D01*
X8834Y-2489D01*
X8890Y-2517D01*
X9002Y-2517D01*
X9059Y-2489D01*
X8299Y-2489D02*
X8356Y-2517D01*
X8468Y-2517D01*
X8524Y-2489D01*
X8552Y-2432D01*
X8552Y-2207D01*
X8524Y-2151D01*
X8468Y-2123D01*
X8356Y-2123D01*
X8299Y-2151D01*
X8271Y-2207D01*
X8271Y-2264D01*
X8552Y-2320D01*
X7934Y-2517D02*
X7990Y-2489D01*
X8018Y-2432D01*
X8018Y-1926D01*
X7709Y-2517D02*
X7709Y-2123D01*
X7709Y-2235D02*
X7681Y-2179D01*
X7652Y-2151D01*
X7596Y-2123D01*
X7540Y-2123D01*
X7090Y-2123D02*
X7090Y-2517D01*
X7343Y-2123D02*
X7343Y-2432D01*
X7315Y-2489D01*
X7259Y-2517D01*
X7174Y-2517D01*
X7118Y-2489D01*
X7090Y-2460D01*
X6809Y-2123D02*
X6809Y-2517D01*
X6809Y-2179D02*
X6781Y-2151D01*
X6724Y-2123D01*
X6640Y-2123D01*
X6584Y-2151D01*
X6556Y-2207D01*
X6556Y-2517D01*
X5909Y-2235D02*
X5937Y-2207D01*
X5993Y-2179D01*
X6050Y-2179D01*
X6106Y-2207D01*
X6134Y-2235D01*
X6162Y-2292D01*
X6162Y-2348D01*
X6134Y-2404D01*
X6106Y-2432D01*
X6050Y-2460D01*
X5993Y-2460D01*
X5937Y-2432D01*
X5909Y-2404D01*
X5909Y-2179D02*
X5909Y-2404D01*
X5881Y-2432D01*
X5853Y-2432D01*
X5796Y-2404D01*
X5768Y-2348D01*
X5768Y-2207D01*
X5825Y-2123D01*
X5909Y-2067D01*
X6021Y-2039D01*
X6134Y-2067D01*
X6218Y-2123D01*
X6275Y-2207D01*
X6303Y-2320D01*
X6275Y-2432D01*
X6218Y-2517D01*
X6134Y-2573D01*
X6021Y-2601D01*
X5909Y-2573D01*
X5825Y-2517D01*
X5262Y-2123D02*
X5262Y-2601D01*
X5290Y-2657D01*
X5318Y-2685D01*
X5375Y-2714D01*
X5459Y-2714D01*
X5515Y-2685D01*
X5262Y-2489D02*
X5318Y-2517D01*
X5431Y-2517D01*
X5487Y-2489D01*
X5515Y-2460D01*
X5543Y-2404D01*
X5543Y-2235D01*
X5515Y-2179D01*
X5487Y-2151D01*
X5431Y-2123D01*
X5318Y-2123D01*
X5262Y-2151D01*
X4981Y-2517D02*
X4981Y-2123D01*
X4981Y-2179D02*
X4953Y-2151D01*
X4897Y-2123D01*
X4812Y-2123D01*
X4756Y-2151D01*
X4728Y-2207D01*
X4728Y-2517D01*
X4728Y-2207D02*
X4700Y-2151D01*
X4643Y-2123D01*
X4559Y-2123D01*
X4503Y-2151D01*
X4475Y-2207D01*
X4475Y-2517D01*
X3940Y-2517D02*
X3940Y-2207D01*
X3969Y-2151D01*
X4025Y-2123D01*
X4137Y-2123D01*
X4194Y-2151D01*
X3940Y-2489D02*
X3997Y-2517D01*
X4137Y-2517D01*
X4194Y-2489D01*
X4222Y-2432D01*
X4222Y-2376D01*
X4194Y-2320D01*
X4137Y-2292D01*
X3997Y-2292D01*
X3940Y-2264D01*
X3659Y-2517D02*
X3659Y-2123D01*
X3659Y-1926D02*
X3687Y-1954D01*
X3659Y-1982D01*
X3631Y-1954D01*
X3659Y-1926D01*
X3659Y-1982D01*
X3294Y-2517D02*
X3350Y-2489D01*
X3378Y-2432D01*
X3378Y-1926D01*
X3069Y-2460D02*
X3041Y-2489D01*
X3069Y-2517D01*
X3097Y-2489D01*
X3069Y-2460D01*
X3069Y-2517D01*
X2534Y-2489D02*
X2591Y-2517D01*
X2703Y-2517D01*
X2759Y-2489D01*
X2787Y-2460D01*
X2816Y-2404D01*
X2816Y-2235D01*
X2787Y-2179D01*
X2759Y-2151D01*
X2703Y-2123D01*
X2591Y-2123D01*
X2534Y-2151D01*
X2197Y-2517D02*
X2253Y-2489D01*
X2281Y-2460D01*
X2309Y-2404D01*
X2309Y-2235D01*
X2281Y-2179D01*
X2253Y-2151D01*
X2197Y-2123D01*
X2113Y-2123D01*
X2056Y-2151D01*
X2028Y-2179D01*
X2000Y-2235D01*
X2000Y-2404D01*
X2028Y-2460D01*
X2056Y-2489D01*
X2113Y-2517D01*
X2197Y-2517D01*
X1747Y-2517D02*
X1747Y-2123D01*
X1747Y-2179D02*
X1719Y-2151D01*
X1663Y-2123D01*
X1578Y-2123D01*
X1522Y-2151D01*
X1494Y-2207D01*
X1494Y-2517D01*
X1494Y-2207D02*
X1466Y-2151D01*
X1410Y-2123D01*
X1325Y-2123D01*
X1269Y-2151D01*
X1241Y-2207D01*
X1241Y-2517D01*
X10008Y-1517D02*
X10008Y-926D01*
X9811Y-1348D01*
X9615Y-926D01*
X9615Y-1517D01*
X9108Y-1489D02*
X9165Y-1517D01*
X9277Y-1517D01*
X9333Y-1489D01*
X9362Y-1432D01*
X9362Y-1207D01*
X9333Y-1151D01*
X9277Y-1123D01*
X9165Y-1123D01*
X9108Y-1151D01*
X9080Y-1207D01*
X9080Y-1264D01*
X9362Y-1320D01*
X8574Y-1123D02*
X8574Y-1601D01*
X8602Y-1657D01*
X8630Y-1685D01*
X8687Y-1714D01*
X8771Y-1714D01*
X8827Y-1685D01*
X8574Y-1489D02*
X8630Y-1517D01*
X8743Y-1517D01*
X8799Y-1489D01*
X8827Y-1460D01*
X8855Y-1404D01*
X8855Y-1235D01*
X8827Y-1179D01*
X8799Y-1151D01*
X8743Y-1123D01*
X8630Y-1123D01*
X8574Y-1151D01*
X8040Y-1517D02*
X8040Y-1207D01*
X8068Y-1151D01*
X8124Y-1123D01*
X8237Y-1123D01*
X8293Y-1151D01*
X8040Y-1489D02*
X8096Y-1517D01*
X8237Y-1517D01*
X8293Y-1489D01*
X8321Y-1432D01*
X8321Y-1376D01*
X8293Y-1320D01*
X8237Y-1292D01*
X8096Y-1292D01*
X8040Y-1264D01*
X7843Y-1123D02*
X7618Y-1123D01*
X7759Y-1517D02*
X7759Y-1010D01*
X7730Y-954D01*
X7674Y-926D01*
X7618Y-926D01*
X7337Y-1517D02*
X7393Y-1489D01*
X7421Y-1432D01*
X7421Y-926D01*
X6859Y-1517D02*
X6859Y-1207D01*
X6887Y-1151D01*
X6943Y-1123D01*
X7056Y-1123D01*
X7112Y-1151D01*
X6859Y-1489D02*
X6915Y-1517D01*
X7056Y-1517D01*
X7112Y-1489D01*
X7140Y-1432D01*
X7140Y-1376D01*
X7112Y-1320D01*
X7056Y-1292D01*
X6915Y-1292D01*
X6859Y-1264D01*
X6606Y-1489D02*
X6549Y-1517D01*
X6437Y-1517D01*
X6381Y-1489D01*
X6353Y-1432D01*
X6353Y-1404D01*
X6381Y-1348D01*
X6437Y-1320D01*
X6521Y-1320D01*
X6578Y-1292D01*
X6606Y-1235D01*
X6606Y-1207D01*
X6578Y-1151D01*
X6521Y-1123D01*
X6437Y-1123D01*
X6381Y-1151D01*
X6099Y-1517D02*
X6099Y-926D01*
X5846Y-1517D02*
X5846Y-1207D01*
X5874Y-1151D01*
X5931Y-1123D01*
X6015Y-1123D01*
X6071Y-1151D01*
X6099Y-1179D01*
X4778Y-1517D02*
X4975Y-1235D01*
X5115Y-1517D02*
X5115Y-926D01*
X4890Y-926D01*
X4834Y-954D01*
X4806Y-982D01*
X4778Y-1039D01*
X4778Y-1123D01*
X4806Y-1179D01*
X4834Y-1207D01*
X4890Y-1235D01*
X5115Y-1235D01*
X4300Y-1489D02*
X4356Y-1517D01*
X4468Y-1517D01*
X4525Y-1489D01*
X4553Y-1432D01*
X4553Y-1207D01*
X4525Y-1151D01*
X4468Y-1123D01*
X4356Y-1123D01*
X4300Y-1151D01*
X4272Y-1207D01*
X4272Y-1264D01*
X4553Y-1320D01*
X3765Y-1517D02*
X3765Y-926D01*
X3765Y-1489D02*
X3822Y-1517D01*
X3934Y-1517D01*
X3990Y-1489D01*
X4018Y-1460D01*
X4047Y-1404D01*
X4047Y-1235D01*
X4018Y-1179D01*
X3990Y-1151D01*
X3934Y-1123D01*
X3822Y-1123D01*
X3765Y-1151D01*
X3231Y-1123D02*
X3231Y-1517D01*
X3484Y-1123D02*
X3484Y-1432D01*
X3456Y-1489D01*
X3400Y-1517D01*
X3315Y-1517D01*
X3259Y-1489D01*
X3231Y-1460D01*
X3006Y-1517D02*
X2697Y-1123D01*
X3006Y-1123D02*
X2697Y-1517D01*
X2078Y-1123D02*
X1937Y-1517D01*
X1797Y-1123D01*
X1263Y-1517D02*
X1600Y-1517D01*
X1431Y-1517D02*
X1431Y-926D01*
X1488Y-1010D01*
X1544Y-1067D01*
X1600Y-1095D01*
G54D12*
X0Y0D02*
X28600Y0D01*
X28600Y-17100D02*
X0Y-17100D01*
X0Y-17100D02*
X0Y0D01*
X28600Y0D02*
X28600Y-17100D01*
G54D13*
X12250Y-6600D02*
X11750Y-6600D01*
X12250Y-7100D02*
X11760Y-7100D01*
X12250Y-7250D02*
X12250Y-6450D01*
X12250Y-6450D02*
X11750Y-6450D01*
X11750Y-6450D02*
X11750Y-7250D01*
X11750Y-7250D02*
X12250Y-7250D01*
X9150Y-9450D02*
X9150Y-9950D01*
X9650Y-9450D02*
X9650Y-9940D01*
X9800Y-9450D02*
X9000Y-9450D01*
X9000Y-9450D02*
X9000Y-9950D01*
X9000Y-9950D02*
X9800Y-9950D01*
X9800Y-9950D02*
X9800Y-9450D01*
X11950Y-9550D02*
X11950Y-9050D01*
X11450Y-9550D02*
X11450Y-9060D01*
X11300Y-9550D02*
X12100Y-9550D01*
X12100Y-9550D02*
X12100Y-9050D01*
X12100Y-9050D02*
X11300Y-9050D01*
X11300Y-9050D02*
X11300Y-9550D01*
%LPC*%
G54D14*
X12000Y-6475D03*
X12000Y-7225D03*
G54D15*
X9025Y-9700D03*
X9775Y-9700D03*
G54D16*
X26300Y-14452D03*
G54D17*
X26300Y-15648D03*
X25300Y-14453D03*
X25300Y-15648D03*
X24300Y-14453D03*
X24300Y-15648D03*
X23300Y-14453D03*
X23300Y-15648D03*
X22300Y-14453D03*
X22300Y-15648D03*
X21300Y-14453D03*
X21300Y-15648D03*
X20300Y-14453D03*
X20300Y-15648D03*
X19300Y-14453D03*
X19300Y-15648D03*
X18300Y-14453D03*
X18300Y-15648D03*
X17300Y-14453D03*
X17300Y-15648D03*
X16300Y-14453D03*
X16300Y-15648D03*
X15300Y-14453D03*
X15300Y-15648D03*
X14300Y-14453D03*
X14300Y-15648D03*
X13300Y-14453D03*
X13300Y-15648D03*
X12300Y-14453D03*
X12300Y-15648D03*
X11300Y-14453D03*
X11300Y-15648D03*
X10300Y-14453D03*
X10300Y-15648D03*
X9300Y-14453D03*
X9300Y-15648D03*
X8300Y-14453D03*
X8300Y-15648D03*
X7300Y-14453D03*
X7300Y-15648D03*
X6300Y-14453D03*
X6300Y-15648D03*
X5300Y-14453D03*
X5300Y-15648D03*
X4300Y-14453D03*
X4300Y-15648D03*
X3300Y-14453D03*
X3300Y-15648D03*
X2300Y-14453D03*
X2300Y-15648D03*
G54D18*
X23300Y-8450D03*
X22300Y-9450D03*
X22300Y-8450D03*
X23300Y-7450D03*
X22300Y-6450D03*
X22300Y-7450D03*
X21300Y-6450D03*
X21300Y-7450D03*
X20300Y-6450D03*
X20300Y-7450D03*
X19300Y-6450D03*
X19300Y-7450D03*
X18300Y-6450D03*
X17300Y-7450D03*
X18300Y-7450D03*
X17300Y-8450D03*
X18300Y-8450D03*
X17300Y-9450D03*
X18300Y-9450D03*
X17300Y-10450D03*
X18300Y-11450D03*
X18300Y-10450D03*
X19300Y-11450D03*
X19300Y-10450D03*
X20300Y-11450D03*
X20300Y-10450D03*
X21300Y-11450D03*
X23300Y-9450D03*
X21300Y-10450D03*
X22300Y-11450D03*
X23300Y-10450D03*
X22300Y-10450D03*
G54D19*
X16484Y-1000D03*
X15500Y-1000D03*
X14516Y-1000D03*
G54D20*
X22300Y-2050D03*
G54D21*
X23300Y-2050D03*
X24300Y-2050D03*
G54D20*
X22300Y-3350D03*
G54D21*
X23300Y-3350D03*
X24300Y-3350D03*
G54D18*
X9900Y-4500D03*
X10900Y-5500D03*
X9900Y-5500D03*
X8900Y-4500D03*
X8900Y-5500D03*
X7900Y-4500D03*
X6900Y-5500D03*
X7900Y-5500D03*
X6900Y-6500D03*
X7900Y-6500D03*
X6900Y-7500D03*
X7900Y-7500D03*
X6900Y-8500D03*
X7900Y-8500D03*
X6900Y-9500D03*
X7900Y-9500D03*
X6900Y-10500D03*
X7900Y-11500D03*
X7900Y-10500D03*
X8900Y-11500D03*
X8900Y-10500D03*
X9900Y-11500D03*
X9900Y-10500D03*
X10900Y-11500D03*
X10900Y-10500D03*
X11900Y-11500D03*
X11900Y-10500D03*
X12900Y-9500D03*
X12900Y-11500D03*
X13900Y-10500D03*
X12900Y-10500D03*
X13900Y-9500D03*
X13900Y-8500D03*
X12900Y-8500D03*
X13900Y-7500D03*
X12900Y-7500D03*
X13900Y-6500D03*
X12900Y-6500D03*
X13900Y-5500D03*
X12900Y-4500D03*
X12900Y-5500D03*
X11900Y-4500D03*
X11900Y-5500D03*
X10900Y-4500D03*
G54D22*
X2598Y-7050D03*
G54D23*
X1402Y-7050D03*
X2598Y-6050D03*
X1402Y-6050D03*
G54D19*
X18900Y-1000D03*
X19900Y-1000D03*
G54D24*
X4650Y-10000D03*
G54D25*
X4650Y-9000D03*
X4650Y-8000D03*
X4650Y-7000D03*
X4650Y-6000D03*
X4650Y-5000D03*
G54D15*
X12075Y-9300D03*
X11325Y-9300D03*
M02*
