M48
;DRILL file {Pcbnew (2013-07-20 BZR 4243)-testing} date 22/04/2014 10:38:38 PM
;FORMAT={2:4/ absolute / inch / suppress leading zeros}
FMAT,2
INCH,TZ
T1C0.020
T2C0.032
T3C0.039
T4C0.039
%
G90
G05
M72
T1
X2050Y-8100
X3800Y-15050
X5800Y-14000
X7300Y-12850
X7800Y-15050
X8700Y-8000
X8700Y-8500
X8700Y-9050
X15050Y-8450
X16500Y-1950
X17700Y-16250
X17800Y-13750
X18350Y-12950
X18800Y-9750
X19750Y-12100
X19800Y-9750
X20550Y-9900
X21250Y-12450
X22250Y-12450
X23250Y-12450
X23750Y-12300
X23800Y-14900
X24350Y-9450
X24500Y-11850
X24600Y-12900
T2
X18900Y-1000
X19900Y-1000
T3
X14516Y-1000
X15500Y-1000
X16484Y-1000
T4
X1500Y-6050
X1500Y-7050
X2300Y-14550
X2300Y-15550
X2500Y-6050
X2500Y-7050
X3300Y-14550
X3300Y-15550
X4300Y-14550
X4300Y-15550
X4650Y-5000
X4650Y-6000
X4650Y-7000
X4650Y-8000
X4650Y-9000
X4650Y-10000
X5300Y-14550
X5300Y-15550
X6300Y-14550
X6300Y-15550
X6900Y-5500
X6900Y-6500
X6900Y-7500
X6900Y-8500
X6900Y-9500
X6900Y-10500
X7300Y-14550
X7300Y-15550
X7900Y-4500
X7900Y-5500
X7900Y-6500
X7900Y-7500
X7900Y-8500
X7900Y-9500
X7900Y-10500
X7900Y-11500
X8300Y-14550
X8300Y-15550
X8900Y-4500
X8900Y-5500
X8900Y-10500
X8900Y-11500
X9300Y-14550
X9300Y-15550
X9900Y-4500
X9900Y-5500
X9900Y-10500
X9900Y-11500
X10300Y-14550
X10300Y-15550
X10900Y-4500
X10900Y-5500
X10900Y-10500
X10900Y-11500
X11300Y-14550
X11300Y-15550
X11900Y-4500
X11900Y-5500
X11900Y-10500
X11900Y-11500
X12300Y-14550
X12300Y-15550
X12900Y-4500
X12900Y-5500
X12900Y-6500
X12900Y-7500
X12900Y-8500
X12900Y-9500
X12900Y-10500
X12900Y-11500
X13300Y-14550
X13300Y-15550
X13900Y-5500
X13900Y-6500
X13900Y-7500
X13900Y-8500
X13900Y-9500
X13900Y-10500
X14300Y-14550
X14300Y-15550
X15300Y-14550
X15300Y-15550
X16300Y-14550
X16300Y-15550
X17300Y-7450
X17300Y-8450
X17300Y-9450
X17300Y-10450
X17300Y-14550
X17300Y-15550
X18300Y-6450
X18300Y-7450
X18300Y-8450
X18300Y-9450
X18300Y-10450
X18300Y-11450
X18300Y-14550
X18300Y-15550
X19300Y-6450
X19300Y-7450
X19300Y-10450
X19300Y-11450
X19300Y-14550
X19300Y-15550
X20300Y-6450
X20300Y-7450
X20300Y-10450
X20300Y-11450
X20300Y-14550
X20300Y-15550
X21300Y-6450
X21300Y-7450
X21300Y-10450
X21300Y-11450
X21300Y-14550
X21300Y-15550
X22300Y-2050
X22300Y-3350
X22300Y-6450
X22300Y-7450
X22300Y-8450
X22300Y-9450
X22300Y-10450
X22300Y-11450
X22300Y-14550
X22300Y-15550
X23300Y-2050
X23300Y-3350
X23300Y-7450
X23300Y-8450
X23300Y-9450
X23300Y-10450
X23300Y-14550
X23300Y-15550
X24300Y-2050
X24300Y-3350
X24300Y-14550
X24300Y-15550
X25300Y-14550
X25300Y-15550
X26300Y-14550
X26300Y-15550
T0
M30
